{"glyphs":{"0":{"ha":874,"x_min":56,"x_max":818,"o":"m 579 307 l 579 749 q 538 790 579 790 l 338 790 q 296 749 296 790 l 296 307 q 338 265 296 265 l 538 265 q 579 307 579 265 m 628 0 l 246 0 q 56 185 56 0 l 56 863 q 246 1056 56 1056 l 628 1056 q 818 863 818 1056 l 818 185 q 628 0 818 0 z "},"1":{"ha":413,"x_min":17,"x_max":353,"o":"m 353 0 l 111 0 l 111 749 q 69 790 111 790 l 17 790 l 17 1056 l 161 1056 q 353 864 353 1056 l 353 0 z "},"2":{"ha":874,"x_min":56,"x_max":818,"o":"m 818 0 l 56 0 l 56 463 q 240 649 56 649 l 522 649 q 578 704 578 649 l 578 735 q 522 790 578 790 l 74 790 l 74 1056 l 629 1056 q 818 854 818 1056 l 818 593 q 624 408 818 408 l 347 408 q 293 353 293 408 l 293 265 l 818 265 l 818 0 z "},"3":{"ha":783,"x_min":39,"x_max":728,"o":"m 538 0 l 39 0 l 39 265 l 447 265 q 488 307 488 265 l 488 381 q 447 422 488 422 l 53 422 l 53 635 l 447 635 q 488 676 488 635 l 488 749 q 447 790 488 790 l 49 790 l 49 1056 l 535 1056 q 725 858 725 1056 l 725 692 q 608 528 725 549 q 728 376 728 501 l 728 196 q 538 0 728 0 z "},"4":{"ha":843,"x_min":32,"x_max":811,"o":"m 483 490 l 483 813 l 325 490 l 483 490 m 721 0 l 483 0 l 483 251 l 32 251 l 32 428 l 346 1056 l 721 1056 l 721 490 l 811 490 l 811 251 l 721 251 l 721 0 z "},"5":{"ha":876,"x_min":57,"x_max":819,"o":"m 618 0 l 57 0 l 57 265 l 539 265 q 581 307 581 265 l 581 381 q 539 422 581 422 l 65 422 l 65 1056 l 801 1056 l 801 790 l 306 790 l 306 663 l 635 663 q 819 476 819 663 l 819 206 q 618 0 819 0 z "},"6":{"ha":879,"x_min":56,"x_max":822,"o":"m 583 303 l 583 376 q 542 418 583 418 l 342 418 q 300 376 300 418 l 300 303 q 342 261 300 261 l 542 261 q 583 303 583 261 m 638 0 l 246 0 q 56 197 56 0 l 56 854 q 242 1056 56 1056 l 796 1056 l 796 790 l 354 790 q 300 731 300 790 l 300 596 q 368 633 322 633 l 656 633 q 822 451 822 633 l 822 186 q 638 0 822 0 z "},"7":{"ha":844,"x_min":28,"x_max":818,"o":"m 410 0 l 93 0 l 474 790 l 28 790 l 28 1056 l 818 1056 l 818 876 l 410 0 z "},"8":{"ha":876,"x_min":56,"x_max":821,"o":"m 629 0 l 246 0 q 56 196 56 0 l 56 376 q 175 528 56 501 q 58 692 58 549 l 58 858 q 249 1056 58 1056 l 626 1056 q 818 858 818 1056 l 818 692 q 701 528 818 549 q 821 376 821 501 l 821 196 q 629 0 821 0 m 582 300 l 582 385 q 540 426 582 426 l 336 426 q 294 385 294 426 l 294 300 q 336 258 294 258 l 540 258 q 582 300 582 258 m 582 672 l 582 756 q 540 797 582 797 l 336 797 q 294 756 294 797 l 294 672 q 336 629 294 629 l 540 629 q 582 672 582 629 z "},"9":{"ha":868,"x_min":46,"x_max":813,"o":"m 568 663 l 568 753 q 526 794 568 794 l 326 794 q 285 753 285 794 l 285 663 q 326 621 285 621 l 526 621 q 568 663 568 621 m 625 0 l 72 0 l 72 265 l 514 265 q 568 325 568 265 l 568 443 q 500 406 546 406 l 213 406 q 46 588 46 406 l 46 869 q 231 1056 46 1056 l 622 1056 q 813 858 813 1056 l 813 201 q 625 0 813 0 z "},"ν":{"ha":1046,"x_min":46,"x_max":1001,"o":"m 382 -28 l 422 124 q 425 144 425 138 q 386 189 425 179 l 260 224 q 239 226 243 226 q 192 185 203 226 l 151 33 q 147 11 147 21 q 186 -32 147 -22 l 317 -67 q 336 -71 324 -71 q 382 -28 371 -71 m 838 407 l 904 660 q 917 739 917 713 q 776 903 917 865 l 275 1038 l 207 781 l 617 671 q 649 636 649 663 q 646 619 649 631 l 629 564 q 597 532 622 532 q 581 535 586 532 l 482 560 q 413 569 438 569 q 256 428 293 569 l 222 303 l 453 240 l 461 274 q 497 306 469 306 q 513 304 507 306 l 603 279 q 679 268 638 268 q 838 407 800 268 m 865 -286 l 181 -286 q 46 -169 46 -286 l 46 1058 q 181 1176 46 1176 l 865 1176 q 1001 1058 1001 1176 l 1001 -169 q 865 -286 1001 -286 z "},"ξ":{"ha":1046,"x_min":46,"x_max":1001,"o":"m 382 -28 l 422 124 q 425 144 425 138 q 386 189 425 179 l 260 224 q 239 226 243 226 q 192 185 203 226 l 151 33 q 147 11 147 21 q 186 -32 147 -22 l 317 -67 q 336 -71 324 -71 q 382 -28 371 -71 m 838 407 l 904 660 q 917 739 917 713 q 776 903 917 865 l 275 1038 l 207 781 l 617 671 q 649 636 649 663 q 646 619 649 631 l 629 564 q 597 532 622 532 q 581 535 586 532 l 482 560 q 413 569 438 569 q 256 428 293 569 l 222 303 l 453 240 l 461 274 q 497 306 469 306 q 513 304 507 306 l 603 279 q 679 268 638 268 q 838 407 800 268 m 865 -286 l 181 -286 q 46 -169 46 -286 l 46 1058 q 181 1176 46 1176 l 865 1176 q 1001 1058 1001 1176 l 1001 -169 q 865 -286 1001 -286 z "},"ο":{"ha":1046,"x_min":46,"x_max":1001,"o":"m 382 -28 l 422 124 q 425 144 425 138 q 386 189 425 179 l 260 224 q 239 226 243 226 q 192 185 203 226 l 151 33 q 147 11 147 21 q 186 -32 147 -22 l 317 -67 q 336 -71 324 -71 q 382 -28 371 -71 m 838 407 l 904 660 q 917 739 917 713 q 776 903 917 865 l 275 1038 l 207 781 l 617 671 q 649 636 649 663 q 646 619 649 631 l 629 564 q 597 532 622 532 q 581 535 586 532 l 482 560 q 413 569 438 569 q 256 428 293 569 l 222 303 l 453 240 l 461 274 q 497 306 469 306 q 513 304 507 306 l 603 279 q 679 268 638 268 q 838 407 800 268 m 865 -286 l 181 -286 q 46 -169 46 -286 l 46 1058 q 181 1176 46 1176 l 865 1176 q 1001 1058 1001 1176 l 1001 -169 q 865 -286 1001 -286 z "},"―":{"ha":1046,"x_min":46,"x_max":1001,"o":"m 382 -28 l 422 124 q 425 144 425 138 q 386 189 425 179 l 260 224 q 239 226 243 226 q 192 185 203 226 l 151 33 q 147 11 147 21 q 186 -32 147 -22 l 317 -67 q 336 -71 324 -71 q 382 -28 371 -71 m 838 407 l 904 660 q 917 739 917 713 q 776 903 917 865 l 275 1038 l 207 781 l 617 671 q 649 636 649 663 q 646 619 649 631 l 629 564 q 597 532 622 532 q 581 535 586 532 l 482 560 q 413 569 438 569 q 256 428 293 569 l 222 303 l 453 240 l 461 274 q 497 306 469 306 q 513 304 507 306 l 603 279 q 679 268 638 268 q 838 407 800 268 m 865 -286 l 181 -286 q 46 -169 46 -286 l 46 1058 q 181 1176 46 1176 l 865 1176 q 1001 1058 1001 1176 l 1001 -169 q 865 -286 1001 -286 z "},"‖":{"ha":1046,"x_min":46,"x_max":1001,"o":"m 382 -28 l 422 124 q 425 144 425 138 q 386 189 425 179 l 260 224 q 239 226 243 226 q 192 185 203 226 l 151 33 q 147 11 147 21 q 186 -32 147 -22 l 317 -67 q 336 -71 324 -71 q 382 -28 371 -71 m 838 407 l 904 660 q 917 739 917 713 q 776 903 917 865 l 275 1038 l 207 781 l 617 671 q 649 636 649 663 q 646 619 649 631 l 629 564 q 597 532 622 532 q 581 535 586 532 l 482 560 q 413 569 438 569 q 256 428 293 569 l 222 303 l 453 240 l 461 274 q 497 306 469 306 q 513 304 507 306 l 603 279 q 679 268 638 268 q 838 407 800 268 m 865 -286 l 181 -286 q 46 -169 46 -286 l 46 1058 q 181 1176 46 1176 l 865 1176 q 1001 1058 1001 1176 l 1001 -169 q 865 -286 1001 -286 z "},"‗":{"ha":1046,"x_min":46,"x_max":1001,"o":"m 382 -28 l 422 124 q 425 144 425 138 q 386 189 425 179 l 260 224 q 239 226 243 226 q 192 185 203 226 l 151 33 q 147 11 147 21 q 186 -32 147 -22 l 317 -67 q 336 -71 324 -71 q 382 -28 371 -71 m 838 407 l 904 660 q 917 739 917 713 q 776 903 917 865 l 275 1038 l 207 781 l 617 671 q 649 636 649 663 q 646 619 649 631 l 629 564 q 597 532 622 532 q 581 535 586 532 l 482 560 q 413 569 438 569 q 256 428 293 569 l 222 303 l 453 240 l 461 274 q 497 306 469 306 q 513 304 507 306 l 603 279 q 679 268 638 268 q 838 407 800 268 m 865 -286 l 181 -286 q 46 -169 46 -286 l 46 1058 q 181 1176 46 1176 l 865 1176 q 1001 1058 1001 1176 l 1001 -169 q 865 -286 1001 -286 z "},"‛":{"ha":1046,"x_min":46,"x_max":1001,"o":"m 382 -28 l 422 124 q 425 144 425 138 q 386 189 425 179 l 260 224 q 239 226 243 226 q 192 185 203 226 l 151 33 q 147 11 147 21 q 186 -32 147 -22 l 317 -67 q 336 -71 324 -71 q 382 -28 371 -71 m 838 407 l 904 660 q 917 739 917 713 q 776 903 917 865 l 275 1038 l 207 781 l 617 671 q 649 636 649 663 q 646 619 649 631 l 629 564 q 597 532 622 532 q 581 535 586 532 l 482 560 q 413 569 438 569 q 256 428 293 569 l 222 303 l 453 240 l 461 274 q 497 306 469 306 q 513 304 507 306 l 603 279 q 679 268 638 268 q 838 407 800 268 m 865 -286 l 181 -286 q 46 -169 46 -286 l 46 1058 q 181 1176 46 1176 l 865 1176 q 1001 1058 1001 1176 l 1001 -169 q 865 -286 1001 -286 z "},"‟":{"ha":1046,"x_min":46,"x_max":1001,"o":"m 382 -28 l 422 124 q 425 144 425 138 q 386 189 425 179 l 260 224 q 239 226 243 226 q 192 185 203 226 l 151 33 q 147 11 147 21 q 186 -32 147 -22 l 317 -67 q 336 -71 324 -71 q 382 -28 371 -71 m 838 407 l 904 660 q 917 739 917 713 q 776 903 917 865 l 275 1038 l 207 781 l 617 671 q 649 636 649 663 q 646 619 649 631 l 629 564 q 597 532 622 532 q 581 535 586 532 l 482 560 q 413 569 438 569 q 256 428 293 569 l 222 303 l 453 240 l 461 274 q 497 306 469 306 q 513 304 507 306 l 603 279 q 679 268 638 268 q 838 407 800 268 m 865 -286 l 181 -286 q 46 -169 46 -286 l 46 1058 q 181 1176 46 1176 l 865 1176 q 1001 1058 1001 1176 l 1001 -169 q 865 -286 1001 -286 z "},"‣":{"ha":1046,"x_min":46,"x_max":1001,"o":"m 382 -28 l 422 124 q 425 144 425 138 q 386 189 425 179 l 260 224 q 239 226 243 226 q 192 185 203 226 l 151 33 q 147 11 147 21 q 186 -32 147 -22 l 317 -67 q 336 -71 324 -71 q 382 -28 371 -71 m 838 407 l 904 660 q 917 739 917 713 q 776 903 917 865 l 275 1038 l 207 781 l 617 671 q 649 636 649 663 q 646 619 649 631 l 629 564 q 597 532 622 532 q 581 535 586 532 l 482 560 q 413 569 438 569 q 256 428 293 569 l 222 303 l 453 240 l 461 274 q 497 306 469 306 q 513 304 507 306 l 603 279 q 679 268 638 268 q 838 407 800 268 m 865 -286 l 181 -286 q 46 -169 46 -286 l 46 1058 q 181 1176 46 1176 l 865 1176 q 1001 1058 1001 1176 l 1001 -169 q 865 -286 1001 -286 z "},"․":{"ha":1046,"x_min":46,"x_max":1001,"o":"m 382 -28 l 422 124 q 425 144 425 138 q 386 189 425 179 l 260 224 q 239 226 243 226 q 192 185 203 226 l 151 33 q 147 11 147 21 q 186 -32 147 -22 l 317 -67 q 336 -71 324 -71 q 382 -28 371 -71 m 838 407 l 904 660 q 917 739 917 713 q 776 903 917 865 l 275 1038 l 207 781 l 617 671 q 649 636 649 663 q 646 619 649 631 l 629 564 q 597 532 622 532 q 581 535 586 532 l 482 560 q 413 569 438 569 q 256 428 293 569 l 222 303 l 453 240 l 461 274 q 497 306 469 306 q 513 304 507 306 l 603 279 q 679 268 638 268 q 838 407 800 268 m 865 -286 l 181 -286 q 46 -169 46 -286 l 46 1058 q 181 1176 46 1176 l 865 1176 q 1001 1058 1001 1176 l 1001 -169 q 865 -286 1001 -286 z "},"‥":{"ha":1046,"x_min":46,"x_max":1001,"o":"m 382 -28 l 422 124 q 425 144 425 138 q 386 189 425 179 l 260 224 q 239 226 243 226 q 192 185 203 226 l 151 33 q 147 11 147 21 q 186 -32 147 -22 l 317 -67 q 336 -71 324 -71 q 382 -28 371 -71 m 838 407 l 904 660 q 917 739 917 713 q 776 903 917 865 l 275 1038 l 207 781 l 617 671 q 649 636 649 663 q 646 619 649 631 l 629 564 q 597 532 622 532 q 581 535 586 532 l 482 560 q 413 569 438 569 q 256 428 293 569 l 222 303 l 453 240 l 461 274 q 497 306 469 306 q 513 304 507 306 l 603 279 q 679 268 638 268 q 838 407 800 268 m 865 -286 l 181 -286 q 46 -169 46 -286 l 46 1058 q 181 1176 46 1176 l 865 1176 q 1001 1058 1001 1176 l 1001 -169 q 865 -286 1001 -286 z "},"₫":{"ha":1046,"x_min":46,"x_max":1001,"o":"m 382 -28 l 422 124 q 425 144 425 138 q 386 189 425 179 l 260 224 q 239 226 243 226 q 192 185 203 226 l 151 33 q 147 11 147 21 q 186 -32 147 -22 l 317 -67 q 336 -71 324 -71 q 382 -28 371 -71 m 838 407 l 904 660 q 917 739 917 713 q 776 903 917 865 l 275 1038 l 207 781 l 617 671 q 649 636 649 663 q 646 619 649 631 l 629 564 q 597 532 622 532 q 581 535 586 532 l 482 560 q 413 569 438 569 q 256 428 293 569 l 222 303 l 453 240 l 461 274 q 497 306 469 306 q 513 304 507 306 l 603 279 q 679 268 638 268 q 838 407 800 268 m 865 -286 l 181 -286 q 46 -169 46 -286 l 46 1058 q 181 1176 46 1176 l 865 1176 q 1001 1058 1001 1176 l 1001 -169 q 865 -286 1001 -286 z "},"₯":{"ha":1046,"x_min":46,"x_max":1001,"o":"m 382 -28 l 422 124 q 425 144 425 138 q 386 189 425 179 l 260 224 q 239 226 243 226 q 192 185 203 226 l 151 33 q 147 11 147 21 q 186 -32 147 -22 l 317 -67 q 336 -71 324 -71 q 382 -28 371 -71 m 838 407 l 904 660 q 917 739 917 713 q 776 903 917 865 l 275 1038 l 207 781 l 617 671 q 649 636 649 663 q 646 619 649 631 l 629 564 q 597 532 622 532 q 581 535 586 532 l 482 560 q 413 569 438 569 q 256 428 293 569 l 222 303 l 453 240 l 461 274 q 497 306 469 306 q 513 304 507 306 l 603 279 q 679 268 638 268 q 838 407 800 268 m 865 -286 l 181 -286 q 46 -169 46 -286 l 46 1058 q 181 1176 46 1176 l 865 1176 q 1001 1058 1001 1176 l 1001 -169 q 865 -286 1001 -286 z "},"₰":{"ha":1046,"x_min":46,"x_max":1001,"o":"m 382 -28 l 422 124 q 425 144 425 138 q 386 189 425 179 l 260 224 q 239 226 243 226 q 192 185 203 226 l 151 33 q 147 11 147 21 q 186 -32 147 -22 l 317 -67 q 336 -71 324 -71 q 382 -28 371 -71 m 838 407 l 904 660 q 917 739 917 713 q 776 903 917 865 l 275 1038 l 207 781 l 617 671 q 649 636 649 663 q 646 619 649 631 l 629 564 q 597 532 622 532 q 581 535 586 532 l 482 560 q 413 569 438 569 q 256 428 293 569 l 222 303 l 453 240 l 461 274 q 497 306 469 306 q 513 304 507 306 l 603 279 q 679 268 638 268 q 838 407 800 268 m 865 -286 l 181 -286 q 46 -169 46 -286 l 46 1058 q 181 1176 46 1176 l 865 1176 q 1001 1058 1001 1176 l 1001 -169 q 865 -286 1001 -286 z "},"₳":{"ha":1046,"x_min":46,"x_max":1001,"o":"m 382 -28 l 422 124 q 425 144 425 138 q 386 189 425 179 l 260 224 q 239 226 243 226 q 192 185 203 226 l 151 33 q 147 11 147 21 q 186 -32 147 -22 l 317 -67 q 336 -71 324 -71 q 382 -28 371 -71 m 838 407 l 904 660 q 917 739 917 713 q 776 903 917 865 l 275 1038 l 207 781 l 617 671 q 649 636 649 663 q 646 619 649 631 l 629 564 q 597 532 622 532 q 581 535 586 532 l 482 560 q 413 569 438 569 q 256 428 293 569 l 222 303 l 453 240 l 461 274 q 497 306 469 306 q 513 304 507 306 l 603 279 q 679 268 638 268 q 838 407 800 268 m 865 -286 l 181 -286 q 46 -169 46 -286 l 46 1058 q 181 1176 46 1176 l 865 1176 q 1001 1058 1001 1176 l 1001 -169 q 865 -286 1001 -286 z "},"₵":{"ha":1046,"x_min":46,"x_max":1001,"o":"m 382 -28 l 422 124 q 425 144 425 138 q 386 189 425 179 l 260 224 q 239 226 243 226 q 192 185 203 226 l 151 33 q 147 11 147 21 q 186 -32 147 -22 l 317 -67 q 336 -71 324 -71 q 382 -28 371 -71 m 838 407 l 904 660 q 917 739 917 713 q 776 903 917 865 l 275 1038 l 207 781 l 617 671 q 649 636 649 663 q 646 619 649 631 l 629 564 q 597 532 622 532 q 581 535 586 532 l 482 560 q 413 569 438 569 q 256 428 293 569 l 222 303 l 453 240 l 461 274 q 497 306 469 306 q 513 304 507 306 l 603 279 q 679 268 638 268 q 838 407 800 268 m 865 -286 l 181 -286 q 46 -169 46 -286 l 46 1058 q 181 1176 46 1176 l 865 1176 q 1001 1058 1001 1176 l 1001 -169 q 865 -286 1001 -286 z "},"₶":{"ha":1046,"x_min":46,"x_max":1001,"o":"m 382 -28 l 422 124 q 425 144 425 138 q 386 189 425 179 l 260 224 q 239 226 243 226 q 192 185 203 226 l 151 33 q 147 11 147 21 q 186 -32 147 -22 l 317 -67 q 336 -71 324 -71 q 382 -28 371 -71 m 838 407 l 904 660 q 917 739 917 713 q 776 903 917 865 l 275 1038 l 207 781 l 617 671 q 649 636 649 663 q 646 619 649 631 l 629 564 q 597 532 622 532 q 581 535 586 532 l 482 560 q 413 569 438 569 q 256 428 293 569 l 222 303 l 453 240 l 461 274 q 497 306 469 306 q 513 304 507 306 l 603 279 q 679 268 638 268 q 838 407 800 268 m 865 -286 l 181 -286 q 46 -169 46 -286 l 46 1058 q 181 1176 46 1176 l 865 1176 q 1001 1058 1001 1176 l 1001 -169 q 865 -286 1001 -286 z "},"₷":{"ha":1046,"x_min":46,"x_max":1001,"o":"m 382 -28 l 422 124 q 425 144 425 138 q 386 189 425 179 l 260 224 q 239 226 243 226 q 192 185 203 226 l 151 33 q 147 11 147 21 q 186 -32 147 -22 l 317 -67 q 336 -71 324 -71 q 382 -28 371 -71 m 838 407 l 904 660 q 917 739 917 713 q 776 903 917 865 l 275 1038 l 207 781 l 617 671 q 649 636 649 663 q 646 619 649 631 l 629 564 q 597 532 622 532 q 581 535 586 532 l 482 560 q 413 569 438 569 q 256 428 293 569 l 222 303 l 453 240 l 461 274 q 497 306 469 306 q 513 304 507 306 l 603 279 q 679 268 638 268 q 838 407 800 268 m 865 -286 l 181 -286 q 46 -169 46 -286 l 46 1058 q 181 1176 46 1176 l 865 1176 q 1001 1058 1001 1176 l 1001 -169 q 865 -286 1001 -286 z "},"₻":{"ha":1046,"x_min":46,"x_max":1001,"o":"m 382 -28 l 422 124 q 425 144 425 138 q 386 189 425 179 l 260 224 q 239 226 243 226 q 192 185 203 226 l 151 33 q 147 11 147 21 q 186 -32 147 -22 l 317 -67 q 336 -71 324 -71 q 382 -28 371 -71 m 838 407 l 904 660 q 917 739 917 713 q 776 903 917 865 l 275 1038 l 207 781 l 617 671 q 649 636 649 663 q 646 619 649 631 l 629 564 q 597 532 622 532 q 581 535 586 532 l 482 560 q 413 569 438 569 q 256 428 293 569 l 222 303 l 453 240 l 461 274 q 497 306 469 306 q 513 304 507 306 l 603 279 q 679 268 638 268 q 838 407 800 268 m 865 -286 l 181 -286 q 46 -169 46 -286 l 46 1058 q 181 1176 46 1176 l 865 1176 q 1001 1058 1001 1176 l 1001 -169 q 865 -286 1001 -286 z "},"∐":{"ha":1046,"x_min":46,"x_max":1001,"o":"m 382 -28 l 422 124 q 425 144 425 138 q 386 189 425 179 l 260 224 q 239 226 243 226 q 192 185 203 226 l 151 33 q 147 11 147 21 q 186 -32 147 -22 l 317 -67 q 336 -71 324 -71 q 382 -28 371 -71 m 838 407 l 904 660 q 917 739 917 713 q 776 903 917 865 l 275 1038 l 207 781 l 617 671 q 649 636 649 663 q 646 619 649 631 l 629 564 q 597 532 622 532 q 581 535 586 532 l 482 560 q 413 569 438 569 q 256 428 293 569 l 222 303 l 453 240 l 461 274 q 497 306 469 306 q 513 304 507 306 l 603 279 q 679 268 638 268 q 838 407 800 268 m 865 -286 l 181 -286 q 46 -169 46 -286 l 46 1058 q 181 1176 46 1176 l 865 1176 q 1001 1058 1001 1176 l 1001 -169 q 865 -286 1001 -286 z "},"∛":{"ha":1046,"x_min":46,"x_max":1001,"o":"m 382 -28 l 422 124 q 425 144 425 138 q 386 189 425 179 l 260 224 q 239 226 243 226 q 192 185 203 226 l 151 33 q 147 11 147 21 q 186 -32 147 -22 l 317 -67 q 336 -71 324 -71 q 382 -28 371 -71 m 838 407 l 904 660 q 917 739 917 713 q 776 903 917 865 l 275 1038 l 207 781 l 617 671 q 649 636 649 663 q 646 619 649 631 l 629 564 q 597 532 622 532 q 581 535 586 532 l 482 560 q 413 569 438 569 q 256 428 293 569 l 222 303 l 453 240 l 461 274 q 497 306 469 306 q 513 304 507 306 l 603 279 q 679 268 638 268 q 838 407 800 268 m 865 -286 l 181 -286 q 46 -169 46 -286 l 46 1058 q 181 1176 46 1176 l 865 1176 q 1001 1058 1001 1176 l 1001 -169 q 865 -286 1001 -286 z "},"∜":{"ha":1046,"x_min":46,"x_max":1001,"o":"m 382 -28 l 422 124 q 425 144 425 138 q 386 189 425 179 l 260 224 q 239 226 243 226 q 192 185 203 226 l 151 33 q 147 11 147 21 q 186 -32 147 -22 l 317 -67 q 336 -71 324 -71 q 382 -28 371 -71 m 838 407 l 904 660 q 917 739 917 713 q 776 903 917 865 l 275 1038 l 207 781 l 617 671 q 649 636 649 663 q 646 619 649 631 l 629 564 q 597 532 622 532 q 581 535 586 532 l 482 560 q 413 569 438 569 q 256 428 293 569 l 222 303 l 453 240 l 461 274 q 497 306 469 306 q 513 304 507 306 l 603 279 q 679 268 638 268 q 838 407 800 268 m 865 -286 l 181 -286 q 46 -169 46 -286 l 46 1058 q 181 1176 46 1176 l 865 1176 q 1001 1058 1001 1176 l 1001 -169 q 865 -286 1001 -286 z "},"∝":{"ha":1046,"x_min":46,"x_max":1001,"o":"m 382 -28 l 422 124 q 425 144 425 138 q 386 189 425 179 l 260 224 q 239 226 243 226 q 192 185 203 226 l 151 33 q 147 11 147 21 q 186 -32 147 -22 l 317 -67 q 336 -71 324 -71 q 382 -28 371 -71 m 838 407 l 904 660 q 917 739 917 713 q 776 903 917 865 l 275 1038 l 207 781 l 617 671 q 649 636 649 663 q 646 619 649 631 l 629 564 q 597 532 622 532 q 581 535 586 532 l 482 560 q 413 569 438 569 q 256 428 293 569 l 222 303 l 453 240 l 461 274 q 497 306 469 306 q 513 304 507 306 l 603 279 q 679 268 638 268 q 838 407 800 268 m 865 -286 l 181 -286 q 46 -169 46 -286 l 46 1058 q 181 1176 46 1176 l 865 1176 q 1001 1058 1001 1176 l 1001 -169 q 865 -286 1001 -286 z "},"≡":{"ha":1046,"x_min":46,"x_max":1001,"o":"m 382 -28 l 422 124 q 425 144 425 138 q 386 189 425 179 l 260 224 q 239 226 243 226 q 192 185 203 226 l 151 33 q 147 11 147 21 q 186 -32 147 -22 l 317 -67 q 336 -71 324 -71 q 382 -28 371 -71 m 838 407 l 904 660 q 917 739 917 713 q 776 903 917 865 l 275 1038 l 207 781 l 617 671 q 649 636 649 663 q 646 619 649 631 l 629 564 q 597 532 622 532 q 581 535 586 532 l 482 560 q 413 569 438 569 q 256 428 293 569 l 222 303 l 453 240 l 461 274 q 497 306 469 306 q 513 304 507 306 l 603 279 q 679 268 638 268 q 838 407 800 268 m 865 -286 l 181 -286 q 46 -169 46 -286 l 46 1058 q 181 1176 46 1176 l 865 1176 q 1001 1058 1001 1176 l 1001 -169 q 865 -286 1001 -286 z "},"≢":{"ha":1046,"x_min":46,"x_max":1001,"o":"m 382 -28 l 422 124 q 425 144 425 138 q 386 189 425 179 l 260 224 q 239 226 243 226 q 192 185 203 226 l 151 33 q 147 11 147 21 q 186 -32 147 -22 l 317 -67 q 336 -71 324 -71 q 382 -28 371 -71 m 838 407 l 904 660 q 917 739 917 713 q 776 903 917 865 l 275 1038 l 207 781 l 617 671 q 649 636 649 663 q 646 619 649 631 l 629 564 q 597 532 622 532 q 581 535 586 532 l 482 560 q 413 569 438 569 q 256 428 293 569 l 222 303 l 453 240 l 461 274 q 497 306 469 306 q 513 304 507 306 l 603 279 q 679 268 638 268 q 838 407 800 268 m 865 -286 l 181 -286 q 46 -169 46 -286 l 46 1058 q 181 1176 46 1176 l 865 1176 q 1001 1058 1001 1176 l 1001 -169 q 865 -286 1001 -286 z "},"≣":{"ha":1046,"x_min":46,"x_max":1001,"o":"m 382 -28 l 422 124 q 425 144 425 138 q 386 189 425 179 l 260 224 q 239 226 243 226 q 192 185 203 226 l 151 33 q 147 11 147 21 q 186 -32 147 -22 l 317 -67 q 336 -71 324 -71 q 382 -28 371 -71 m 838 407 l 904 660 q 917 739 917 713 q 776 903 917 865 l 275 1038 l 207 781 l 617 671 q 649 636 649 663 q 646 619 649 631 l 629 564 q 597 532 622 532 q 581 535 586 532 l 482 560 q 413 569 438 569 q 256 428 293 569 l 222 303 l 453 240 l 461 274 q 497 306 469 306 q 513 304 507 306 l 603 279 q 679 268 638 268 q 838 407 800 268 m 865 -286 l 181 -286 q 46 -169 46 -286 l 46 1058 q 181 1176 46 1176 l 865 1176 q 1001 1058 1001 1176 l 1001 -169 q 865 -286 1001 -286 z "},"\u0017":{"ha":419,"x_min":0,"x_max":0,"o":""}," ":{"ha":419,"x_min":0,"x_max":0,"o":""},"!":{"ha":363,"x_min":61,"x_max":301,"o":"m 301 407 l 61 407 l 61 1056 l 301 1056 l 301 407 m 249 0 l 113 0 q 63 54 63 0 l 63 210 q 118 265 63 265 l 249 265 q 301 210 301 265 l 301 54 q 249 0 301 0 z "},"\"":{"ha":696,"x_min":49,"x_max":647,"o":"m 225 689 l 108 689 q 83 710 86 689 l 49 1028 q 72 1056 49 1056 l 263 1056 q 286 1028 286 1056 l 251 710 q 225 689 249 689 m 586 689 l 469 689 q 444 710 447 689 l 410 1028 q 433 1056 410 1056 l 624 1056 q 647 1028 647 1056 l 613 710 q 586 689 610 689 z "},"#":{"ha":910,"x_min":51,"x_max":858,"o":"m 518 486 l 518 671 l 390 671 l 390 486 l 518 486 m 731 101 l 518 101 l 518 272 l 390 272 l 390 101 l 179 101 l 179 272 l 51 272 l 51 486 l 179 486 l 179 671 l 51 671 l 51 885 l 179 885 l 179 1056 l 390 1056 l 390 885 l 518 885 l 518 1056 l 731 1056 l 731 885 l 858 885 l 858 671 l 731 671 l 731 486 l 858 486 l 858 272 l 731 272 l 731 101 z "},"$":{"ha":846,"x_min":54,"x_max":790,"o":"m 501 -42 l 336 -42 l 336 133 l 64 133 l 64 344 l 343 344 l 343 464 l 219 464 q 91 506 128 464 q 54 642 54 547 l 54 758 q 243 949 54 949 l 336 949 l 336 1097 l 501 1097 l 501 949 l 768 949 l 768 739 l 494 739 l 494 619 l 618 619 q 790 444 790 619 l 790 325 q 618 133 790 133 l 501 133 l 501 -42 m 343 619 l 343 739 l 282 739 q 258 714 258 739 l 258 642 q 282 619 258 619 l 343 619 m 578 369 l 578 442 q 554 464 578 464 l 494 464 l 494 344 l 554 344 q 578 369 578 344 z "},"%":{"ha":1064,"x_min":61,"x_max":1003,"o":"m 322 681 l 322 901 q 301 922 322 922 l 201 922 q 181 901 181 922 l 181 681 q 201 660 181 660 l 301 660 q 322 681 322 660 m 347 528 l 156 528 q 61 619 61 528 l 61 958 q 156 1056 61 1056 l 347 1056 q 442 958 442 1056 l 442 619 q 347 528 442 528 m 249 0 l 92 0 l 803 1056 l 956 1056 l 249 0 m 883 153 l 883 374 q 863 394 883 394 l 763 394 q 742 374 742 394 l 742 153 q 763 132 742 132 l 863 132 q 883 153 883 132 m 908 0 l 717 0 q 622 92 622 0 l 622 431 q 717 528 622 528 l 908 528 q 1003 431 1003 528 l 1003 92 q 908 0 1003 0 z "},"&":{"ha":810,"x_min":56,"x_max":782,"o":"m 782 0 l 246 0 q 56 196 56 0 l 56 411 q 138 533 56 506 q 58 653 58 556 l 58 858 q 249 1056 58 1056 l 575 1056 l 575 790 l 336 790 q 294 749 294 790 l 294 682 q 336 640 294 640 l 731 640 l 731 417 l 644 417 l 644 265 l 782 265 l 782 0 m 444 265 l 444 418 l 336 418 q 294 376 294 418 l 294 307 q 336 265 294 265 l 444 265 z "},"'":{"ha":335,"x_min":49,"x_max":286,"o":"m 225 689 l 108 689 q 83 710 86 689 l 49 1028 q 72 1056 49 1056 l 263 1056 q 286 1028 286 1056 l 251 710 q 225 689 249 689 z "},"(":{"ha":435,"x_min":103,"x_max":415,"o":"m 415 -203 l 214 -203 q 103 518 103 143 q 214 1240 103 894 l 415 1240 q 299 518 299 894 q 415 -203 299 143 z "},")":{"ha":435,"x_min":19,"x_max":332,"o":"m 221 -203 l 19 -203 q 136 518 136 143 q 19 1240 136 894 l 221 1240 q 332 518 332 894 q 221 -203 332 143 z "},"*":{"ha":642,"x_min":40,"x_max":601,"o":"m 535 571 l 382 665 l 389 485 l 256 485 l 263 665 l 108 569 l 42 685 l 200 768 l 40 854 l 107 969 l 260 875 l 253 1056 l 386 1056 l 379 875 l 533 972 l 600 857 l 442 771 l 601 686 l 535 571 z "},"+":{"ha":661,"x_min":61,"x_max":600,"o":"m 422 264 l 240 264 l 240 443 l 61 443 l 61 625 l 240 625 l 240 803 l 422 803 l 422 625 l 600 625 l 600 443 l 422 443 l 422 264 z "},",":{"ha":361,"x_min":61,"x_max":300,"o":"m 169 -118 l 124 -118 q 106 -108 106 -118 q 111 -93 106 -99 l 157 -31 q 167 -6 167 -19 q 153 10 167 10 l 117 10 q 61 67 61 10 l 61 210 q 117 265 61 265 l 247 265 q 300 210 300 265 l 300 85 q 265 -8 300 33 l 197 -104 q 169 -118 188 -118 z "},"-":{"ha":451,"x_min":26,"x_max":425,"o":"m 425 438 l 26 438 l 26 622 l 425 622 l 425 438 z "},".":{"ha":361,"x_min":61,"x_max":300,"o":"m 247 0 l 111 0 q 61 54 61 0 l 61 210 q 117 265 61 265 l 247 265 q 300 210 300 265 l 300 54 q 247 0 300 0 z "},"/":{"ha":629,"x_min":0,"x_max":629,"o":"m 185 -147 l 0 -147 l 450 1157 l 629 1157 l 185 -147 z "},":":{"ha":361,"x_min":61,"x_max":300,"o":"m 247 478 l 111 478 q 61 532 61 478 l 61 689 q 117 743 61 743 l 247 743 q 300 689 300 743 l 300 532 q 247 478 300 478 m 247 0 l 111 0 q 61 54 61 0 l 61 210 q 117 265 61 265 l 247 265 q 300 210 300 265 l 300 54 q 247 0 300 0 z "},";":{"ha":361,"x_min":61,"x_max":300,"o":"m 247 478 l 111 478 q 61 532 61 478 l 61 689 q 117 743 61 743 l 247 743 q 300 689 300 743 l 300 532 q 247 478 300 478 m 169 -118 l 124 -118 q 106 -108 106 -118 q 111 -93 106 -99 l 157 -31 q 167 -6 167 -19 q 153 10 167 10 l 117 10 q 61 67 61 10 l 61 210 q 117 265 61 265 l 247 265 q 300 210 300 265 l 300 85 q 265 -8 300 33 l 197 -104 q 169 -118 188 -118 z "},"<":{"ha":661,"x_min":61,"x_max":600,"o":"m 600 158 l 61 435 l 61 631 l 600 907 l 600 699 l 247 533 l 600 368 l 600 158 z "},"=":{"ha":661,"x_min":61,"x_max":600,"o":"m 600 610 l 61 610 l 61 792 l 600 792 l 600 610 m 600 276 l 61 276 l 61 458 l 600 458 l 600 276 z "},">":{"ha":661,"x_min":61,"x_max":600,"o":"m 600 435 l 61 158 l 61 368 l 414 533 l 61 699 l 61 907 l 600 631 l 600 435 z "},"?":{"ha":765,"x_min":28,"x_max":731,"o":"m 349 0 l 214 0 q 164 54 164 0 l 164 210 q 219 265 164 265 l 349 265 q 403 210 403 265 l 403 54 q 349 0 403 0 m 536 433 l 443 433 q 401 392 401 433 l 401 343 l 163 343 l 163 463 q 347 649 163 649 l 449 649 q 489 690 489 649 l 489 749 q 449 790 489 790 l 28 790 l 28 1056 l 543 1056 q 731 854 731 1056 l 731 618 q 536 433 731 433 z "},"@":{"ha":1007,"x_min":56,"x_max":950,"o":"m 572 260 l 572 496 l 490 496 q 471 475 471 496 l 471 281 q 490 260 471 260 l 572 260 m 936 -193 l 258 -193 q 56 -8 56 -193 l 56 707 q 254 899 56 899 l 757 899 q 950 706 950 899 l 950 242 q 818 114 950 114 l 440 114 q 328 229 328 114 l 328 485 q 439 618 328 618 l 715 618 l 715 260 l 783 260 q 804 281 804 260 l 804 682 q 763 724 804 724 l 275 724 q 233 682 233 724 l 233 42 q 275 0 233 0 l 936 0 l 936 -193 z "},"A":{"ha":917,"x_min":58,"x_max":857,"o":"m 857 0 l 617 0 l 617 433 l 297 433 l 297 0 l 58 0 l 58 871 q 253 1056 58 1056 l 663 1056 q 857 871 857 1056 l 857 0 m 617 656 l 617 756 q 575 797 617 797 l 339 797 q 297 756 297 797 l 297 656 l 617 656 z "},"B":{"ha":881,"x_min":61,"x_max":825,"o":"m 635 0 l 61 0 l 61 1056 l 631 1056 q 822 858 822 1056 l 822 692 q 706 528 822 549 q 825 376 825 501 l 825 196 q 635 0 825 0 m 586 300 l 586 381 q 544 422 586 422 l 301 422 l 301 258 l 544 258 q 586 300 586 258 m 586 676 l 586 756 q 544 797 586 797 l 301 797 l 301 635 l 544 635 q 586 676 586 635 z "},"C":{"ha":739,"x_min":56,"x_max":713,"o":"m 713 0 l 246 0 q 56 185 56 0 l 56 863 q 246 1056 56 1056 l 710 1056 l 710 790 l 338 790 q 296 749 296 790 l 296 307 q 338 265 296 265 l 713 265 l 713 0 z "},"D":{"ha":879,"x_min":61,"x_max":824,"o":"m 633 0 l 61 0 l 61 1056 l 633 1056 q 824 863 824 1056 l 824 185 q 633 0 824 0 m 583 307 l 583 749 q 542 790 583 790 l 301 790 l 301 265 l 542 265 q 583 307 583 265 z "},"E":{"ha":761,"x_min":61,"x_max":724,"o":"m 724 0 l 61 0 l 61 1056 l 721 1056 l 721 794 l 303 794 l 303 644 l 664 644 l 664 421 l 303 421 l 303 265 l 724 265 l 724 0 z "},"F":{"ha":732,"x_min":61,"x_max":707,"o":"m 303 0 l 61 0 l 61 1056 l 707 1056 l 707 794 l 303 794 l 303 644 l 606 644 l 606 411 l 303 411 l 303 0 z "},"G":{"ha":833,"x_min":56,"x_max":782,"o":"m 782 0 l 246 0 q 56 185 56 0 l 56 863 q 246 1056 56 1056 l 774 1056 l 774 790 l 338 790 q 296 749 296 790 l 296 307 q 338 265 296 265 l 549 265 l 549 424 l 414 424 l 414 643 l 782 643 l 782 0 z "},"H":{"ha":894,"x_min":61,"x_max":833,"o":"m 833 0 l 594 0 l 594 408 l 301 408 l 301 0 l 61 0 l 61 1056 l 301 1056 l 301 649 l 594 649 l 594 1056 l 833 1056 l 833 0 z "},"I":{"ha":363,"x_min":61,"x_max":301,"o":"m 301 0 l 61 0 l 61 1056 l 301 1056 l 301 0 z "},"J":{"ha":644,"x_min":26,"x_max":583,"o":"m 393 0 l 26 0 l 26 265 l 301 265 q 343 307 343 265 l 343 1056 l 583 1056 l 583 185 q 393 0 583 0 z "},"K":{"ha":886,"x_min":61,"x_max":882,"o":"m 882 0 l 583 0 l 301 518 l 301 0 l 61 0 l 61 1056 l 301 1056 l 301 633 l 558 1056 l 835 1056 l 540 597 l 882 0 z "},"L":{"ha":706,"x_min":61,"x_max":683,"o":"m 683 0 l 61 0 l 61 1056 l 301 1056 l 301 265 l 683 265 l 683 0 z "},"M":{"ha":1160,"x_min":61,"x_max":1099,"o":"m 1099 0 l 854 0 l 854 539 l 704 0 l 461 0 l 310 539 l 310 0 l 61 0 l 61 1056 l 396 1056 l 582 360 l 763 1056 l 1099 1056 l 1099 0 z "},"N":{"ha":929,"x_min":61,"x_max":868,"o":"m 868 0 l 667 0 l 301 558 l 301 0 l 61 0 l 61 1056 l 292 1056 l 628 504 l 628 1056 l 868 1056 l 868 0 z "},"O":{"ha":874,"x_min":56,"x_max":818,"o":"m 579 307 l 579 749 q 538 790 579 790 l 338 790 q 296 749 296 790 l 296 307 q 338 265 296 265 l 538 265 q 579 307 579 265 m 628 0 l 246 0 q 56 185 56 0 l 56 863 q 246 1056 56 1056 l 628 1056 q 818 863 818 1056 l 818 185 q 628 0 818 0 z "},"P":{"ha":857,"x_min":61,"x_max":824,"o":"m 585 675 l 585 749 q 543 790 585 790 l 301 790 l 301 633 l 543 633 q 585 675 585 633 m 301 0 l 61 0 l 61 1056 l 633 1056 q 824 858 824 1056 l 824 581 q 633 399 824 399 l 301 399 l 301 0 z "},"Q":{"ha":874,"x_min":56,"x_max":885,"o":"m 744 -172 l 568 0 l 246 0 q 56 185 56 0 l 56 863 q 246 1056 56 1056 l 628 1056 q 818 863 818 1056 l 818 185 q 790 69 818 114 l 885 -28 l 744 -172 m 579 307 l 579 749 q 538 790 579 790 l 338 790 q 296 749 296 790 l 296 307 q 338 265 296 265 l 538 265 q 579 307 579 265 z "},"R":{"ha":879,"x_min":61,"x_max":831,"o":"m 585 682 l 585 756 q 543 797 585 797 l 301 797 l 301 640 l 543 640 q 585 682 585 640 m 831 0 l 592 0 q 585 56 585 21 l 585 375 q 543 417 585 417 l 301 417 l 301 0 l 61 0 l 61 1056 l 629 1056 q 821 858 821 1056 l 821 692 q 704 528 821 549 q 824 376 824 501 l 824 64 q 831 0 824 24 z "},"S":{"ha":865,"x_min":54,"x_max":810,"o":"m 608 0 l 56 0 l 56 265 l 529 265 q 571 307 571 265 l 571 376 q 529 418 571 418 l 249 418 q 54 603 54 418 l 54 854 q 242 1056 54 1056 l 786 1056 l 786 790 l 336 790 q 294 749 294 790 l 294 681 q 336 639 294 639 l 625 639 q 810 453 810 639 l 810 206 q 608 0 810 0 z "},"T":{"ha":768,"x_min":24,"x_max":746,"o":"m 504 0 l 265 0 l 265 790 l 24 790 l 24 1056 l 746 1056 l 746 790 l 504 790 l 504 0 z "},"U":{"ha":899,"x_min":58,"x_max":839,"o":"m 644 0 l 253 0 q 58 185 58 0 l 58 1056 l 299 1056 l 299 307 q 340 265 299 265 l 558 265 q 600 307 600 265 l 600 1056 l 839 1056 l 839 185 q 644 0 839 0 z "},"V":{"ha":865,"x_min":10,"x_max":856,"o":"m 590 0 l 265 0 l 10 1056 l 282 1056 l 435 344 l 597 1056 l 856 1056 l 590 0 z "},"W":{"ha":1307,"x_min":11,"x_max":1294,"o":"m 1096 0 l 758 0 l 651 647 l 542 0 l 206 0 l 11 1056 l 276 1056 l 375 374 l 515 1056 l 801 1056 l 935 374 l 1040 1056 l 1294 1056 l 1096 0 z "},"X":{"ha":963,"x_min":15,"x_max":958,"o":"m 958 0 l 663 0 l 489 346 l 296 0 l 15 0 l 347 571 l 72 1056 l 367 1056 l 503 785 l 647 1056 l 928 1056 l 638 558 l 958 0 z "},"Y":{"ha":849,"x_min":3,"x_max":844,"o":"m 544 0 l 296 0 l 296 461 l 3 1056 l 279 1056 l 431 721 l 589 1056 l 844 1056 l 544 461 l 544 0 z "},"Z":{"ha":854,"x_min":43,"x_max":811,"o":"m 811 0 l 43 0 l 43 217 l 488 813 l 53 813 l 53 1056 l 808 1056 l 808 835 l 371 243 l 811 243 l 811 0 z "},"[":{"ha":446,"x_min":103,"x_max":426,"o":"m 426 -203 l 103 -203 l 103 1240 l 426 1240 l 426 1093 l 306 1093 l 306 -56 l 426 -56 l 426 -203 z "},"\\":{"ha":629,"x_min":0,"x_max":629,"o":"m 629 -147 l 446 -147 l 0 1157 l 181 1157 l 629 -147 z "},"]":{"ha":446,"x_min":19,"x_max":343,"o":"m 343 -203 l 19 -203 l 19 -56 l 140 -56 l 140 1093 l 19 1093 l 19 1240 l 343 1240 l 343 -203 z "},"^":{"ha":793,"x_min":22,"x_max":769,"o":"m 769 517 l 561 517 l 400 869 l 231 517 l 22 517 l 304 1056 l 501 1056 l 769 517 z "},"_":{"ha":801,"x_min":-3,"x_max":804,"o":"m 804 -204 l -3 -204 l -3 -40 l 804 -40 l 804 -204 z "},"`":{"ha":460,"x_min":61,"x_max":399,"o":"m 399 868 l 197 868 l 61 1154 l 278 1154 l 399 868 z "},"a":{"ha":840,"x_min":47,"x_max":785,"o":"m 544 251 l 544 308 q 517 336 544 336 l 314 336 q 286 308 286 336 l 286 251 q 314 224 286 224 l 517 224 q 544 251 544 224 m 597 0 l 225 0 q 47 185 47 0 l 47 306 q 225 494 47 494 l 499 494 q 544 485 522 494 l 544 546 q 503 588 544 588 l 79 588 l 79 815 l 590 815 q 785 624 785 815 l 785 192 q 597 0 785 0 z "},"b":{"ha":856,"x_min":61,"x_max":800,"o":"m 606 0 l 61 0 l 61 1056 l 301 1056 l 301 815 l 610 815 q 800 624 800 815 l 800 185 q 606 0 800 0 m 560 285 l 560 532 q 518 574 560 574 l 301 574 l 301 240 l 518 240 q 560 285 560 240 z "},"c":{"ha":693,"x_min":56,"x_max":657,"o":"m 657 0 l 250 0 q 56 185 56 0 l 56 624 q 246 815 56 815 l 654 815 l 654 574 l 338 574 q 296 532 296 574 l 296 285 q 338 240 296 240 l 657 240 l 657 0 z "},"d":{"ha":856,"x_min":56,"x_max":794,"o":"m 794 0 l 250 0 q 56 185 56 0 l 56 624 q 246 815 56 815 l 554 815 l 554 1056 l 794 1056 l 794 0 m 554 240 l 554 574 l 338 574 q 296 532 296 574 l 296 285 q 338 240 296 240 l 554 240 z "},"e":{"ha":843,"x_min":56,"x_max":793,"o":"m 554 507 l 554 564 q 526 592 554 592 l 324 592 q 296 564 296 592 l 296 507 q 324 479 296 479 l 526 479 q 554 507 554 479 m 758 0 l 250 0 q 56 192 56 0 l 56 624 q 243 815 56 815 l 615 815 q 793 629 793 815 l 793 510 q 615 321 793 321 l 339 321 q 296 331 314 321 l 296 269 q 338 228 296 228 l 758 228 l 758 0 z "},"f":{"ha":519,"x_min":61,"x_max":517,"o":"m 303 0 l 61 0 l 61 885 q 112 1026 61 976 q 253 1076 163 1076 l 517 1076 l 517 879 l 358 879 q 303 824 303 879 l 303 788 l 476 788 l 476 588 l 303 588 l 303 0 z "},"g":{"ha":856,"x_min":56,"x_max":794,"o":"m 604 -258 l 89 -258 l 89 -51 l 513 -51 q 554 -10 554 -51 l 554 82 l 246 82 q 56 274 56 82 l 56 629 q 250 815 56 815 l 794 815 l 794 -65 q 604 -258 794 -258 m 554 300 l 554 581 l 338 581 q 296 536 296 581 l 296 342 q 338 300 296 300 l 554 300 z "},"h":{"ha":853,"x_min":61,"x_max":793,"o":"m 793 0 l 553 0 l 553 532 q 511 574 553 574 l 301 574 l 301 0 l 61 0 l 61 1056 l 301 1056 l 301 815 l 603 815 q 793 624 793 815 l 793 0 z "},"i":{"ha":363,"x_min":61,"x_max":301,"o":"m 247 882 l 111 882 q 61 936 61 882 l 61 1029 q 117 1083 61 1083 l 247 1083 q 300 1029 300 1083 l 300 936 q 247 882 300 882 m 301 0 l 61 0 l 61 815 l 301 815 l 301 0 z "},"j":{"ha":386,"x_min":-35,"x_max":325,"o":"m 135 -258 l -35 -258 l -35 -51 l 43 -51 q 85 -10 85 -51 l 85 815 l 325 815 l 325 -65 q 135 -258 325 -258 m 271 882 l 135 882 q 85 936 85 882 l 85 1029 q 140 1083 85 1083 l 271 1083 q 324 1029 324 1083 l 324 936 q 271 882 324 882 z "},"k":{"ha":813,"x_min":61,"x_max":808,"o":"m 808 0 l 514 0 l 301 390 l 301 0 l 61 0 l 61 1056 l 301 1056 l 301 506 l 497 815 l 758 815 l 536 471 l 808 0 z "},"l":{"ha":363,"x_min":61,"x_max":301,"o":"m 301 0 l 61 0 l 61 1056 l 301 1056 l 301 0 z "},"m":{"ha":1214,"x_min":58,"x_max":1154,"o":"m 1154 0 l 919 0 l 919 532 q 878 574 919 574 l 725 574 l 725 0 l 488 0 l 488 574 l 338 574 q 296 532 296 574 l 296 0 l 58 0 l 58 624 q 249 815 58 815 l 965 815 q 1154 622 1154 815 l 1154 0 z "},"n":{"ha":849,"x_min":58,"x_max":789,"o":"m 789 0 l 551 0 l 551 532 q 510 574 551 574 l 340 574 q 299 532 299 574 l 299 0 l 58 0 l 58 624 q 249 815 58 815 l 600 815 q 789 622 789 815 l 789 0 z "},"o":{"ha":849,"x_min":56,"x_max":793,"o":"m 556 282 l 556 532 q 514 574 556 574 l 338 574 q 296 532 296 574 l 296 285 q 338 240 296 240 l 514 240 q 556 282 556 240 m 607 0 l 250 0 q 56 185 56 0 l 56 624 q 246 815 56 815 l 604 815 q 793 622 793 815 l 793 190 q 607 0 793 0 z "},"p":{"ha":856,"x_min":61,"x_max":800,"o":"m 610 0 l 301 0 l 301 -258 l 61 -258 l 61 815 l 606 815 q 800 629 800 815 l 800 192 q 610 0 800 0 m 560 283 l 560 531 q 518 575 560 575 l 301 575 l 301 242 l 518 242 q 560 283 560 242 z "},"q":{"ha":856,"x_min":56,"x_max":794,"o":"m 794 -258 l 554 -258 l 554 0 l 246 0 q 56 192 56 0 l 56 629 q 250 815 56 815 l 794 815 l 794 -258 m 554 242 l 554 575 l 338 575 q 296 531 296 575 l 296 283 q 338 242 296 242 l 554 242 z "},"r":{"ha":538,"x_min":61,"x_max":522,"o":"m 303 0 l 61 0 l 61 624 q 253 815 61 815 l 522 815 l 522 575 l 344 575 q 303 533 303 575 l 303 0 z "},"s":{"ha":844,"x_min":54,"x_max":790,"o":"m 618 0 l 64 0 l 64 228 l 524 228 q 547 253 547 228 l 547 301 q 524 324 547 324 l 219 324 q 91 365 128 324 q 54 501 54 407 l 54 625 q 243 815 54 815 l 768 815 l 768 589 l 313 589 q 289 564 289 589 l 289 515 q 313 493 289 493 l 618 493 q 790 318 790 493 l 790 192 q 618 0 790 0 z "},"t":{"ha":519,"x_min":61,"x_max":490,"o":"m 489 0 l 260 0 q 61 179 61 0 l 61 1042 l 301 1042 l 301 807 l 490 807 l 490 588 l 301 588 l 301 288 q 338 240 301 240 l 489 240 l 489 0 z "},"u":{"ha":842,"x_min":58,"x_max":782,"o":"m 596 0 l 253 0 q 58 185 58 0 l 58 815 l 299 815 l 299 285 q 340 240 299 240 l 503 240 q 544 282 544 240 l 544 815 l 782 815 l 782 190 q 596 0 782 0 z "},"v":{"ha":864,"x_min":4,"x_max":858,"o":"m 540 0 l 313 0 l 4 815 l 264 815 l 431 346 l 597 815 l 858 815 l 540 0 z "},"w":{"ha":1253,"x_min":10,"x_max":1243,"o":"m 1010 0 l 725 0 l 618 469 l 490 0 l 210 0 l 10 815 l 269 815 l 375 340 l 488 815 l 757 815 l 863 340 l 978 815 l 1243 815 l 1010 0 z "},"x":{"ha":900,"x_min":7,"x_max":892,"o":"m 892 0 l 592 0 l 446 226 l 306 0 l 7 0 l 293 417 l 11 815 l 313 815 l 454 596 l 590 815 l 881 815 l 600 417 l 892 0 z "},"y":{"ha":864,"x_min":4,"x_max":858,"o":"m 442 -258 l 182 -258 l 304 51 l 4 815 l 264 815 l 431 328 l 597 815 l 858 815 l 442 -258 z "},"z":{"ha":844,"x_min":43,"x_max":801,"o":"m 801 0 l 43 0 l 43 189 l 471 596 l 54 596 l 54 815 l 801 815 l 801 625 l 400 219 l 801 219 l 801 0 z "},"{":{"ha":511,"x_min":40,"x_max":490,"o":"m 490 -203 l 290 -203 q 227 -35 247 -143 q 207 268 207 74 q 170 410 207 356 q 40 483 133 464 l 40 554 q 170 627 133 572 q 207 768 207 682 q 227 1072 207 964 q 290 1240 247 1181 l 490 1240 q 417 1059 440 1169 q 394 756 394 949 q 395 711 394 742 q 396 665 396 681 q 392 612 396 633 q 369 562 389 590 q 311 518 349 533 q 369 475 349 503 q 392 426 389 447 q 396 372 396 404 q 395 328 396 358 q 394 282 394 297 q 417 -22 394 89 q 490 -203 440 -132 z "},"|":{"ha":417,"x_min":103,"x_max":313,"o":"m 313 -203 l 103 -203 l 103 1240 l 313 1240 l 313 -203 z "},"}":{"ha":511,"x_min":21,"x_max":471,"o":"m 221 -203 l 21 -203 q 94 -22 71 -132 q 117 282 117 89 q 116 328 117 297 q 115 372 115 358 q 119 426 115 404 q 142 475 122 447 q 200 518 163 503 q 142 562 163 533 q 119 612 122 590 q 115 665 115 633 q 116 711 115 681 q 117 756 117 742 q 94 1059 117 949 q 21 1240 71 1169 l 221 1240 q 284 1072 264 1181 q 304 768 304 964 q 341 627 304 682 q 471 554 378 572 l 471 483 q 341 410 378 464 q 304 268 304 356 q 284 -35 304 74 q 221 -203 264 -143 z "},"~":{"ha":661,"x_min":61,"x_max":600,"o":"m 600 646 l 600 475 q 449 422 529 422 q 315 454 414 422 q 210 479 258 479 q 61 424 144 479 l 61 594 q 213 647 132 647 q 344 614 254 647 q 451 590 407 590 q 600 646 519 590 z "}," ":{"ha":419,"x_min":0,"x_max":0,"o":""},"¡":{"ha":363,"x_min":61,"x_max":301,"o":"m 61 510 l 301 510 l 301 -139 l 61 -139 l 61 510 m 114 917 l 250 917 q 300 863 300 917 l 300 707 q 244 651 300 651 l 114 651 q 61 707 61 651 l 61 863 q 114 917 61 917 z "},"¢":{"ha":756,"x_min":44,"x_max":725,"o":"m 725 133 l 539 133 l 539 -42 l 374 -42 l 374 133 l 239 133 q 44 318 44 133 l 44 757 q 235 949 44 949 l 374 949 l 374 1097 l 539 1097 l 539 949 l 722 949 l 722 707 l 532 707 l 532 374 l 725 374 l 725 133 m 381 374 l 381 707 l 326 707 q 285 665 285 707 l 285 418 q 326 374 285 374 l 381 374 z "},"£":{"ha":721,"x_min":24,"x_max":690,"o":"m 690 0 l 24 0 l 24 265 l 139 265 l 139 425 l 24 425 l 24 639 l 139 639 l 139 858 q 329 1056 139 1056 l 633 1056 l 633 790 l 419 790 q 378 749 378 790 l 378 639 l 517 639 l 517 425 l 378 425 l 378 265 l 690 265 l 690 0 z "},"¤":{"ha":960,"x_min":61,"x_max":899,"o":"m 817 104 l 636 290 l 322 290 l 140 104 l 61 183 l 246 368 l 246 682 l 61 864 l 140 946 l 322 763 l 636 763 l 817 946 l 899 864 l 714 682 l 714 368 l 899 183 l 817 104 m 611 392 l 611 658 l 347 658 l 347 392 l 611 392 z "},"¥":{"ha":869,"x_min":14,"x_max":856,"o":"m 826 119 l 556 119 l 556 0 l 307 0 l 307 119 l 40 119 l 40 308 l 307 308 l 307 410 l 40 410 l 40 599 l 239 599 l 14 1056 l 285 1056 l 442 715 l 606 1056 l 856 1056 l 625 599 l 826 599 l 826 410 l 556 410 l 556 308 l 826 308 l 826 119 z "},"¦":{"ha":417,"x_min":103,"x_max":313,"o":"m 313 1240 l 313 685 l 103 685 l 103 1240 l 313 1240 m 313 -203 l 103 -203 l 103 343 l 313 343 l 313 -203 z "},"§":{"ha":794,"x_min":57,"x_max":738,"o":"m 604 -286 l 69 -286 l 69 -114 l 503 -114 q 549 -62 549 -114 l 549 63 l 192 63 q 87 95 117 63 q 57 200 57 128 l 57 918 q 87 1023 57 990 q 192 1056 117 1056 l 732 1056 l 732 890 l 293 890 q 246 839 246 890 l 246 718 l 604 718 q 708 685 678 718 q 738 581 738 653 l 738 -149 q 708 -253 738 -221 q 604 -286 678 -286 m 549 236 l 549 501 q 503 553 549 553 l 246 553 l 246 288 q 293 236 246 236 l 549 236 z "},"¨":{"ha":688,"x_min":61,"x_max":625,"o":"m 574 882 l 444 882 q 394 936 394 882 l 394 1029 q 450 1083 394 1083 l 574 1083 q 625 1029 625 1083 l 625 936 q 574 882 625 882 m 240 882 l 111 882 q 61 936 61 882 l 61 1029 q 117 1083 61 1083 l 240 1083 q 293 1029 293 1083 l 293 936 q 240 882 293 882 z "},"©":{"ha":990,"x_min":56,"x_max":929,"o":"m 743 0 l 250 0 q 56 185 56 0 l 56 864 q 246 1056 56 1056 l 740 1056 q 929 863 929 1056 l 929 190 q 883 46 929 92 q 743 0 838 0 m 801 192 l 801 869 q 735 929 801 929 l 240 929 q 185 867 185 929 l 185 194 q 239 126 185 126 l 738 126 q 801 192 801 126 m 644 274 l 418 274 q 326 363 326 274 l 326 692 q 418 785 326 785 l 643 785 l 643 657 l 463 657 q 442 636 442 657 l 442 422 q 463 401 442 401 l 644 401 l 644 274 z "},"ª":{"ha":461,"x_min":44,"x_max":413,"o":"m 293 681 l 293 710 q 279 724 293 724 l 178 724 q 164 710 164 724 l 164 681 q 178 667 164 667 l 279 667 q 293 681 293 667 m 319 556 l 133 556 q 44 647 44 556 l 44 708 q 133 803 44 803 l 269 803 q 293 797 279 803 l 293 828 q 272 849 293 849 l 60 849 l 60 963 l 315 963 q 413 867 413 963 l 413 651 q 319 556 413 556 z "},"«":{"ha":678,"x_min":26,"x_max":651,"o":"m 313 150 l 26 347 l 26 533 l 313 732 l 313 540 l 161 440 l 313 342 l 313 150 m 651 150 l 365 347 l 365 533 l 651 732 l 651 540 l 500 440 l 651 342 l 651 150 z "},"¬":{"ha":858,"x_min":61,"x_max":797,"o":"m 797 104 l 646 104 l 646 433 l 61 433 l 61 585 l 797 585 l 797 104 z "},"®":{"ha":996,"x_min":61,"x_max":935,"o":"m 749 0 l 256 0 q 61 185 61 0 l 61 864 q 251 1056 61 1056 l 746 1056 q 935 863 935 1056 l 935 190 q 889 46 935 92 q 749 0 843 0 m 807 192 l 807 869 q 740 929 807 929 l 246 929 q 190 867 190 929 l 190 194 q 244 126 190 126 l 743 126 q 807 192 807 126 m 576 604 l 576 639 q 556 660 576 660 l 439 660 l 439 583 l 556 583 q 576 604 576 583 m 696 274 l 579 274 q 576 300 576 285 l 576 456 q 556 475 576 475 l 439 475 l 439 274 l 324 274 l 324 785 l 599 785 q 690 689 690 785 l 690 608 q 635 529 690 539 q 692 456 692 518 l 692 304 q 696 274 692 285 z "},"¯":{"ha":735,"x_min":61,"x_max":674,"o":"m 674 899 l 61 899 l 61 1060 l 674 1060 l 674 899 z "},"°":{"ha":544,"x_min":61,"x_max":483,"o":"m 386 600 l 156 600 q 82 625 103 600 q 61 708 61 650 l 61 947 q 82 1031 61 1006 q 156 1056 103 1056 l 386 1056 q 462 1031 440 1056 q 483 947 483 1006 l 483 708 q 462 624 483 649 q 386 600 440 600 m 382 740 l 382 921 q 349 958 382 958 l 190 958 q 160 921 160 958 l 160 740 q 190 703 160 703 l 349 703 q 382 740 382 703 z "},"±":{"ha":661,"x_min":61,"x_max":600,"o":"m 422 264 l 240 264 l 240 443 l 61 443 l 61 625 l 240 625 l 240 803 l 422 803 l 422 625 l 600 625 l 600 443 l 422 443 l 422 264 m 600 0 l 61 0 l 61 182 l 600 182 l 600 0 z "},"²":{"ha":478,"x_min":49,"x_max":429,"o":"m 429 528 l 49 528 l 49 758 q 140 851 49 851 l 282 851 q 310 879 310 851 l 310 894 q 282 922 310 922 l 57 922 l 57 1056 l 335 1056 q 429 954 429 1056 l 429 824 q 332 732 429 732 l 194 732 q 167 704 167 732 l 167 660 l 429 660 l 429 528 z "},"³":{"ha":433,"x_min":40,"x_max":385,"o":"m 289 528 l 40 528 l 40 660 l 244 660 q 264 681 264 660 l 264 718 q 244 739 264 739 l 47 739 l 47 844 l 244 844 q 264 865 264 844 l 264 901 q 244 922 264 922 l 44 922 l 44 1056 l 288 1056 q 383 957 383 1056 l 383 874 q 325 792 383 803 q 385 715 385 778 l 385 625 q 289 528 385 528 z "},"´":{"ha":460,"x_min":61,"x_max":399,"o":"m 263 868 l 61 868 l 182 1154 l 399 1154 l 263 868 z "},"¶":{"ha":974,"x_min":18,"x_max":911,"o":"m 911 -258 l 726 -258 l 726 878 l 532 878 l 532 -258 l 346 -258 l 346 482 l 168 482 q 18 635 18 482 l 18 903 q 53 1018 18 981 q 172 1056 89 1056 l 911 1056 l 911 -258 z "},"·":{"ha":361,"x_min":61,"x_max":300,"o":"m 247 381 l 111 381 q 61 435 61 381 l 61 590 q 117 646 61 646 l 247 646 q 300 590 300 646 l 300 435 q 247 381 300 381 z "},"¸":{"ha":308,"x_min":61,"x_max":247,"o":"m 154 -286 l 117 -286 q 106 -276 106 -286 q 108 -268 106 -271 l 136 -231 q 143 -208 143 -219 q 133 -200 143 -200 l 104 -200 q 61 -154 61 -200 l 61 -74 q 104 -32 61 -32 l 206 -32 q 247 -74 247 -32 l 247 -140 q 226 -204 247 -176 l 176 -275 q 154 -286 169 -286 z "},"¹":{"ha":247,"x_min":29,"x_max":197,"o":"m 197 528 l 76 528 l 76 901 q 56 922 76 922 l 29 922 l 29 1056 l 101 1056 q 197 960 197 1056 l 197 528 z "},"º":{"ha":465,"x_min":49,"x_max":417,"o":"m 299 696 l 299 821 q 278 842 299 842 l 189 842 q 168 821 168 842 l 168 697 q 189 675 168 675 l 278 675 q 299 696 299 675 m 324 556 l 146 556 q 49 647 49 556 l 49 867 q 143 963 49 963 l 322 963 q 417 867 417 963 l 417 650 q 324 556 417 556 z "},"»":{"ha":678,"x_min":26,"x_max":651,"o":"m 313 347 l 26 150 l 26 342 l 178 440 l 26 540 l 26 732 l 313 533 l 313 347 m 651 347 l 365 150 l 365 342 l 517 440 l 365 540 l 365 732 l 651 533 l 651 347 z "},"¼":{"ha":1081,"x_min":56,"x_max":1019,"o":"m 265 528 l 144 528 l 144 901 q 124 922 144 922 l 97 922 l 97 1056 l 169 1056 q 265 960 265 1056 l 265 528 m 213 0 l 56 0 l 767 1056 l 919 1056 l 213 0 m 856 244 l 856 406 l 776 244 l 856 244 m 974 0 l 856 0 l 856 125 l 629 125 l 629 214 l 786 528 l 974 528 l 974 244 l 1019 244 l 1019 125 l 974 125 l 974 0 z "},"½":{"ha":1121,"x_min":56,"x_max":1060,"o":"m 265 528 l 144 528 l 144 901 q 124 922 144 922 l 97 922 l 97 1056 l 169 1056 q 265 960 265 1056 l 265 528 m 213 0 l 56 0 l 767 1056 l 919 1056 l 213 0 m 1060 0 l 679 0 l 679 231 q 771 324 679 324 l 913 324 q 940 351 940 324 l 940 367 q 913 394 940 394 l 688 394 l 688 528 l 965 528 q 1060 426 1060 528 l 1060 296 q 963 204 1060 204 l 825 204 q 797 176 797 204 l 797 132 l 1060 132 l 1060 0 z "},"¾":{"ha":1135,"x_min":61,"x_max":1074,"o":"m 310 528 l 61 528 l 61 660 l 265 660 q 285 681 285 660 l 285 718 q 265 739 285 739 l 68 739 l 68 844 l 265 844 q 285 865 285 844 l 285 901 q 265 922 285 922 l 65 922 l 65 1056 l 308 1056 q 404 957 404 1056 l 404 874 q 346 792 404 803 q 406 715 406 778 l 406 625 q 310 528 406 528 m 286 0 l 129 0 l 840 1056 l 993 1056 l 286 0 m 910 244 l 910 406 l 831 244 l 910 244 m 1028 0 l 910 0 l 910 125 l 683 125 l 683 214 l 840 528 l 1028 528 l 1028 244 l 1074 244 l 1074 125 l 1028 125 l 1028 0 z "},"¿":{"ha":765,"x_min":28,"x_max":731,"o":"m 410 917 l 544 917 q 594 863 594 917 l 594 707 q 539 651 594 651 l 410 651 q 356 707 356 651 l 356 863 q 410 917 356 917 m 222 483 l 315 483 q 357 525 357 483 l 357 574 l 596 574 l 596 454 q 411 268 596 268 l 310 268 q 269 226 269 268 l 269 168 q 310 126 269 126 l 731 126 l 731 -139 l 215 -139 q 28 63 28 -139 l 28 299 q 222 483 28 483 z "},"À":{"ha":917,"x_min":58,"x_max":857,"o":"m 857 0 l 617 0 l 617 433 l 297 433 l 297 0 l 58 0 l 58 871 q 253 1056 58 1056 l 663 1056 q 857 871 857 1056 l 857 0 m 617 656 l 617 756 q 575 797 617 797 l 339 797 q 297 756 297 797 l 297 656 l 617 656 m 557 1108 l 356 1108 l 219 1394 l 436 1394 l 557 1108 z "},"Á":{"ha":917,"x_min":58,"x_max":857,"o":"m 857 0 l 617 0 l 617 433 l 297 433 l 297 0 l 58 0 l 58 871 q 253 1056 58 1056 l 663 1056 q 857 871 857 1056 l 857 0 m 617 656 l 617 756 q 575 797 617 797 l 339 797 q 297 756 297 797 l 297 656 l 617 656 m 560 1108 l 358 1108 l 479 1394 l 696 1394 l 560 1108 z "},"Â":{"ha":917,"x_min":58,"x_max":857,"o":"m 857 0 l 617 0 l 617 433 l 297 433 l 297 0 l 58 0 l 58 871 q 253 1056 58 1056 l 663 1056 q 857 871 857 1056 l 857 0 m 617 656 l 617 756 q 575 797 617 797 l 339 797 q 297 756 297 797 l 297 656 l 617 656 m 749 1108 l 557 1108 l 456 1260 l 358 1108 l 167 1108 l 365 1394 l 550 1394 l 749 1108 z "},"Ã":{"ha":917,"x_min":58,"x_max":857,"o":"m 857 0 l 617 0 l 617 433 l 297 433 l 297 0 l 58 0 l 58 871 q 253 1056 58 1056 l 663 1056 q 857 871 857 1056 l 857 0 m 617 656 l 617 756 q 575 797 617 797 l 339 797 q 297 756 297 797 l 297 656 l 617 656 m 764 1329 l 764 1174 q 683 1130 719 1143 q 592 1117 646 1117 q 560 1119 576 1117 q 527 1125 544 1121 q 499 1133 510 1129 q 469 1142 489 1136 q 440 1151 449 1149 q 321 1178 378 1178 q 151 1118 246 1178 l 151 1274 q 233 1317 196 1304 q 324 1331 269 1331 q 474 1294 371 1331 q 594 1269 542 1269 q 764 1329 674 1269 z "},"Ä":{"ha":917,"x_min":58,"x_max":857,"o":"m 857 0 l 617 0 l 617 433 l 297 433 l 297 0 l 58 0 l 58 871 q 253 1056 58 1056 l 663 1056 q 857 871 857 1056 l 857 0 m 617 656 l 617 756 q 575 797 617 797 l 339 797 q 297 756 297 797 l 297 656 l 617 656 m 689 1122 l 560 1122 q 510 1176 510 1122 l 510 1269 q 565 1324 510 1324 l 689 1324 q 740 1269 740 1324 l 740 1176 q 689 1122 740 1122 m 356 1122 l 226 1122 q 176 1176 176 1122 l 176 1269 q 232 1324 176 1324 l 356 1324 q 408 1269 408 1324 l 408 1176 q 356 1122 408 1122 z "},"Å":{"ha":917,"x_min":58,"x_max":857,"o":"m 857 0 l 617 0 l 617 433 l 297 433 l 297 0 l 58 0 l 58 871 q 253 1056 58 1056 l 663 1056 q 857 871 857 1056 l 857 0 m 617 656 l 617 756 q 575 797 617 797 l 339 797 q 297 756 297 797 l 297 656 l 617 656 m 517 1197 l 517 1271 q 499 1288 517 1288 l 419 1288 q 401 1271 401 1288 l 401 1199 q 419 1179 401 1179 l 499 1179 q 517 1197 517 1179 m 539 1074 l 381 1074 q 296 1154 296 1074 l 296 1311 q 379 1394 296 1394 l 538 1394 q 621 1310 621 1394 l 621 1157 q 539 1074 621 1074 z "},"Æ":{"ha":1317,"x_min":58,"x_max":1279,"o":"m 1279 0 l 617 0 l 617 424 l 297 424 l 297 0 l 58 0 l 58 871 q 253 1056 58 1056 l 1276 1056 l 1276 794 l 858 794 l 858 646 l 1219 646 l 1219 424 l 858 424 l 858 265 l 1279 265 l 1279 0 m 617 646 l 617 794 l 339 794 q 297 753 297 794 l 297 646 l 617 646 z "},"Ç":{"ha":739,"x_min":56,"x_max":713,"o":"m 713 0 l 246 0 q 56 185 56 0 l 56 863 q 246 1056 56 1056 l 710 1056 l 710 790 l 338 790 q 296 749 296 790 l 296 307 q 338 265 296 265 l 713 265 l 713 0 m 414 -286 l 376 -286 q 365 -276 365 -286 q 368 -268 365 -271 l 396 -231 q 403 -208 403 -219 q 393 -200 403 -200 l 364 -200 q 321 -154 321 -200 l 321 -74 q 364 -32 321 -32 l 465 -32 q 507 -74 507 -32 l 507 -140 q 486 -204 507 -176 l 436 -275 q 414 -286 429 -286 z "},"È":{"ha":761,"x_min":61,"x_max":724,"o":"m 724 0 l 61 0 l 61 1056 l 721 1056 l 721 794 l 303 794 l 303 644 l 664 644 l 664 421 l 303 421 l 303 265 l 724 265 l 724 0 m 493 1108 l 292 1108 l 156 1394 l 372 1394 l 493 1108 z "},"É":{"ha":761,"x_min":61,"x_max":724,"o":"m 724 0 l 61 0 l 61 1056 l 721 1056 l 721 794 l 303 794 l 303 644 l 664 644 l 664 421 l 303 421 l 303 265 l 724 265 l 724 0 m 496 1108 l 294 1108 l 415 1394 l 632 1394 l 496 1108 z "},"Ê":{"ha":761,"x_min":61,"x_max":724,"o":"m 724 0 l 61 0 l 61 1056 l 721 1056 l 721 794 l 303 794 l 303 644 l 664 644 l 664 421 l 303 421 l 303 265 l 724 265 l 724 0 m 685 1108 l 493 1108 l 392 1260 l 294 1108 l 103 1108 l 301 1394 l 486 1394 l 685 1108 z "},"Ë":{"ha":761,"x_min":61,"x_max":724,"o":"m 724 0 l 61 0 l 61 1056 l 721 1056 l 721 794 l 303 794 l 303 644 l 664 644 l 664 421 l 303 421 l 303 265 l 724 265 l 724 0 m 625 1122 l 496 1122 q 446 1176 446 1122 l 446 1269 q 501 1324 446 1324 l 625 1324 q 676 1269 676 1324 l 676 1176 q 625 1122 676 1122 m 292 1122 l 163 1122 q 113 1176 113 1122 l 113 1269 q 168 1324 113 1324 l 292 1324 q 344 1269 344 1324 l 344 1176 q 292 1122 344 1122 z "},"Ì":{"ha":363,"x_min":-57,"x_max":301,"o":"m 301 0 l 61 0 l 61 1056 l 301 1056 l 301 0 m 281 1108 l 79 1108 l -57 1394 l 160 1394 l 281 1108 z "},"Í":{"ha":363,"x_min":61,"x_max":419,"o":"m 301 0 l 61 0 l 61 1056 l 301 1056 l 301 0 m 283 1108 l 82 1108 l 203 1394 l 419 1394 l 283 1108 z "},"Î":{"ha":363,"x_min":-110,"x_max":472,"o":"m 301 0 l 61 0 l 61 1056 l 301 1056 l 301 0 m 472 1108 l 281 1108 l 179 1260 l 82 1108 l -110 1108 l 89 1394 l 274 1394 l 472 1108 z "},"Ï":{"ha":363,"x_min":-100,"x_max":464,"o":"m 301 0 l 61 0 l 61 1056 l 301 1056 l 301 0 m 413 1122 l 283 1122 q 233 1176 233 1122 l 233 1269 q 289 1324 233 1324 l 413 1324 q 464 1269 464 1324 l 464 1176 q 413 1122 464 1122 m 79 1122 l -50 1122 q -100 1176 -100 1122 l -100 1269 q -44 1324 -100 1324 l 79 1324 q 132 1269 132 1324 l 132 1176 q 79 1122 132 1122 z "},"Ð":{"ha":907,"x_min":0,"x_max":851,"o":"m 661 0 l 89 0 l 89 421 l 0 421 l 0 644 l 89 644 l 89 1056 l 661 1056 q 851 863 851 1056 l 851 185 q 661 0 851 0 m 611 307 l 611 749 q 569 790 611 790 l 329 790 l 329 644 l 486 644 l 486 421 l 329 421 l 329 265 l 569 265 q 611 307 611 265 z "},"Ñ":{"ha":929,"x_min":61,"x_max":868,"o":"m 868 0 l 667 0 l 301 558 l 301 0 l 61 0 l 61 1056 l 292 1056 l 628 504 l 628 1056 l 868 1056 l 868 0 m 771 1329 l 771 1174 q 690 1130 726 1143 q 599 1117 653 1117 q 567 1119 583 1117 q 534 1125 551 1121 q 506 1133 517 1129 q 476 1142 496 1136 q 447 1151 456 1149 q 328 1178 385 1178 q 158 1118 253 1178 l 158 1274 q 240 1317 203 1304 q 331 1331 276 1331 q 481 1294 378 1331 q 601 1269 549 1269 q 771 1329 681 1269 z "},"Ò":{"ha":874,"x_min":56,"x_max":818,"o":"m 579 307 l 579 749 q 538 790 579 790 l 338 790 q 296 749 296 790 l 296 307 q 338 265 296 265 l 538 265 q 579 307 579 265 m 628 0 l 246 0 q 56 185 56 0 l 56 863 q 246 1056 56 1056 l 628 1056 q 818 863 818 1056 l 818 185 q 628 0 818 0 m 536 1108 l 335 1108 l 199 1394 l 415 1394 l 536 1108 z "},"Ó":{"ha":874,"x_min":56,"x_max":818,"o":"m 579 307 l 579 749 q 538 790 579 790 l 338 790 q 296 749 296 790 l 296 307 q 338 265 296 265 l 538 265 q 579 307 579 265 m 628 0 l 246 0 q 56 185 56 0 l 56 863 q 246 1056 56 1056 l 628 1056 q 818 863 818 1056 l 818 185 q 628 0 818 0 m 539 1108 l 338 1108 l 458 1394 l 675 1394 l 539 1108 z "},"Ô":{"ha":874,"x_min":56,"x_max":818,"o":"m 579 307 l 579 749 q 538 790 579 790 l 338 790 q 296 749 296 790 l 296 307 q 338 265 296 265 l 538 265 q 579 307 579 265 m 628 0 l 246 0 q 56 185 56 0 l 56 863 q 246 1056 56 1056 l 628 1056 q 818 863 818 1056 l 818 185 q 628 0 818 0 m 728 1108 l 536 1108 l 435 1260 l 338 1108 l 146 1108 l 344 1394 l 529 1394 l 728 1108 z "},"Õ":{"ha":874,"x_min":56,"x_max":818,"o":"m 579 307 l 579 749 q 538 790 579 790 l 338 790 q 296 749 296 790 l 296 307 q 338 265 296 265 l 538 265 q 579 307 579 265 m 628 0 l 246 0 q 56 185 56 0 l 56 863 q 246 1056 56 1056 l 628 1056 q 818 863 818 1056 l 818 185 q 628 0 818 0 m 743 1329 l 743 1174 q 662 1130 699 1143 q 571 1117 625 1117 q 540 1119 556 1117 q 506 1125 524 1121 q 478 1133 489 1129 q 448 1142 468 1136 q 419 1151 428 1149 q 300 1178 357 1178 q 131 1118 225 1178 l 131 1274 q 212 1317 175 1304 q 303 1331 249 1331 q 453 1294 350 1331 q 574 1269 521 1269 q 743 1329 653 1269 z "},"Ö":{"ha":874,"x_min":56,"x_max":818,"o":"m 579 307 l 579 749 q 538 790 579 790 l 338 790 q 296 749 296 790 l 296 307 q 338 265 296 265 l 538 265 q 579 307 579 265 m 628 0 l 246 0 q 56 185 56 0 l 56 863 q 246 1056 56 1056 l 628 1056 q 818 863 818 1056 l 818 185 q 628 0 818 0 m 667 1122 l 538 1122 q 488 1176 488 1122 l 488 1269 q 543 1324 488 1324 l 667 1324 q 718 1269 718 1324 l 718 1176 q 667 1122 718 1122 m 333 1122 l 204 1122 q 154 1176 154 1122 l 154 1269 q 210 1324 154 1324 l 333 1324 q 386 1269 386 1324 l 386 1176 q 333 1122 386 1122 z "},"×":{"ha":661,"x_min":76,"x_max":586,"o":"m 204 278 l 76 407 l 203 533 l 76 660 l 204 789 l 332 663 l 457 788 l 586 660 l 460 533 l 586 407 l 457 279 l 332 404 l 204 278 z "},"Ø":{"ha":874,"x_min":56,"x_max":818,"o":"m 628 0 l 300 0 l 240 -139 l 56 -139 l 128 26 q 56 185 56 69 l 56 863 q 246 1056 56 1056 l 578 1056 l 639 1194 l 818 1194 l 746 1028 q 818 863 818 982 l 818 185 q 628 0 818 0 m 296 411 l 461 790 l 338 790 q 296 749 296 790 l 296 411 m 579 307 l 579 643 l 415 265 l 538 265 q 579 307 579 265 z "},"Ù":{"ha":899,"x_min":58,"x_max":839,"o":"m 644 0 l 253 0 q 58 185 58 0 l 58 1056 l 299 1056 l 299 307 q 340 265 299 265 l 558 265 q 600 307 600 265 l 600 1056 l 839 1056 l 839 185 q 644 0 839 0 m 549 1108 l 347 1108 l 211 1394 l 428 1394 l 549 1108 z "},"Ú":{"ha":899,"x_min":58,"x_max":839,"o":"m 644 0 l 253 0 q 58 185 58 0 l 58 1056 l 299 1056 l 299 307 q 340 265 299 265 l 558 265 q 600 307 600 265 l 600 1056 l 839 1056 l 839 185 q 644 0 839 0 m 551 1108 l 350 1108 l 471 1394 l 688 1394 l 551 1108 z "},"Û":{"ha":899,"x_min":58,"x_max":839,"o":"m 644 0 l 253 0 q 58 185 58 0 l 58 1056 l 299 1056 l 299 307 q 340 265 299 265 l 558 265 q 600 307 600 265 l 600 1056 l 839 1056 l 839 185 q 644 0 839 0 m 740 1108 l 549 1108 l 447 1260 l 350 1108 l 158 1108 l 357 1394 l 542 1394 l 740 1108 z "},"Ü":{"ha":899,"x_min":58,"x_max":839,"o":"m 644 0 l 253 0 q 58 185 58 0 l 58 1056 l 299 1056 l 299 307 q 340 265 299 265 l 558 265 q 600 307 600 265 l 600 1056 l 839 1056 l 839 185 q 644 0 839 0 m 679 1122 l 550 1122 q 500 1176 500 1122 l 500 1269 q 556 1324 500 1324 l 679 1324 q 731 1269 731 1324 l 731 1176 q 679 1122 731 1122 m 346 1122 l 217 1122 q 167 1176 167 1122 l 167 1269 q 222 1324 167 1324 l 346 1324 q 399 1269 399 1324 l 399 1176 q 346 1122 399 1122 z "},"Ý":{"ha":849,"x_min":3,"x_max":844,"o":"m 544 0 l 296 0 l 296 461 l 3 1056 l 279 1056 l 431 721 l 589 1056 l 844 1056 l 544 461 l 544 0 m 532 1108 l 331 1108 l 451 1394 l 668 1394 l 532 1108 z "},"Þ":{"ha":864,"x_min":61,"x_max":824,"o":"m 633 167 l 301 167 l 301 0 l 61 0 l 61 1056 l 301 1056 l 301 815 l 633 815 q 824 633 824 815 l 824 347 q 633 167 824 167 m 585 443 l 585 539 q 543 581 585 581 l 301 581 l 301 401 l 543 401 q 585 443 585 401 z "},"ß":{"ha":1078,"x_min":61,"x_max":1032,"o":"m 860 0 l 444 0 l 444 228 l 756 228 q 789 263 789 228 l 789 335 q 756 367 789 367 l 600 367 q 472 408 508 367 q 435 544 435 450 l 435 803 q 386 850 435 850 l 350 850 q 303 803 303 850 l 303 0 l 61 0 l 61 864 q 111 1006 61 957 q 253 1056 161 1056 l 485 1056 q 626 1006 576 1056 q 676 864 676 957 l 676 593 q 704 564 676 564 l 860 564 q 994 525 956 564 q 1032 388 1032 486 l 1032 185 q 994 40 1032 81 q 860 0 956 0 z "},"à":{"ha":840,"x_min":47,"x_max":785,"o":"m 544 251 l 544 308 q 517 336 544 336 l 314 336 q 286 308 286 336 l 286 251 q 314 224 286 224 l 517 224 q 544 251 544 224 m 597 0 l 225 0 q 47 185 47 0 l 47 306 q 225 494 47 494 l 499 494 q 544 485 522 494 l 544 546 q 503 588 544 588 l 79 588 l 79 815 l 590 815 q 785 624 785 815 l 785 192 q 597 0 785 0 m 519 868 l 318 868 l 182 1154 l 399 1154 l 519 868 z "},"á":{"ha":840,"x_min":47,"x_max":785,"o":"m 544 251 l 544 308 q 517 336 544 336 l 314 336 q 286 308 286 336 l 286 251 q 314 224 286 224 l 517 224 q 544 251 544 224 m 597 0 l 225 0 q 47 185 47 0 l 47 306 q 225 494 47 494 l 499 494 q 544 485 522 494 l 544 546 q 503 588 544 588 l 79 588 l 79 815 l 590 815 q 785 624 785 815 l 785 192 q 597 0 785 0 m 522 868 l 321 868 l 442 1154 l 658 1154 l 522 868 z "},"â":{"ha":840,"x_min":47,"x_max":785,"o":"m 544 251 l 544 308 q 517 336 544 336 l 314 336 q 286 308 286 336 l 286 251 q 314 224 286 224 l 517 224 q 544 251 544 224 m 597 0 l 225 0 q 47 185 47 0 l 47 306 q 225 494 47 494 l 499 494 q 544 485 522 494 l 544 546 q 503 588 544 588 l 79 588 l 79 815 l 590 815 q 785 624 785 815 l 785 192 q 597 0 785 0 m 711 868 l 519 868 l 418 1019 l 321 868 l 129 868 l 328 1154 l 513 1154 l 711 868 z "},"ã":{"ha":840,"x_min":47,"x_max":785,"o":"m 544 251 l 544 308 q 517 336 544 336 l 314 336 q 286 308 286 336 l 286 251 q 314 224 286 224 l 517 224 q 544 251 544 224 m 597 0 l 225 0 q 47 185 47 0 l 47 306 q 225 494 47 494 l 499 494 q 544 485 522 494 l 544 546 q 503 588 544 588 l 79 588 l 79 815 l 590 815 q 785 624 785 815 l 785 192 q 597 0 785 0 m 726 1089 l 726 933 q 645 890 682 903 q 554 876 608 876 q 523 878 539 876 q 490 885 507 881 q 462 892 472 889 q 431 902 451 896 q 403 911 411 908 q 283 938 340 938 q 114 878 208 938 l 114 1033 q 195 1077 158 1064 q 286 1090 232 1090 q 436 1054 333 1090 q 557 1029 504 1029 q 726 1089 636 1029 z "},"ä":{"ha":840,"x_min":47,"x_max":785,"o":"m 544 251 l 544 308 q 517 336 544 336 l 314 336 q 286 308 286 336 l 286 251 q 314 224 286 224 l 517 224 q 544 251 544 224 m 597 0 l 225 0 q 47 185 47 0 l 47 306 q 225 494 47 494 l 499 494 q 544 485 522 494 l 544 546 q 503 588 544 588 l 79 588 l 79 815 l 590 815 q 785 624 785 815 l 785 192 q 597 0 785 0 m 650 882 l 521 882 q 471 936 471 882 l 471 1029 q 526 1083 471 1083 l 650 1083 q 701 1029 701 1083 l 701 936 q 650 882 701 882 m 317 882 l 188 882 q 138 936 138 882 l 138 1029 q 193 1083 138 1083 l 317 1083 q 369 1029 369 1083 l 369 936 q 317 882 369 882 z "},"å":{"ha":840,"x_min":47,"x_max":785,"o":"m 544 251 l 544 308 q 517 336 544 336 l 314 336 q 286 308 286 336 l 286 251 q 314 224 286 224 l 517 224 q 544 251 544 224 m 597 0 l 225 0 q 47 185 47 0 l 47 306 q 225 494 47 494 l 499 494 q 544 485 522 494 l 544 546 q 503 588 544 588 l 79 588 l 79 815 l 590 815 q 785 624 785 815 l 785 192 q 597 0 785 0 m 478 957 l 478 1031 q 460 1047 478 1047 l 381 1047 q 363 1031 363 1047 l 363 958 q 381 939 363 939 l 460 939 q 478 957 478 939 m 500 833 l 342 833 q 257 914 257 833 l 257 1071 q 340 1154 257 1154 l 499 1154 q 582 1069 582 1154 l 582 917 q 500 833 582 833 z "},"æ":{"ha":1332,"x_min":47,"x_max":1282,"o":"m 1247 0 l 790 0 q 661 64 704 0 q 535 0 626 0 l 225 0 q 47 185 47 0 l 47 306 q 225 494 47 494 l 499 494 q 544 485 524 494 l 544 546 q 503 588 544 588 l 79 588 l 79 815 l 535 815 q 661 751 626 815 q 790 815 704 815 l 1104 815 q 1282 629 1282 815 l 1282 510 q 1104 321 1282 321 l 828 321 q 785 331 803 321 l 785 269 q 826 228 785 228 l 1247 228 l 1247 0 m 1043 507 l 1043 564 q 1015 592 1043 592 l 813 592 q 785 564 785 592 l 785 507 q 813 479 785 479 l 1015 479 q 1043 507 1043 479 m 544 251 l 544 308 q 517 336 544 336 l 314 336 q 286 308 286 336 l 286 251 q 314 224 286 224 l 517 224 q 544 251 544 224 z "},"ç":{"ha":693,"x_min":56,"x_max":657,"o":"m 657 0 l 250 0 q 56 185 56 0 l 56 624 q 246 815 56 815 l 654 815 l 654 574 l 338 574 q 296 532 296 574 l 296 285 q 338 240 296 240 l 657 240 l 657 0 m 388 -286 l 350 -286 q 339 -276 339 -286 q 342 -268 339 -271 l 369 -231 q 376 -208 376 -219 q 367 -200 376 -200 l 338 -200 q 294 -154 294 -200 l 294 -74 q 338 -32 294 -32 l 439 -32 q 481 -74 481 -32 l 481 -140 q 460 -204 481 -176 l 410 -275 q 388 -286 403 -286 z "},"è":{"ha":843,"x_min":56,"x_max":793,"o":"m 554 507 l 554 564 q 526 592 554 592 l 324 592 q 296 564 296 592 l 296 507 q 324 479 296 479 l 526 479 q 554 507 554 479 m 758 0 l 250 0 q 56 192 56 0 l 56 624 q 243 815 56 815 l 615 815 q 793 629 793 815 l 793 510 q 615 321 793 321 l 339 321 q 296 331 314 321 l 296 269 q 338 228 296 228 l 758 228 l 758 0 m 521 868 l 319 868 l 183 1154 l 400 1154 l 521 868 z "},"é":{"ha":843,"x_min":56,"x_max":793,"o":"m 554 507 l 554 564 q 526 592 554 592 l 324 592 q 296 564 296 592 l 296 507 q 324 479 296 479 l 526 479 q 554 507 554 479 m 758 0 l 250 0 q 56 192 56 0 l 56 624 q 243 815 56 815 l 615 815 q 793 629 793 815 l 793 510 q 615 321 793 321 l 339 321 q 296 331 314 321 l 296 269 q 338 228 296 228 l 758 228 l 758 0 m 524 868 l 322 868 l 443 1154 l 660 1154 l 524 868 z "},"ê":{"ha":843,"x_min":56,"x_max":793,"o":"m 554 507 l 554 564 q 526 592 554 592 l 324 592 q 296 564 296 592 l 296 507 q 324 479 296 479 l 526 479 q 554 507 554 479 m 758 0 l 250 0 q 56 192 56 0 l 56 624 q 243 815 56 815 l 615 815 q 793 629 793 815 l 793 510 q 615 321 793 321 l 339 321 q 296 331 314 321 l 296 269 q 338 228 296 228 l 758 228 l 758 0 m 713 868 l 521 868 l 419 1019 l 322 868 l 131 868 l 329 1154 l 514 1154 l 713 868 z "},"ë":{"ha":843,"x_min":56,"x_max":793,"o":"m 554 507 l 554 564 q 526 592 554 592 l 324 592 q 296 564 296 592 l 296 507 q 324 479 296 479 l 526 479 q 554 507 554 479 m 758 0 l 250 0 q 56 192 56 0 l 56 624 q 243 815 56 815 l 615 815 q 793 629 793 815 l 793 510 q 615 321 793 321 l 339 321 q 296 331 314 321 l 296 269 q 338 228 296 228 l 758 228 l 758 0 m 651 882 l 522 882 q 472 936 472 882 l 472 1029 q 528 1083 472 1083 l 651 1083 q 703 1029 703 1083 l 703 936 q 651 882 703 882 m 318 882 l 189 882 q 139 936 139 882 l 139 1029 q 194 1083 139 1083 l 318 1083 q 371 1029 371 1083 l 371 936 q 318 882 371 882 z "},"ì":{"ha":388,"x_min":-32,"x_max":326,"o":"m 326 0 l 86 0 l 86 815 l 326 815 l 326 0 m 306 868 l 104 868 l -32 1154 l 185 1154 l 306 868 z "},"í":{"ha":393,"x_min":61,"x_max":419,"o":"m 301 0 l 61 0 l 61 815 l 301 815 l 301 0 m 283 868 l 82 868 l 203 1154 l 419 1154 l 283 868 z "},"î":{"ha":488,"x_min":-47,"x_max":535,"o":"m 364 0 l 124 0 l 124 815 l 364 815 l 364 0 m 535 868 l 343 868 l 242 1019 l 144 868 l -47 868 l 151 1154 l 336 1154 l 535 868 z "},"ï":{"ha":503,"x_min":-31,"x_max":533,"o":"m 371 0 l 131 0 l 131 815 l 371 815 l 371 0 m 482 882 l 353 882 q 303 936 303 882 l 303 1029 q 358 1083 303 1083 l 482 1083 q 533 1029 533 1083 l 533 936 q 482 882 533 882 m 149 882 l 19 882 q -31 936 -31 882 l -31 1029 q 25 1083 -31 1083 l 149 1083 q 201 1029 201 1083 l 201 936 q 149 882 201 882 z "},"ð":{"ha":850,"x_min":56,"x_max":794,"o":"m 608 0 l 250 0 q 56 185 56 0 l 56 499 q 246 690 56 690 l 554 690 l 554 794 q 499 850 554 850 l 446 850 l 393 732 l 263 732 l 315 850 l 196 850 l 196 1056 l 408 1056 l 464 1178 l 594 1178 l 539 1056 l 603 1056 q 744 1006 693 1056 q 794 864 794 956 l 794 190 q 608 0 794 0 m 554 282 l 554 449 l 338 449 q 296 407 296 449 l 296 285 q 338 240 296 240 l 513 240 q 554 282 554 240 z "},"ñ":{"ha":849,"x_min":58,"x_max":789,"o":"m 789 0 l 551 0 l 551 532 q 510 574 551 574 l 340 574 q 299 532 299 574 l 299 0 l 58 0 l 58 624 q 249 815 58 815 l 600 815 q 789 622 789 815 l 789 0 m 731 1089 l 731 933 q 649 890 686 903 q 558 876 613 876 q 527 878 543 876 q 494 885 511 881 q 466 892 476 889 q 435 902 456 896 q 407 911 415 908 q 288 938 344 938 q 118 878 213 938 l 118 1033 q 199 1077 163 1064 q 290 1090 236 1090 q 440 1054 338 1090 q 561 1029 508 1029 q 731 1089 640 1029 z "},"ò":{"ha":849,"x_min":56,"x_max":793,"o":"m 556 282 l 556 532 q 514 574 556 574 l 338 574 q 296 532 296 574 l 296 285 q 338 240 296 240 l 514 240 q 556 282 556 240 m 607 0 l 250 0 q 56 185 56 0 l 56 624 q 246 815 56 815 l 604 815 q 793 622 793 815 l 793 190 q 607 0 793 0 m 524 868 l 322 868 l 186 1154 l 403 1154 l 524 868 z "},"ó":{"ha":849,"x_min":56,"x_max":793,"o":"m 556 282 l 556 532 q 514 574 556 574 l 338 574 q 296 532 296 574 l 296 285 q 338 240 296 240 l 514 240 q 556 282 556 240 m 607 0 l 250 0 q 56 185 56 0 l 56 624 q 246 815 56 815 l 604 815 q 793 622 793 815 l 793 190 q 607 0 793 0 m 526 868 l 325 868 l 446 1154 l 663 1154 l 526 868 z "},"ô":{"ha":849,"x_min":56,"x_max":793,"o":"m 556 282 l 556 532 q 514 574 556 574 l 338 574 q 296 532 296 574 l 296 285 q 338 240 296 240 l 514 240 q 556 282 556 240 m 607 0 l 250 0 q 56 185 56 0 l 56 624 q 246 815 56 815 l 604 815 q 793 622 793 815 l 793 190 q 607 0 793 0 m 715 868 l 524 868 l 422 1019 l 325 868 l 133 868 l 332 1154 l 517 1154 l 715 868 z "},"õ":{"ha":849,"x_min":56,"x_max":793,"o":"m 556 282 l 556 532 q 514 574 556 574 l 338 574 q 296 532 296 574 l 296 285 q 338 240 296 240 l 514 240 q 556 282 556 240 m 607 0 l 250 0 q 56 185 56 0 l 56 624 q 246 815 56 815 l 604 815 q 793 622 793 815 l 793 190 q 607 0 793 0 m 731 1089 l 731 933 q 649 890 686 903 q 558 876 613 876 q 527 878 543 876 q 494 885 511 881 q 466 892 476 889 q 435 902 456 896 q 407 911 415 908 q 288 938 344 938 q 118 878 213 938 l 118 1033 q 199 1077 163 1064 q 290 1090 236 1090 q 440 1054 338 1090 q 561 1029 508 1029 q 731 1089 640 1029 z "},"ö":{"ha":849,"x_min":56,"x_max":793,"o":"m 556 282 l 556 532 q 514 574 556 574 l 338 574 q 296 532 296 574 l 296 285 q 338 240 296 240 l 514 240 q 556 282 556 240 m 607 0 l 250 0 q 56 185 56 0 l 56 624 q 246 815 56 815 l 604 815 q 793 622 793 815 l 793 190 q 607 0 793 0 m 654 882 l 525 882 q 475 936 475 882 l 475 1029 q 531 1083 475 1083 l 654 1083 q 706 1029 706 1083 l 706 936 q 654 882 706 882 m 321 882 l 192 882 q 142 936 142 882 l 142 1029 q 197 1083 142 1083 l 321 1083 q 374 1029 374 1083 l 374 936 q 321 882 374 882 z "},"÷":{"ha":661,"x_min":61,"x_max":600,"o":"m 600 443 l 61 443 l 61 625 l 600 625 l 600 443 m 397 764 l 261 764 q 211 818 211 764 l 211 974 q 267 1029 211 1029 l 397 1029 q 450 974 450 1029 l 450 818 q 397 764 450 764 m 397 39 l 261 39 q 211 93 211 39 l 211 249 q 267 304 211 304 l 397 304 q 450 249 450 304 l 450 93 q 397 39 450 39 z "},"ø":{"ha":849,"x_min":56,"x_max":793,"o":"m 607 0 l 310 0 l 240 -139 l 56 -139 l 138 22 q 56 185 56 64 l 56 624 q 246 815 56 815 l 543 815 l 614 954 l 793 954 l 711 792 q 793 622 793 747 l 793 190 q 607 0 793 0 m 556 282 l 556 485 l 432 240 l 514 240 q 556 282 556 240 m 296 331 l 419 574 l 338 574 q 296 532 296 574 l 296 331 z "},"ù":{"ha":842,"x_min":58,"x_max":782,"o":"m 596 0 l 253 0 q 58 185 58 0 l 58 815 l 299 815 l 299 285 q 340 240 299 240 l 503 240 q 544 282 544 240 l 544 815 l 782 815 l 782 190 q 596 0 782 0 m 519 868 l 318 868 l 182 1154 l 399 1154 l 519 868 z "},"ú":{"ha":842,"x_min":58,"x_max":782,"o":"m 596 0 l 253 0 q 58 185 58 0 l 58 815 l 299 815 l 299 285 q 340 240 299 240 l 503 240 q 544 282 544 240 l 544 815 l 782 815 l 782 190 q 596 0 782 0 m 522 868 l 321 868 l 442 1154 l 658 1154 l 522 868 z "},"û":{"ha":842,"x_min":58,"x_max":782,"o":"m 596 0 l 253 0 q 58 185 58 0 l 58 815 l 299 815 l 299 285 q 340 240 299 240 l 503 240 q 544 282 544 240 l 544 815 l 782 815 l 782 190 q 596 0 782 0 m 711 868 l 519 868 l 418 1019 l 321 868 l 129 868 l 328 1154 l 513 1154 l 711 868 z "},"ü":{"ha":842,"x_min":58,"x_max":782,"o":"m 596 0 l 253 0 q 58 185 58 0 l 58 815 l 299 815 l 299 285 q 340 240 299 240 l 503 240 q 544 282 544 240 l 544 815 l 782 815 l 782 190 q 596 0 782 0 m 651 882 l 522 882 q 472 936 472 882 l 472 1029 q 528 1083 472 1083 l 651 1083 q 703 1029 703 1083 l 703 936 q 651 882 703 882 m 318 882 l 189 882 q 139 936 139 882 l 139 1029 q 194 1083 139 1083 l 318 1083 q 371 1029 371 1083 l 371 936 q 318 882 371 882 z "},"ý":{"ha":864,"x_min":4,"x_max":858,"o":"m 442 -258 l 182 -258 l 304 51 l 4 815 l 264 815 l 431 328 l 597 815 l 858 815 l 442 -258 m 532 868 l 331 868 l 451 1154 l 668 1154 l 532 868 z "},"þ":{"ha":856,"x_min":61,"x_max":800,"o":"m 610 0 l 301 0 l 301 -258 l 61 -258 l 61 1056 l 301 1056 l 301 815 l 610 815 q 800 624 800 815 l 800 192 q 610 0 800 0 m 560 283 l 560 532 q 518 574 560 574 l 301 574 l 301 242 l 518 242 q 560 283 560 242 z "},"ÿ":{"ha":864,"x_min":4,"x_max":858,"o":"m 442 -258 l 182 -258 l 304 51 l 4 815 l 264 815 l 431 328 l 597 815 l 858 815 l 442 -258 m 660 882 l 531 882 q 481 936 481 882 l 481 1029 q 536 1083 481 1083 l 660 1083 q 711 1029 711 1083 l 711 936 q 660 882 711 882 m 326 882 l 197 882 q 147 936 147 882 l 147 1029 q 203 1083 147 1083 l 326 1083 q 379 1029 379 1083 l 379 936 q 326 882 379 882 z "},"Ā":{"ha":917,"x_min":58,"x_max":857,"o":"m 857 0 l 617 0 l 617 433 l 297 433 l 297 0 l 58 0 l 58 871 q 253 1056 58 1056 l 663 1056 q 857 871 857 1056 l 857 0 m 617 656 l 617 756 q 575 797 617 797 l 339 797 q 297 756 297 797 l 297 656 l 617 656 m 764 1139 l 151 1139 l 151 1300 l 764 1300 l 764 1139 z "},"ā":{"ha":840,"x_min":47,"x_max":785,"o":"m 544 251 l 544 308 q 517 336 544 336 l 314 336 q 286 308 286 336 l 286 251 q 314 224 286 224 l 517 224 q 544 251 544 224 m 597 0 l 225 0 q 47 185 47 0 l 47 306 q 225 494 47 494 l 499 494 q 544 485 522 494 l 544 546 q 503 588 544 588 l 79 588 l 79 815 l 590 815 q 785 624 785 815 l 785 192 q 597 0 785 0 m 726 899 l 114 899 l 114 1060 l 726 1060 l 726 899 z "},"Ă":{"ha":917,"x_min":58,"x_max":857,"o":"m 857 0 l 617 0 l 617 433 l 297 433 l 297 0 l 58 0 l 58 871 q 253 1056 58 1056 l 663 1056 q 857 871 857 1056 l 857 0 m 617 656 l 617 756 q 575 797 617 797 l 339 797 q 297 756 297 797 l 297 656 l 617 656 m 576 1394 l 750 1394 q 674 1181 739 1253 q 458 1108 608 1108 q 242 1181 308 1108 q 167 1394 176 1253 l 346 1394 q 381 1272 350 1306 q 461 1238 411 1238 q 542 1272 511 1238 q 576 1394 572 1306 z "},"ă":{"ha":840,"x_min":47,"x_max":785,"o":"m 544 251 l 544 308 q 517 336 544 336 l 314 336 q 286 308 286 336 l 286 251 q 314 224 286 224 l 517 224 q 544 251 544 224 m 597 0 l 225 0 q 47 185 47 0 l 47 306 q 225 494 47 494 l 499 494 q 544 485 522 494 l 544 546 q 503 588 544 588 l 79 588 l 79 815 l 590 815 q 785 624 785 815 l 785 192 q 597 0 785 0 m 538 1154 l 711 1154 q 635 940 700 1013 q 419 868 569 868 q 203 940 269 868 q 128 1154 138 1013 l 307 1154 q 342 1031 311 1065 q 422 997 372 997 q 503 1031 472 997 q 538 1154 533 1065 z "},"Ą":{"ha":917,"x_min":58,"x_max":857,"o":"m 857 -286 l 656 -286 q 575 -267 597 -286 q 553 -194 553 -247 l 553 -158 q 600 -71 553 -97 l 617 -60 l 617 433 l 297 433 l 297 0 l 58 0 l 58 871 q 253 1056 58 1056 l 663 1056 q 857 871 857 1056 l 857 0 l 715 -83 q 704 -103 704 -90 l 704 -108 q 721 -126 704 -126 l 857 -126 l 857 -286 m 617 656 l 617 756 q 575 797 617 797 l 339 797 q 297 756 297 797 l 297 656 l 617 656 z "},"ą":{"ha":840,"x_min":47,"x_max":785,"o":"m 597 -286 l 396 -286 q 315 -267 338 -286 q 293 -194 293 -247 l 293 -158 q 340 -71 293 -97 l 457 0 l 225 0 q 47 185 47 0 l 47 306 q 225 494 47 494 l 499 494 q 544 485 522 494 l 544 546 q 503 588 544 588 l 79 588 l 79 815 l 590 815 q 785 624 785 815 l 785 192 q 597 0 785 0 l 456 -83 q 444 -103 444 -90 l 444 -108 q 461 -126 444 -126 l 597 -126 l 597 -286 m 544 251 l 544 308 q 517 336 544 336 l 314 336 q 286 308 286 336 l 286 251 q 314 224 286 224 l 517 224 q 544 251 544 224 z "},"Ć":{"ha":739,"x_min":56,"x_max":713,"o":"m 713 0 l 246 0 q 56 185 56 0 l 56 863 q 246 1056 56 1056 l 710 1056 l 710 790 l 338 790 q 296 749 296 790 l 296 307 q 338 265 296 265 l 713 265 l 713 0 m 513 1108 l 311 1108 l 432 1394 l 649 1394 l 513 1108 z "},"ć":{"ha":693,"x_min":56,"x_max":657,"o":"m 657 0 l 250 0 q 56 185 56 0 l 56 624 q 246 815 56 815 l 654 815 l 654 574 l 338 574 q 296 532 296 574 l 296 285 q 338 240 296 240 l 657 240 l 657 0 m 476 868 l 275 868 l 396 1154 l 613 1154 l 476 868 z "},"Ċ":{"ha":739,"x_min":56,"x_max":713,"o":"m 713 0 l 246 0 q 56 185 56 0 l 56 863 q 246 1056 56 1056 l 710 1056 l 710 790 l 338 790 q 296 749 296 790 l 296 307 q 338 265 296 265 l 713 265 l 713 0 m 474 1122 l 344 1122 q 294 1176 294 1122 l 294 1269 q 350 1324 294 1324 l 474 1324 q 526 1269 526 1324 l 526 1176 q 474 1122 526 1122 z "},"ċ":{"ha":693,"x_min":56,"x_max":657,"o":"m 657 0 l 250 0 q 56 185 56 0 l 56 624 q 246 815 56 815 l 654 815 l 654 574 l 338 574 q 296 532 296 574 l 296 285 q 338 240 296 240 l 657 240 l 657 0 m 438 882 l 308 882 q 258 936 258 882 l 258 1029 q 314 1083 258 1083 l 438 1083 q 490 1029 490 1083 l 490 936 q 438 882 490 882 z "},"Č":{"ha":739,"x_min":56,"x_max":713,"o":"m 713 0 l 246 0 q 56 185 56 0 l 56 863 q 246 1056 56 1056 l 710 1056 l 710 790 l 338 790 q 296 749 296 790 l 296 307 q 338 265 296 265 l 713 265 l 713 0 m 503 1108 l 318 1108 l 119 1394 l 311 1394 l 411 1243 l 510 1394 l 701 1394 l 503 1108 z "},"č":{"ha":693,"x_min":56,"x_max":665,"o":"m 657 0 l 250 0 q 56 185 56 0 l 56 624 q 246 815 56 815 l 654 815 l 654 574 l 338 574 q 296 532 296 574 l 296 285 q 338 240 296 240 l 657 240 l 657 0 m 467 868 l 282 868 l 83 1154 l 275 1154 l 375 1003 l 474 1154 l 665 1154 l 467 868 z "},"Ď":{"ha":879,"x_min":61,"x_max":824,"o":"m 633 0 l 61 0 l 61 1056 l 633 1056 q 824 863 824 1056 l 824 185 q 633 0 824 0 m 583 307 l 583 749 q 542 790 583 790 l 301 790 l 301 265 l 542 265 q 583 307 583 265 m 504 1108 l 319 1108 l 121 1394 l 313 1394 l 413 1243 l 511 1394 l 703 1394 l 504 1108 z "},"ď":{"ha":1050,"x_min":56,"x_max":1042,"o":"m 794 0 l 250 0 q 56 185 56 0 l 56 624 q 246 815 56 815 l 554 815 l 554 1056 l 794 1056 l 794 0 m 554 240 l 554 574 l 338 574 q 296 532 296 574 l 296 285 q 338 240 296 240 l 554 240 m 949 801 l 911 801 q 900 811 900 801 q 903 819 900 817 l 931 857 q 938 879 938 867 q 928 888 938 888 l 899 888 q 856 933 856 888 l 856 1014 q 899 1056 856 1056 l 1000 1056 q 1042 1014 1042 1056 l 1042 947 q 1021 883 1042 911 l 971 813 q 949 801 964 801 z "},"Đ":{"ha":907,"x_min":0,"x_max":851,"o":"m 661 0 l 89 0 l 89 421 l 0 421 l 0 644 l 89 644 l 89 1056 l 661 1056 q 851 863 851 1056 l 851 185 q 661 0 851 0 m 611 307 l 611 749 q 569 790 611 790 l 329 790 l 329 644 l 486 644 l 486 421 l 329 421 l 329 265 l 569 265 q 611 307 611 265 z "},"đ":{"ha":856,"x_min":56,"x_max":892,"o":"m 794 0 l 250 0 q 56 185 56 0 l 56 624 q 246 815 56 815 l 554 815 l 554 894 l 279 894 l 279 1056 l 892 1056 l 892 894 l 794 894 l 794 0 m 554 240 l 554 574 l 338 574 q 296 532 296 574 l 296 285 q 338 240 296 240 l 554 240 z "},"Ē":{"ha":761,"x_min":61,"x_max":724,"o":"m 724 0 l 61 0 l 61 1056 l 721 1056 l 721 794 l 303 794 l 303 644 l 664 644 l 664 421 l 303 421 l 303 265 l 724 265 l 724 0 m 700 1139 l 88 1139 l 88 1300 l 700 1300 l 700 1139 z "},"ē":{"ha":843,"x_min":56,"x_max":793,"o":"m 554 507 l 554 564 q 526 592 554 592 l 324 592 q 296 564 296 592 l 296 507 q 324 479 296 479 l 526 479 q 554 507 554 479 m 758 0 l 250 0 q 56 192 56 0 l 56 624 q 243 815 56 815 l 615 815 q 793 629 793 815 l 793 510 q 615 321 793 321 l 339 321 q 296 331 314 321 l 296 269 q 338 228 296 228 l 758 228 l 758 0 m 728 899 l 115 899 l 115 1060 l 728 1060 l 728 899 z "},"Ė":{"ha":761,"x_min":61,"x_max":724,"o":"m 724 0 l 61 0 l 61 1056 l 721 1056 l 721 794 l 303 794 l 303 644 l 664 644 l 664 421 l 303 421 l 303 265 l 724 265 l 724 0 m 457 1122 l 328 1122 q 278 1176 278 1122 l 278 1269 q 333 1324 278 1324 l 457 1324 q 510 1269 510 1324 l 510 1176 q 457 1122 510 1122 z "},"ė":{"ha":843,"x_min":56,"x_max":793,"o":"m 554 507 l 554 564 q 526 592 554 592 l 324 592 q 296 564 296 592 l 296 507 q 324 479 296 479 l 526 479 q 554 507 554 479 m 758 0 l 250 0 q 56 192 56 0 l 56 624 q 243 815 56 815 l 615 815 q 793 629 793 815 l 793 510 q 615 321 793 321 l 339 321 q 296 331 314 321 l 296 269 q 338 228 296 228 l 758 228 l 758 0 m 485 882 l 356 882 q 306 936 306 882 l 306 1029 q 361 1083 306 1083 l 485 1083 q 538 1029 538 1083 l 538 936 q 485 882 538 882 z "},"Ę":{"ha":761,"x_min":61,"x_max":724,"o":"m 724 -286 l 522 -286 q 442 -267 464 -286 q 419 -194 419 -247 l 419 -158 q 467 -71 419 -97 l 583 0 l 61 0 l 61 1056 l 721 1056 l 721 794 l 303 794 l 303 644 l 664 644 l 664 421 l 303 421 l 303 265 l 724 265 l 724 0 l 582 -83 q 571 -103 571 -90 l 571 -108 q 588 -126 571 -126 l 724 -126 l 724 -286 z "},"ę":{"ha":843,"x_min":56,"x_max":793,"o":"m 758 -286 l 557 -286 q 476 -267 499 -286 q 454 -194 454 -247 l 454 -158 q 501 -71 454 -97 l 618 0 l 250 0 q 56 192 56 0 l 56 624 q 243 815 56 815 l 615 815 q 793 629 793 815 l 793 510 q 615 321 793 321 l 339 321 q 296 331 314 321 l 296 269 q 338 228 296 228 l 758 228 l 758 0 l 617 -83 q 606 -103 606 -90 l 606 -108 q 622 -126 606 -126 l 758 -126 l 758 -286 m 554 507 l 554 564 q 526 592 554 592 l 324 592 q 296 564 296 592 l 296 507 q 324 479 296 479 l 526 479 q 554 507 554 479 z "},"Ě":{"ha":761,"x_min":61,"x_max":724,"o":"m 724 0 l 61 0 l 61 1056 l 721 1056 l 721 794 l 303 794 l 303 644 l 664 644 l 664 421 l 303 421 l 303 265 l 724 265 l 724 0 m 486 1108 l 301 1108 l 103 1394 l 294 1394 l 394 1243 l 493 1394 l 685 1394 l 486 1108 z "},"ě":{"ha":843,"x_min":56,"x_max":793,"o":"m 554 507 l 554 564 q 526 592 554 592 l 324 592 q 296 564 296 592 l 296 507 q 324 479 296 479 l 526 479 q 554 507 554 479 m 758 0 l 250 0 q 56 192 56 0 l 56 624 q 243 815 56 815 l 615 815 q 793 629 793 815 l 793 510 q 615 321 793 321 l 339 321 q 296 331 314 321 l 296 269 q 338 228 296 228 l 758 228 l 758 0 m 514 868 l 329 868 l 131 1154 l 322 1154 l 422 1003 l 521 1154 l 713 1154 l 514 868 z "},"Ğ":{"ha":833,"x_min":56,"x_max":782,"o":"m 782 0 l 246 0 q 56 185 56 0 l 56 863 q 246 1056 56 1056 l 774 1056 l 774 790 l 338 790 q 296 749 296 790 l 296 307 q 338 265 296 265 l 549 265 l 549 424 l 414 424 l 414 643 l 782 643 l 782 0 m 563 1394 l 736 1394 q 660 1181 725 1253 q 444 1108 594 1108 q 228 1181 294 1108 q 153 1394 163 1253 l 332 1394 q 367 1272 336 1306 q 447 1238 397 1238 q 528 1272 497 1238 q 563 1394 558 1306 z "},"ğ":{"ha":856,"x_min":56,"x_max":794,"o":"m 604 -258 l 89 -258 l 89 -51 l 513 -51 q 554 -10 554 -51 l 554 82 l 246 82 q 56 274 56 82 l 56 629 q 250 815 56 815 l 794 815 l 794 -65 q 604 -258 794 -258 m 554 300 l 554 581 l 338 581 q 296 536 296 581 l 296 342 q 338 300 296 300 l 554 300 m 546 1154 l 719 1154 q 643 940 708 1013 q 428 868 578 868 q 212 940 278 868 q 136 1154 146 1013 l 315 1154 q 350 1031 319 1065 q 431 997 381 997 q 511 1031 481 997 q 546 1154 542 1065 z "},"Ġ":{"ha":833,"x_min":56,"x_max":782,"o":"m 782 0 l 246 0 q 56 185 56 0 l 56 863 q 246 1056 56 1056 l 774 1056 l 774 790 l 338 790 q 296 749 296 790 l 296 307 q 338 265 296 265 l 549 265 l 549 424 l 414 424 l 414 643 l 782 643 l 782 0 m 507 1122 l 378 1122 q 328 1176 328 1122 l 328 1269 q 383 1324 328 1324 l 507 1324 q 560 1269 560 1324 l 560 1176 q 507 1122 560 1122 z "},"ġ":{"ha":856,"x_min":56,"x_max":794,"o":"m 604 -258 l 89 -258 l 89 -51 l 513 -51 q 554 -10 554 -51 l 554 82 l 246 82 q 56 274 56 82 l 56 629 q 250 815 56 815 l 794 815 l 794 -65 q 604 -258 794 -258 m 554 300 l 554 581 l 338 581 q 296 536 296 581 l 296 342 q 338 300 296 300 l 554 300 m 490 882 l 361 882 q 311 936 311 882 l 311 1029 q 367 1083 311 1083 l 490 1083 q 543 1029 543 1083 l 543 936 q 490 882 543 882 z "},"Ģ":{"ha":833,"x_min":56,"x_max":782,"o":"m 782 0 l 246 0 q 56 185 56 0 l 56 863 q 246 1056 56 1056 l 774 1056 l 774 790 l 338 790 q 296 749 296 790 l 296 307 q 338 265 296 265 l 549 265 l 549 424 l 414 424 l 414 643 l 782 643 l 782 0 m 444 -286 l 407 -286 q 396 -276 396 -286 q 399 -268 396 -271 l 426 -231 q 433 -208 433 -219 q 424 -200 433 -200 l 394 -200 q 351 -154 351 -200 l 351 -74 q 394 -32 351 -32 l 496 -32 q 538 -74 538 -32 l 538 -140 q 517 -204 538 -176 l 467 -275 q 444 -286 460 -286 z "},"ģ":{"ha":856,"x_min":56,"x_max":794,"o":"m 604 -258 l 89 -258 l 89 -51 l 513 -51 q 554 -10 554 -51 l 554 82 l 246 82 q 56 274 56 82 l 56 629 q 250 815 56 815 l 794 815 l 794 -65 q 604 -258 794 -258 m 554 300 l 554 581 l 338 581 q 296 536 296 581 l 296 342 q 338 300 296 300 l 554 300 m 435 1194 l 472 1194 q 483 1185 483 1194 q 481 1176 483 1179 l 453 1139 q 446 1117 446 1128 q 456 1108 446 1108 l 485 1108 q 528 1063 528 1108 l 528 982 q 485 940 528 940 l 383 940 q 342 982 342 940 l 342 1049 q 363 1113 342 1085 l 413 1183 q 435 1194 419 1194 z "},"Ħ":{"ha":894,"x_min":61,"x_max":833,"o":"m 833 0 l 594 0 l 594 408 l 301 408 l 301 0 l 61 0 l 61 1056 l 301 1056 l 301 932 l 594 932 l 594 1056 l 833 1056 l 833 0 m 301 649 l 594 649 l 594 771 l 301 771 l 301 649 z "},"ħ":{"ha":853,"x_min":-36,"x_max":793,"o":"m 576 894 l 301 894 l 301 815 l 603 815 q 793 624 793 815 l 793 0 l 553 0 l 553 532 q 511 574 553 574 l 301 574 l 301 0 l 61 0 l 61 894 l -36 894 l -36 1056 l 576 1056 l 576 894 z "},"Ī":{"ha":363,"x_min":-125,"x_max":488,"o":"m 301 0 l 61 0 l 61 1056 l 301 1056 l 301 0 m 488 1139 l -125 1139 l -125 1300 l 488 1300 l 488 1139 z "},"ī":{"ha":363,"x_min":-125,"x_max":488,"o":"m 301 0 l 61 0 l 61 815 l 301 815 l 301 0 m 488 899 l -125 899 l -125 1060 l 488 1060 l 488 899 z "},"Ĭ":{"ha":363,"x_min":-110,"x_max":474,"o":"m 301 0 l 61 0 l 61 1056 l 301 1056 l 301 0 m 300 1394 l 474 1394 q 397 1181 463 1253 q 182 1108 332 1108 q -34 1181 32 1108 q -110 1394 -100 1253 l 69 1394 q 104 1272 74 1306 q 185 1238 135 1238 q 265 1272 235 1238 q 300 1394 296 1306 z "},"ĭ":{"ha":363,"x_min":-110,"x_max":474,"o":"m 301 0 l 61 0 l 61 815 l 301 815 l 301 0 m 300 1154 l 474 1154 q 397 940 463 1013 q 182 868 332 868 q -34 940 32 868 q -110 1154 -100 1013 l 69 1154 q 104 1031 74 1065 q 185 997 135 997 q 265 1031 235 997 q 300 1154 296 1065 z "},"Į":{"ha":363,"x_min":-3,"x_max":301,"o":"m 301 -286 l 100 -286 q 19 -267 42 -286 q -3 -194 -3 -247 l -3 -158 q 44 -71 -3 -97 l 61 -60 l 61 1056 l 301 1056 l 301 0 l 160 -83 q 149 -103 149 -90 l 149 -108 q 165 -126 149 -126 l 301 -126 l 301 -286 z "},"į":{"ha":363,"x_min":-3,"x_max":301,"o":"m 301 -286 l 100 -286 q 19 -267 42 -286 q -3 -194 -3 -247 l -3 -158 q 44 -71 -3 -97 l 61 -60 l 61 815 l 301 815 l 301 0 l 160 -83 q 149 -103 149 -90 l 149 -108 q 165 -126 149 -126 l 301 -126 l 301 -286 m 247 882 l 111 882 q 61 936 61 882 l 61 1029 q 117 1083 61 1083 l 247 1083 q 300 1029 300 1083 l 300 936 q 247 882 300 882 z "},"İ":{"ha":363,"x_min":61,"x_max":301,"o":"m 301 0 l 61 0 l 61 1056 l 301 1056 l 301 0 m 244 1122 l 115 1122 q 65 1176 65 1122 l 65 1269 q 121 1324 65 1324 l 244 1324 q 297 1269 297 1324 l 297 1176 q 244 1122 297 1122 z "},"ı":{"ha":363,"x_min":61,"x_max":301,"o":"m 301 0 l 61 0 l 61 815 l 301 815 l 301 0 z "},"Ĳ":{"ha":1007,"x_min":61,"x_max":946,"o":"m 301 0 l 61 0 l 61 1056 l 301 1056 l 301 0 m 756 0 l 389 0 l 389 265 l 664 265 q 706 307 706 265 l 706 1056 l 946 1056 l 946 185 q 756 0 946 0 z "},"ĳ":{"ha":749,"x_min":61,"x_max":688,"o":"m 247 882 l 111 882 q 61 936 61 882 l 61 1029 q 117 1083 61 1083 l 247 1083 q 300 1029 300 1083 l 300 936 q 247 882 300 882 m 301 0 l 61 0 l 61 815 l 301 815 l 301 0 m 497 -258 l 328 -258 l 328 -51 l 406 -51 q 447 -10 447 -51 l 447 815 l 688 815 l 688 -65 q 497 -258 688 -258 m 633 882 l 497 882 q 447 936 447 882 l 447 1029 q 503 1083 447 1083 l 633 1083 q 686 1029 686 1083 l 686 936 q 633 882 686 882 z "},"Ķ":{"ha":886,"x_min":61,"x_max":882,"o":"m 882 0 l 583 0 l 301 518 l 301 0 l 61 0 l 61 1056 l 301 1056 l 301 633 l 558 1056 l 835 1056 l 540 597 l 882 0 m 443 -286 l 406 -286 q 394 -276 394 -286 q 397 -268 394 -271 l 425 -231 q 432 -208 432 -219 q 422 -200 432 -200 l 393 -200 q 350 -154 350 -200 l 350 -74 q 393 -32 350 -32 l 494 -32 q 536 -74 536 -32 l 536 -140 q 515 -204 536 -176 l 465 -275 q 443 -286 458 -286 z "},"ķ":{"ha":813,"x_min":61,"x_max":808,"o":"m 808 0 l 514 0 l 301 390 l 301 0 l 61 0 l 61 1056 l 301 1056 l 301 506 l 497 815 l 758 815 l 536 471 l 808 0 m 406 -286 l 368 -286 q 357 -276 357 -286 q 360 -268 357 -271 l 388 -231 q 394 -208 394 -219 q 385 -200 394 -200 l 356 -200 q 313 -154 313 -200 l 313 -74 q 356 -32 313 -32 l 457 -32 q 499 -74 499 -32 l 499 -140 q 478 -204 499 -176 l 428 -275 q 406 -286 421 -286 z "},"Ĺ":{"ha":706,"x_min":61,"x_max":683,"o":"m 683 0 l 61 0 l 61 1056 l 301 1056 l 301 265 l 683 265 l 683 0 m 342 1108 l 140 1108 l 261 1394 l 478 1394 l 342 1108 z "},"ĺ":{"ha":363,"x_min":61,"x_max":419,"o":"m 301 0 l 61 0 l 61 1056 l 301 1056 l 301 0 m 283 1108 l 82 1108 l 203 1394 l 419 1394 l 283 1108 z "},"Ļ":{"ha":706,"x_min":61,"x_max":683,"o":"m 683 0 l 61 0 l 61 1056 l 301 1056 l 301 265 l 683 265 l 683 0 m 381 -286 l 343 -286 q 332 -276 332 -286 q 335 -268 332 -271 l 363 -231 q 369 -208 369 -219 q 360 -200 369 -200 l 331 -200 q 288 -154 288 -200 l 288 -74 q 331 -32 288 -32 l 432 -32 q 474 -74 474 -32 l 474 -140 q 453 -204 474 -176 l 403 -275 q 381 -286 396 -286 z "},"ļ":{"ha":363,"x_min":61,"x_max":301,"o":"m 301 0 l 61 0 l 61 1056 l 301 1056 l 301 0 m 181 -286 l 143 -286 q 132 -276 132 -286 q 135 -268 132 -271 l 163 -231 q 169 -208 169 -219 q 160 -200 169 -200 l 131 -200 q 88 -154 88 -200 l 88 -74 q 131 -32 88 -32 l 232 -32 q 274 -74 274 -32 l 274 -140 q 253 -204 274 -176 l 203 -275 q 181 -286 196 -286 z "},"Ľ":{"ha":706,"x_min":61,"x_max":683,"o":"m 683 0 l 61 0 l 61 1056 l 301 1056 l 301 265 l 683 265 l 683 0 m 504 801 l 467 801 q 456 811 456 801 q 458 819 456 817 l 486 857 q 493 879 493 867 q 483 888 493 888 l 454 888 q 411 933 411 888 l 411 1014 q 454 1056 411 1056 l 556 1056 q 597 1014 597 1056 l 597 947 q 576 883 597 911 l 526 813 q 504 801 519 801 z "},"ľ":{"ha":557,"x_min":61,"x_max":549,"o":"m 301 0 l 61 0 l 61 1056 l 301 1056 l 301 0 m 456 801 l 418 801 q 407 811 407 801 q 410 819 407 817 l 438 857 q 444 879 444 867 q 435 888 444 888 l 406 888 q 363 933 363 888 l 363 1014 q 406 1056 363 1056 l 507 1056 q 549 1014 549 1056 l 549 947 q 528 883 549 911 l 478 813 q 456 801 471 801 z "},"Ł":{"ha":706,"x_min":61,"x_max":683,"o":"m 683 0 l 61 0 l 61 1056 l 301 1056 l 301 729 l 515 760 l 515 575 l 301 544 l 301 265 l 683 265 l 683 0 z "},"ł":{"ha":404,"x_min":-21,"x_max":425,"o":"m 322 0 l 82 0 l 82 535 l -21 517 l -21 701 l 82 719 l 82 1056 l 322 1056 l 322 761 l 425 779 l 425 594 l 322 576 l 322 0 z "},"Ń":{"ha":929,"x_min":61,"x_max":868,"o":"m 868 0 l 667 0 l 301 558 l 301 0 l 61 0 l 61 1056 l 292 1056 l 628 504 l 628 1056 l 868 1056 l 868 0 m 567 1108 l 365 1108 l 486 1394 l 703 1394 l 567 1108 z "},"ń":{"ha":849,"x_min":58,"x_max":789,"o":"m 789 0 l 551 0 l 551 532 q 510 574 551 574 l 340 574 q 299 532 299 574 l 299 0 l 58 0 l 58 624 q 249 815 58 815 l 600 815 q 789 622 789 815 l 789 0 m 526 868 l 325 868 l 446 1154 l 663 1154 l 526 868 z "},"Ņ":{"ha":929,"x_min":61,"x_max":868,"o":"m 868 0 l 667 0 l 301 558 l 301 0 l 61 0 l 61 1056 l 292 1056 l 628 504 l 628 1056 l 868 1056 l 868 0 m 464 -286 l 426 -286 q 415 -276 415 -286 q 418 -268 415 -271 l 446 -231 q 453 -208 453 -219 q 443 -200 453 -200 l 414 -200 q 371 -154 371 -200 l 371 -74 q 414 -32 371 -32 l 515 -32 q 557 -74 557 -32 l 557 -140 q 536 -204 557 -176 l 486 -275 q 464 -286 479 -286 z "},"ņ":{"ha":849,"x_min":58,"x_max":789,"o":"m 789 0 l 551 0 l 551 532 q 510 574 551 574 l 340 574 q 299 532 299 574 l 299 0 l 58 0 l 58 624 q 249 815 58 815 l 600 815 q 789 622 789 815 l 789 0 m 424 -286 l 386 -286 q 375 -276 375 -286 q 378 -268 375 -271 l 406 -231 q 413 -208 413 -219 q 403 -200 413 -200 l 374 -200 q 331 -154 331 -200 l 331 -74 q 374 -32 331 -32 l 475 -32 q 517 -74 517 -32 l 517 -140 q 496 -204 517 -176 l 446 -275 q 424 -286 439 -286 z "},"Ň":{"ha":929,"x_min":61,"x_max":868,"o":"m 868 0 l 667 0 l 301 558 l 301 0 l 61 0 l 61 1056 l 292 1056 l 628 504 l 628 1056 l 868 1056 l 868 0 m 557 1108 l 372 1108 l 174 1394 l 365 1394 l 465 1243 l 564 1394 l 756 1394 l 557 1108 z "},"ň":{"ha":849,"x_min":58,"x_max":789,"o":"m 789 0 l 551 0 l 551 532 q 510 574 551 574 l 340 574 q 299 532 299 574 l 299 0 l 58 0 l 58 624 q 249 815 58 815 l 600 815 q 789 622 789 815 l 789 0 m 517 868 l 332 868 l 133 1154 l 325 1154 l 425 1003 l 524 1154 l 715 1154 l 517 868 z "},"Ŋ":{"ha":929,"x_min":61,"x_max":868,"o":"m 678 -258 l 508 -258 l 508 -51 l 586 -51 q 628 -10 628 -51 l 628 60 l 301 558 l 301 0 l 61 0 l 61 1056 l 292 1056 l 628 504 l 628 1056 l 868 1056 l 868 -65 q 678 -258 868 -258 z "},"ŋ":{"ha":849,"x_min":58,"x_max":789,"o":"m 599 -258 l 429 -258 l 429 -51 l 510 -51 q 551 -10 551 -51 l 551 532 q 510 574 551 574 l 340 574 q 299 532 299 574 l 299 0 l 58 0 l 58 624 q 249 815 58 815 l 600 815 q 789 622 789 815 l 789 -65 q 599 -258 789 -258 z "},"Ō":{"ha":874,"x_min":56,"x_max":818,"o":"m 579 307 l 579 749 q 538 790 579 790 l 338 790 q 296 749 296 790 l 296 307 q 338 265 296 265 l 538 265 q 579 307 579 265 m 628 0 l 246 0 q 56 185 56 0 l 56 863 q 246 1056 56 1056 l 628 1056 q 818 863 818 1056 l 818 185 q 628 0 818 0 m 743 1139 l 131 1139 l 131 1300 l 743 1300 l 743 1139 z "},"ō":{"ha":849,"x_min":56,"x_max":793,"o":"m 556 282 l 556 532 q 514 574 556 574 l 338 574 q 296 532 296 574 l 296 285 q 338 240 296 240 l 514 240 q 556 282 556 240 m 607 0 l 250 0 q 56 185 56 0 l 56 624 q 246 815 56 815 l 604 815 q 793 622 793 815 l 793 190 q 607 0 793 0 m 731 899 l 118 899 l 118 1060 l 731 1060 l 731 899 z "},"Ő":{"ha":874,"x_min":56,"x_max":818,"o":"m 579 307 l 579 749 q 538 790 579 790 l 338 790 q 296 749 296 790 l 296 307 q 338 265 296 265 l 538 265 q 579 307 579 265 m 628 0 l 246 0 q 56 185 56 0 l 56 863 q 246 1056 56 1056 l 628 1056 q 818 863 818 1056 l 818 185 q 628 0 818 0 m 661 1108 l 469 1108 l 576 1394 l 782 1394 l 661 1108 m 369 1108 l 181 1108 l 271 1394 l 476 1394 l 369 1108 z "},"ő":{"ha":849,"x_min":56,"x_max":793,"o":"m 556 282 l 556 532 q 514 574 556 574 l 338 574 q 296 532 296 574 l 296 285 q 338 240 296 240 l 514 240 q 556 282 556 240 m 607 0 l 250 0 q 56 185 56 0 l 56 624 q 246 815 56 815 l 604 815 q 793 622 793 815 l 793 190 q 607 0 793 0 m 647 868 l 456 868 l 563 1154 l 768 1154 l 647 868 m 356 868 l 167 868 l 257 1154 l 463 1154 l 356 868 z "},"Œ":{"ha":1276,"x_min":56,"x_max":1239,"o":"m 1239 0 l 246 0 q 56 185 56 0 l 56 863 q 246 1056 56 1056 l 1236 1056 l 1236 794 l 818 794 l 818 644 l 1179 644 l 1179 421 l 818 421 l 818 265 l 1239 265 l 1239 0 m 576 265 l 576 794 l 338 794 q 296 753 296 794 l 296 307 q 338 265 296 265 l 576 265 z "},"œ":{"ha":1325,"x_min":56,"x_max":1292,"o":"m 1257 0 l 800 0 q 671 64 714 0 q 544 0 636 0 l 250 0 q 56 185 56 0 l 56 624 q 246 815 56 815 l 544 815 q 671 751 636 815 q 800 815 714 815 l 1114 815 q 1292 629 1292 815 l 1292 510 q 1114 321 1292 321 l 838 321 q 794 331 813 321 l 794 269 q 836 228 794 228 l 1257 228 l 1257 0 m 556 282 l 556 532 q 514 574 556 574 l 338 574 q 296 532 296 574 l 296 285 q 338 240 296 240 l 514 240 q 556 282 556 240 m 1053 507 l 1053 564 q 1025 592 1053 592 l 822 592 q 794 564 794 592 l 794 507 q 822 479 794 479 l 1025 479 q 1053 507 1053 479 z "},"Ŕ":{"ha":879,"x_min":61,"x_max":831,"o":"m 585 682 l 585 756 q 543 797 585 797 l 301 797 l 301 640 l 543 640 q 585 682 585 640 m 831 0 l 592 0 q 585 56 585 21 l 585 375 q 543 417 585 417 l 301 417 l 301 0 l 61 0 l 61 1056 l 629 1056 q 821 858 821 1056 l 821 692 q 704 528 821 549 q 824 376 824 501 l 824 64 q 831 0 824 24 m 542 1108 l 340 1108 l 461 1394 l 678 1394 l 542 1108 z "},"ŕ":{"ha":538,"x_min":61,"x_max":522,"o":"m 303 0 l 61 0 l 61 624 q 253 815 61 815 l 522 815 l 522 575 l 344 575 q 303 533 303 575 l 303 0 m 371 868 l 169 868 l 290 1154 l 507 1154 l 371 868 z "},"Ŗ":{"ha":879,"x_min":61,"x_max":831,"o":"m 585 682 l 585 756 q 543 797 585 797 l 301 797 l 301 640 l 543 640 q 585 682 585 640 m 831 0 l 592 0 q 585 56 585 21 l 585 375 q 543 417 585 417 l 301 417 l 301 0 l 61 0 l 61 1056 l 629 1056 q 821 858 821 1056 l 821 692 q 704 528 821 549 q 824 376 824 501 l 824 64 q 831 0 824 24 m 439 -286 l 401 -286 q 390 -276 390 -286 q 393 -268 390 -271 l 421 -231 q 428 -208 428 -219 q 418 -200 428 -200 l 389 -200 q 346 -154 346 -200 l 346 -74 q 389 -32 346 -32 l 490 -32 q 532 -74 532 -32 l 532 -140 q 511 -204 532 -176 l 461 -275 q 439 -286 454 -286 z "},"ŗ":{"ha":538,"x_min":61,"x_max":522,"o":"m 303 0 l 61 0 l 61 624 q 253 815 61 815 l 522 815 l 522 575 l 344 575 q 303 533 303 575 l 303 0 m 178 -286 l 140 -286 q 129 -276 129 -286 q 132 -268 129 -271 l 160 -231 q 167 -208 167 -219 q 157 -200 167 -200 l 128 -200 q 85 -154 85 -200 l 85 -74 q 128 -32 85 -32 l 229 -32 q 271 -74 271 -32 l 271 -140 q 250 -204 271 -176 l 200 -275 q 178 -286 193 -286 z "},"Ř":{"ha":879,"x_min":61,"x_max":831,"o":"m 585 682 l 585 756 q 543 797 585 797 l 301 797 l 301 640 l 543 640 q 585 682 585 640 m 831 0 l 592 0 q 585 56 585 21 l 585 375 q 543 417 585 417 l 301 417 l 301 0 l 61 0 l 61 1056 l 629 1056 q 821 858 821 1056 l 821 692 q 704 528 821 549 q 824 376 824 501 l 824 64 q 831 0 824 24 m 532 1108 l 347 1108 l 149 1394 l 340 1394 l 440 1243 l 539 1394 l 731 1394 l 532 1108 z "},"ř":{"ha":538,"x_min":-22,"x_max":560,"o":"m 303 0 l 61 0 l 61 624 q 253 815 61 815 l 522 815 l 522 575 l 344 575 q 303 533 303 575 l 303 0 m 361 868 l 176 868 l -22 1154 l 169 1154 l 269 1003 l 368 1154 l 560 1154 l 361 868 z "},"Ś":{"ha":865,"x_min":54,"x_max":810,"o":"m 608 0 l 56 0 l 56 265 l 529 265 q 571 307 571 265 l 571 376 q 529 418 571 418 l 249 418 q 54 603 54 418 l 54 854 q 242 1056 54 1056 l 786 1056 l 786 790 l 336 790 q 294 749 294 790 l 294 681 q 336 639 294 639 l 625 639 q 810 453 810 639 l 810 206 q 608 0 810 0 m 549 1108 l 347 1108 l 468 1394 l 685 1394 l 549 1108 z "},"ś":{"ha":844,"x_min":54,"x_max":790,"o":"m 618 0 l 64 0 l 64 228 l 524 228 q 547 253 547 228 l 547 301 q 524 324 547 324 l 219 324 q 91 365 128 324 q 54 501 54 407 l 54 625 q 243 815 54 815 l 768 815 l 768 589 l 313 589 q 289 564 289 589 l 289 515 q 313 493 289 493 l 618 493 q 790 318 790 493 l 790 192 q 618 0 790 0 m 538 868 l 336 868 l 457 1154 l 674 1154 l 538 868 z "},"Ş":{"ha":865,"x_min":54,"x_max":810,"o":"m 608 0 l 56 0 l 56 265 l 529 265 q 571 307 571 265 l 571 376 q 529 418 571 418 l 249 418 q 54 603 54 418 l 54 854 q 242 1056 54 1056 l 786 1056 l 786 790 l 336 790 q 294 749 294 790 l 294 681 q 336 639 294 639 l 625 639 q 810 453 810 639 l 810 206 q 608 0 810 0 m 432 -286 l 394 -286 q 383 -276 383 -286 q 386 -268 383 -271 l 414 -231 q 421 -208 421 -219 q 411 -200 421 -200 l 382 -200 q 339 -154 339 -200 l 339 -74 q 382 -32 339 -32 l 483 -32 q 525 -74 525 -32 l 525 -140 q 504 -204 525 -176 l 454 -275 q 432 -286 447 -286 z "},"ş":{"ha":844,"x_min":54,"x_max":790,"o":"m 618 0 l 64 0 l 64 228 l 524 228 q 547 253 547 228 l 547 301 q 524 324 547 324 l 219 324 q 91 365 128 324 q 54 501 54 407 l 54 625 q 243 815 54 815 l 768 815 l 768 589 l 313 589 q 289 564 289 589 l 289 515 q 313 493 289 493 l 618 493 q 790 318 790 493 l 790 192 q 618 0 790 0 m 422 -286 l 385 -286 q 374 -276 374 -286 q 376 -268 374 -271 l 404 -231 q 411 -208 411 -219 q 401 -200 411 -200 l 372 -200 q 329 -154 329 -200 l 329 -74 q 372 -32 329 -32 l 474 -32 q 515 -74 515 -32 l 515 -140 q 494 -204 515 -176 l 444 -275 q 422 -286 438 -286 z "},"Š":{"ha":865,"x_min":54,"x_max":810,"o":"m 608 0 l 56 0 l 56 265 l 529 265 q 571 307 571 265 l 571 376 q 529 418 571 418 l 249 418 q 54 603 54 418 l 54 854 q 242 1056 54 1056 l 786 1056 l 786 790 l 336 790 q 294 749 294 790 l 294 681 q 336 639 294 639 l 625 639 q 810 453 810 639 l 810 206 q 608 0 810 0 m 539 1108 l 354 1108 l 156 1394 l 347 1394 l 447 1243 l 546 1394 l 738 1394 l 539 1108 z "},"š":{"ha":844,"x_min":54,"x_max":790,"o":"m 618 0 l 64 0 l 64 228 l 524 228 q 547 253 547 228 l 547 301 q 524 324 547 324 l 219 324 q 91 365 128 324 q 54 501 54 407 l 54 625 q 243 815 54 815 l 768 815 l 768 589 l 313 589 q 289 564 289 589 l 289 515 q 313 493 289 493 l 618 493 q 790 318 790 493 l 790 192 q 618 0 790 0 m 528 868 l 343 868 l 144 1154 l 336 1154 l 436 1003 l 535 1154 l 726 1154 l 528 868 z "},"Ť":{"ha":768,"x_min":24,"x_max":746,"o":"m 504 0 l 265 0 l 265 790 l 24 790 l 24 1056 l 746 1056 l 746 790 l 504 790 l 504 0 m 476 1108 l 292 1108 l 93 1394 l 285 1394 l 385 1243 l 483 1394 l 675 1394 l 476 1108 z "},"ť":{"ha":714,"x_min":61,"x_max":706,"o":"m 489 0 l 260 0 q 61 179 61 0 l 61 1042 l 301 1042 l 301 807 l 490 807 l 490 588 l 301 588 l 301 288 q 338 240 301 240 l 489 240 l 489 0 m 613 801 l 575 801 q 564 811 564 801 q 567 819 564 817 l 594 857 q 601 879 601 867 q 592 888 601 888 l 563 888 q 519 933 519 888 l 519 1014 q 563 1056 519 1056 l 664 1056 q 706 1014 706 1056 l 706 947 q 685 883 706 911 l 635 813 q 613 801 628 801 z "},"Ŧ":{"ha":768,"x_min":24,"x_max":746,"o":"m 504 0 l 265 0 l 265 440 l 157 440 l 157 625 l 265 625 l 265 790 l 24 790 l 24 1056 l 746 1056 l 746 790 l 504 790 l 504 625 l 611 625 l 611 440 l 504 440 l 504 0 z "},"ŧ":{"ha":519,"x_min":61,"x_max":490,"o":"m 489 324 l 301 324 l 301 288 q 338 240 301 240 l 489 240 l 489 0 l 260 0 q 61 179 61 0 l 61 1042 l 301 1042 l 301 807 l 490 807 l 490 588 l 301 588 l 301 508 l 489 508 l 489 324 z "},"Ũ":{"ha":899,"x_min":58,"x_max":839,"o":"m 644 0 l 253 0 q 58 185 58 0 l 58 1056 l 299 1056 l 299 307 q 340 265 299 265 l 558 265 q 600 307 600 265 l 600 1056 l 839 1056 l 839 185 q 644 0 839 0 m 756 1329 l 756 1174 q 674 1130 711 1143 q 583 1117 638 1117 q 552 1119 568 1117 q 519 1125 536 1121 q 491 1133 501 1129 q 460 1142 481 1136 q 432 1151 440 1149 q 313 1178 369 1178 q 143 1118 238 1178 l 143 1274 q 224 1317 188 1304 q 315 1331 261 1331 q 465 1294 363 1331 q 586 1269 533 1269 q 756 1329 665 1269 z "},"ũ":{"ha":842,"x_min":58,"x_max":782,"o":"m 596 0 l 253 0 q 58 185 58 0 l 58 815 l 299 815 l 299 285 q 340 240 299 240 l 503 240 q 544 282 544 240 l 544 815 l 782 815 l 782 190 q 596 0 782 0 m 726 1089 l 726 933 q 645 890 682 903 q 554 876 608 876 q 523 878 539 876 q 490 885 507 881 q 462 892 472 889 q 431 902 451 896 q 403 911 411 908 q 283 938 340 938 q 114 878 208 938 l 114 1033 q 195 1077 158 1064 q 286 1090 232 1090 q 436 1054 333 1090 q 557 1029 504 1029 q 726 1089 636 1029 z "},"Ū":{"ha":899,"x_min":58,"x_max":839,"o":"m 644 0 l 253 0 q 58 185 58 0 l 58 1056 l 299 1056 l 299 307 q 340 265 299 265 l 558 265 q 600 307 600 265 l 600 1056 l 839 1056 l 839 185 q 644 0 839 0 m 756 1139 l 143 1139 l 143 1300 l 756 1300 l 756 1139 z "},"ū":{"ha":842,"x_min":58,"x_max":782,"o":"m 596 0 l 253 0 q 58 185 58 0 l 58 815 l 299 815 l 299 285 q 340 240 299 240 l 503 240 q 544 282 544 240 l 544 815 l 782 815 l 782 190 q 596 0 782 0 m 726 899 l 114 899 l 114 1060 l 726 1060 l 726 899 z "},"Ŭ":{"ha":899,"x_min":58,"x_max":839,"o":"m 644 0 l 253 0 q 58 185 58 0 l 58 1056 l 299 1056 l 299 307 q 340 265 299 265 l 558 265 q 600 307 600 265 l 600 1056 l 839 1056 l 839 185 q 644 0 839 0 m 567 1394 l 740 1394 q 664 1181 729 1253 q 449 1108 599 1108 q 233 1181 299 1108 q 157 1394 167 1253 l 336 1394 q 371 1272 340 1306 q 451 1238 401 1238 q 532 1272 501 1238 q 567 1394 563 1306 z "},"ŭ":{"ha":842,"x_min":58,"x_max":782,"o":"m 596 0 l 253 0 q 58 185 58 0 l 58 815 l 299 815 l 299 285 q 340 240 299 240 l 503 240 q 544 282 544 240 l 544 815 l 782 815 l 782 190 q 596 0 782 0 m 539 1154 l 713 1154 q 636 940 701 1013 q 421 868 571 868 q 205 940 271 868 q 129 1154 139 1013 l 308 1154 q 343 1031 313 1065 q 424 997 374 997 q 504 1031 474 997 q 539 1154 535 1065 z "},"Ů":{"ha":899,"x_min":58,"x_max":839,"o":"m 644 0 l 253 0 q 58 185 58 0 l 58 1056 l 299 1056 l 299 307 q 340 265 299 265 l 558 265 q 600 307 600 265 l 600 1056 l 839 1056 l 839 185 q 644 0 839 0 m 507 1197 l 507 1271 q 489 1288 507 1288 l 410 1288 q 392 1271 392 1288 l 392 1199 q 410 1179 392 1179 l 489 1179 q 507 1197 507 1179 m 529 1074 l 371 1074 q 286 1154 286 1074 l 286 1311 q 369 1394 286 1394 l 528 1394 q 611 1310 611 1394 l 611 1157 q 529 1074 611 1074 z "},"ů":{"ha":842,"x_min":58,"x_max":782,"o":"m 596 0 l 253 0 q 58 185 58 0 l 58 815 l 299 815 l 299 285 q 340 240 299 240 l 503 240 q 544 282 544 240 l 544 815 l 782 815 l 782 190 q 596 0 782 0 m 479 957 l 479 1031 q 461 1047 479 1047 l 382 1047 q 364 1031 364 1047 l 364 958 q 382 939 364 939 l 461 939 q 479 957 479 939 m 501 833 l 343 833 q 258 914 258 833 l 258 1071 q 342 1154 258 1154 l 500 1154 q 583 1069 583 1154 l 583 917 q 501 833 583 833 z "},"Ű":{"ha":899,"x_min":58,"x_max":839,"o":"m 644 0 l 253 0 q 58 185 58 0 l 58 1056 l 299 1056 l 299 307 q 340 265 299 265 l 558 265 q 600 307 600 265 l 600 1056 l 839 1056 l 839 185 q 644 0 839 0 m 688 1108 l 496 1108 l 603 1394 l 808 1394 l 688 1108 m 396 1108 l 207 1108 l 297 1394 l 503 1394 l 396 1108 z "},"ű":{"ha":842,"x_min":58,"x_max":782,"o":"m 596 0 l 253 0 q 58 185 58 0 l 58 815 l 299 815 l 299 285 q 340 240 299 240 l 503 240 q 544 282 544 240 l 544 815 l 782 815 l 782 190 q 596 0 782 0 m 644 868 l 453 868 l 560 1154 l 765 1154 l 644 868 m 353 868 l 164 868 l 254 1154 l 460 1154 l 353 868 z "},"Ų":{"ha":899,"x_min":58,"x_max":839,"o":"m 644 -286 l 443 -286 q 363 -267 385 -286 q 340 -194 340 -247 l 340 -158 q 388 -71 340 -97 l 504 0 l 253 0 q 58 185 58 0 l 58 1056 l 299 1056 l 299 307 q 340 265 299 265 l 558 265 q 600 307 600 265 l 600 1056 l 839 1056 l 839 185 q 644 0 839 0 l 503 -83 q 492 -103 492 -90 l 492 -108 q 508 -126 492 -126 l 644 -126 l 644 -286 z "},"ų":{"ha":842,"x_min":58,"x_max":782,"o":"m 596 -286 l 394 -286 q 314 -267 336 -286 q 292 -194 292 -247 l 292 -158 q 339 -71 292 -97 l 456 0 l 253 0 q 58 185 58 0 l 58 815 l 299 815 l 299 285 q 340 240 299 240 l 503 240 q 544 282 544 240 l 544 815 l 782 815 l 782 190 q 596 0 782 0 l 454 -83 q 443 -103 443 -90 l 443 -108 q 460 -126 443 -126 l 596 -126 l 596 -286 z "},"Ŵ":{"ha":1307,"x_min":11,"x_max":1294,"o":"m 1096 0 l 758 0 l 651 647 l 542 0 l 206 0 l 11 1056 l 276 1056 l 375 374 l 515 1056 l 801 1056 l 935 374 l 1040 1056 l 1294 1056 l 1096 0 m 944 1108 l 753 1108 l 651 1260 l 554 1108 l 363 1108 l 561 1394 l 746 1394 l 944 1108 z "},"ŵ":{"ha":1253,"x_min":10,"x_max":1243,"o":"m 1010 0 l 725 0 l 618 469 l 490 0 l 210 0 l 10 815 l 269 815 l 375 340 l 488 815 l 757 815 l 863 340 l 978 815 l 1243 815 l 1010 0 m 917 868 l 725 868 l 624 1019 l 526 868 l 335 868 l 533 1154 l 718 1154 l 917 868 z "},"Ŷ":{"ha":849,"x_min":3,"x_max":844,"o":"m 544 0 l 296 0 l 296 461 l 3 1056 l 279 1056 l 431 721 l 589 1056 l 844 1056 l 544 461 l 544 0 m 722 1108 l 531 1108 l 429 1260 l 332 1108 l 140 1108 l 339 1394 l 524 1394 l 722 1108 z "},"ŷ":{"ha":864,"x_min":4,"x_max":858,"o":"m 442 -258 l 182 -258 l 304 51 l 4 815 l 264 815 l 431 328 l 597 815 l 858 815 l 442 -258 m 722 868 l 531 868 l 429 1019 l 332 868 l 140 868 l 339 1154 l 524 1154 l 722 868 z "},"Ÿ":{"ha":849,"x_min":3,"x_max":844,"o":"m 544 0 l 296 0 l 296 461 l 3 1056 l 279 1056 l 431 721 l 589 1056 l 844 1056 l 544 461 l 544 0 m 660 1122 l 531 1122 q 481 1176 481 1122 l 481 1269 q 536 1324 481 1324 l 660 1324 q 711 1269 711 1324 l 711 1176 q 660 1122 711 1122 m 326 1122 l 197 1122 q 147 1176 147 1122 l 147 1269 q 203 1324 147 1324 l 326 1324 q 379 1269 379 1324 l 379 1176 q 326 1122 379 1122 z "},"Ź":{"ha":854,"x_min":43,"x_max":811,"o":"m 811 0 l 43 0 l 43 217 l 488 813 l 53 813 l 53 1056 l 808 1056 l 808 835 l 371 243 l 811 243 l 811 0 m 543 1108 l 342 1108 l 463 1394 l 679 1394 l 543 1108 z "},"ź":{"ha":844,"x_min":43,"x_max":801,"o":"m 801 0 l 43 0 l 43 189 l 471 596 l 54 596 l 54 815 l 801 815 l 801 625 l 400 219 l 801 219 l 801 0 m 536 868 l 335 868 l 456 1154 l 672 1154 l 536 868 z "},"Ż":{"ha":854,"x_min":43,"x_max":811,"o":"m 811 0 l 43 0 l 43 217 l 488 813 l 53 813 l 53 1056 l 808 1056 l 808 835 l 371 243 l 811 243 l 811 0 m 504 1122 l 375 1122 q 325 1176 325 1122 l 325 1269 q 381 1324 325 1324 l 504 1324 q 557 1269 557 1324 l 557 1176 q 504 1122 557 1122 z "},"ż":{"ha":844,"x_min":43,"x_max":801,"o":"m 801 0 l 43 0 l 43 189 l 471 596 l 54 596 l 54 815 l 801 815 l 801 625 l 400 219 l 801 219 l 801 0 m 497 882 l 368 882 q 318 936 318 882 l 318 1029 q 374 1083 318 1083 l 497 1083 q 550 1029 550 1083 l 550 936 q 497 882 550 882 z "},"Ž":{"ha":854,"x_min":43,"x_max":811,"o":"m 811 0 l 43 0 l 43 217 l 488 813 l 53 813 l 53 1056 l 808 1056 l 808 835 l 371 243 l 811 243 l 811 0 m 533 1108 l 349 1108 l 150 1394 l 342 1394 l 442 1243 l 540 1394 l 732 1394 l 533 1108 z "},"ž":{"ha":844,"x_min":43,"x_max":801,"o":"m 801 0 l 43 0 l 43 189 l 471 596 l 54 596 l 54 815 l 801 815 l 801 625 l 400 219 l 801 219 l 801 0 m 528 868 l 343 868 l 144 1154 l 336 1154 l 436 1003 l 535 1154 l 726 1154 l 528 868 z "},"ƒ":{"ha":625,"x_min":-17,"x_max":607,"o":"m 26 -171 l -17 -171 l -17 -36 l 19 -36 q 110 -8 81 -36 q 150 86 139 19 l 235 604 l 124 604 l 124 735 l 256 735 l 278 851 q 361 1010 297 964 q 565 1056 425 1056 l 607 1056 l 607 921 l 554 921 q 443 829 456 921 l 428 735 l 567 735 l 567 604 l 406 604 l 319 65 q 235 -118 299 -65 q 26 -171 171 -171 z "},"Ș":{"ha":865,"x_min":54,"x_max":810,"o":"m 608 0 l 56 0 l 56 265 l 529 265 q 571 307 571 265 l 571 376 q 529 418 571 418 l 249 418 q 54 603 54 418 l 54 854 q 242 1056 54 1056 l 786 1056 l 786 790 l 336 790 q 294 749 294 790 l 294 681 q 336 639 294 639 l 625 639 q 810 453 810 639 l 810 206 q 608 0 810 0 m 432 -286 l 394 -286 q 383 -276 383 -286 q 386 -268 383 -271 l 414 -231 q 421 -208 421 -219 q 411 -200 421 -200 l 382 -200 q 339 -154 339 -200 l 339 -74 q 382 -32 339 -32 l 483 -32 q 525 -74 525 -32 l 525 -140 q 504 -204 525 -176 l 454 -275 q 432 -286 447 -286 z "},"ș":{"ha":844,"x_min":54,"x_max":790,"o":"m 618 0 l 64 0 l 64 228 l 524 228 q 547 253 547 228 l 547 301 q 524 324 547 324 l 219 324 q 91 365 128 324 q 54 501 54 407 l 54 625 q 243 815 54 815 l 768 815 l 768 589 l 313 589 q 289 564 289 589 l 289 515 q 313 493 289 493 l 618 493 q 790 318 790 493 l 790 192 q 618 0 790 0 m 422 -286 l 385 -286 q 374 -276 374 -286 q 376 -268 374 -271 l 404 -231 q 411 -208 411 -219 q 401 -200 411 -200 l 372 -200 q 329 -154 329 -200 l 329 -74 q 372 -32 329 -32 l 474 -32 q 515 -74 515 -32 l 515 -140 q 494 -204 515 -176 l 444 -275 q 422 -286 438 -286 z "},"Ț":{"ha":768,"x_min":24,"x_max":746,"o":"m 504 0 l 265 0 l 265 790 l 24 790 l 24 1056 l 746 1056 l 746 790 l 504 790 l 504 0 m 383 -286 l 346 -286 q 335 -276 335 -286 q 338 -268 335 -271 l 365 -231 q 372 -208 372 -219 q 363 -200 372 -200 l 333 -200 q 290 -154 290 -200 l 290 -74 q 333 -32 290 -32 l 435 -32 q 476 -74 476 -32 l 476 -140 q 456 -204 476 -176 l 406 -275 q 383 -286 399 -286 z "},"ț":{"ha":519,"x_min":61,"x_max":490,"o":"m 489 0 l 260 0 q 61 179 61 0 l 61 1042 l 301 1042 l 301 807 l 490 807 l 490 588 l 301 588 l 301 288 q 338 240 301 240 l 489 240 l 489 0 m 260 -286 l 222 -286 q 211 -276 211 -286 q 214 -268 211 -271 l 242 -231 q 249 -208 249 -219 q 239 -200 249 -200 l 210 -200 q 167 -154 167 -200 l 167 -74 q 210 -32 167 -32 l 311 -32 q 353 -74 353 -32 l 353 -140 q 332 -204 353 -176 l 282 -275 q 260 -286 275 -286 z "},"ˆ":{"ha":704,"x_min":61,"x_max":643,"o":"m 643 868 l 451 868 l 350 1019 l 253 868 l 61 868 l 260 1154 l 444 1154 l 643 868 z "},"ˇ":{"ha":704,"x_min":61,"x_max":643,"o":"m 444 868 l 260 868 l 61 1154 l 253 1154 l 353 1003 l 451 1154 l 643 1154 l 444 868 z "},"˘":{"ha":706,"x_min":61,"x_max":644,"o":"m 471 1154 l 644 1154 q 568 940 633 1013 q 353 868 503 868 q 137 940 203 868 q 61 1154 71 1013 l 240 1154 q 275 1031 244 1065 q 356 997 306 997 q 436 1031 406 997 q 471 1154 467 1065 z "},"˙":{"ha":354,"x_min":61,"x_max":293,"o":"m 240 882 l 111 882 q 61 936 61 882 l 61 1029 q 117 1083 61 1083 l 240 1083 q 293 1029 293 1083 l 293 936 q 240 882 293 882 z "},"˚":{"ha":447,"x_min":61,"x_max":386,"o":"m 282 957 l 282 1031 q 264 1047 282 1047 l 185 1047 q 167 1031 167 1047 l 167 958 q 185 939 167 939 l 264 939 q 282 957 282 939 m 304 833 l 146 833 q 61 914 61 833 l 61 1071 q 144 1154 61 1154 l 303 1154 q 386 1069 386 1154 l 386 917 q 304 833 386 833 z "},"˛":{"ha":426,"x_min":61,"x_max":365,"o":"m 365 -286 l 164 -286 q 83 -267 106 -286 q 61 -194 61 -247 l 61 -158 q 108 -71 61 -97 l 225 0 l 365 0 l 224 -83 q 213 -103 213 -90 l 213 -108 q 229 -126 213 -126 l 365 -126 l 365 -286 z "},"˜":{"ha":735,"x_min":61,"x_max":674,"o":"m 674 1089 l 674 933 q 592 890 629 903 q 501 876 556 876 q 470 878 486 876 q 437 885 454 881 q 409 892 419 889 q 378 902 399 896 q 350 911 358 908 q 231 938 288 938 q 61 878 156 938 l 61 1033 q 142 1077 106 1064 q 233 1090 179 1090 q 383 1054 281 1090 q 504 1029 451 1029 q 674 1089 583 1029 z "},"˝":{"ha":724,"x_min":61,"x_max":663,"o":"m 542 868 l 350 868 l 457 1154 l 663 1154 l 542 868 m 250 868 l 61 868 l 151 1154 l 357 1154 l 250 868 z "},"Δ":{"ha":864,"x_min":10,"x_max":854,"o":"m 854 0 l 10 0 l 275 1056 l 600 1056 l 854 0 m 524 265 l 431 707 l 331 265 l 524 265 z "},"Ω":{"ha":926,"x_min":61,"x_max":865,"o":"m 860 0 l 508 0 l 508 247 l 599 431 q 621 493 617 467 q 625 578 625 519 l 625 724 q 574 790 625 790 l 353 790 q 300 724 300 790 l 300 578 q 305 494 300 521 q 328 431 310 468 l 418 247 l 418 0 l 67 0 l 67 264 l 175 264 l 99 403 q 67 479 74 447 q 61 586 61 511 l 61 872 q 97 1012 61 968 q 217 1056 132 1056 l 710 1056 q 830 1012 794 1056 q 865 872 865 968 l 865 586 q 859 479 865 511 q 828 403 853 447 l 751 264 l 860 264 l 860 0 z "},"μ":{"ha":853,"x_min":61,"x_max":793,"o":"m 553 815 l 793 815 l 793 192 q 603 0 793 0 l 301 0 l 301 -258 l 61 -258 l 61 815 l 301 815 l 301 242 l 511 242 q 553 283 553 242 l 553 815 z "},"π":{"ha":893,"x_min":61,"x_max":878,"o":"m 878 0 l 657 0 q 539 37 574 0 q 504 156 504 74 l 504 583 l 297 583 l 297 0 l 61 0 l 61 815 l 740 815 l 740 260 q 793 203 740 203 l 878 203 l 878 0 z "},"֏":{"ha":676,"x_min":26,"x_max":644,"o":"m 106 310 l 343 310 l 343 392 l 106 392 l 106 574 l 343 574 l 343 749 q 301 790 343 790 l 26 790 l 26 1056 l 393 1056 q 583 871 583 1056 l 583 574 l 644 574 l 644 392 l 583 392 l 583 310 l 644 310 l 644 128 l 583 128 l 583 0 l 343 0 l 343 128 l 106 128 l 106 310 z "},"Ẁ":{"ha":1307,"x_min":11,"x_max":1294,"o":"m 1096 0 l 758 0 l 651 647 l 542 0 l 206 0 l 11 1056 l 276 1056 l 375 374 l 515 1056 l 801 1056 l 935 374 l 1040 1056 l 1294 1056 l 1096 0 m 753 1108 l 551 1108 l 415 1394 l 632 1394 l 753 1108 z "},"ẁ":{"ha":1253,"x_min":10,"x_max":1243,"o":"m 1010 0 l 725 0 l 618 469 l 490 0 l 210 0 l 10 815 l 269 815 l 375 340 l 488 815 l 757 815 l 863 340 l 978 815 l 1243 815 l 1010 0 m 725 868 l 524 868 l 388 1154 l 604 1154 l 725 868 z "},"Ẃ":{"ha":1307,"x_min":11,"x_max":1294,"o":"m 1096 0 l 758 0 l 651 647 l 542 0 l 206 0 l 11 1056 l 276 1056 l 375 374 l 515 1056 l 801 1056 l 935 374 l 1040 1056 l 1294 1056 l 1096 0 m 756 1108 l 554 1108 l 675 1394 l 892 1394 l 756 1108 z "},"ẃ":{"ha":1253,"x_min":10,"x_max":1243,"o":"m 1010 0 l 725 0 l 618 469 l 490 0 l 210 0 l 10 815 l 269 815 l 375 340 l 488 815 l 757 815 l 863 340 l 978 815 l 1243 815 l 1010 0 m 728 868 l 526 868 l 647 1154 l 864 1154 l 728 868 z "},"Ẅ":{"ha":1307,"x_min":11,"x_max":1294,"o":"m 1096 0 l 758 0 l 651 647 l 542 0 l 206 0 l 11 1056 l 276 1056 l 375 374 l 515 1056 l 801 1056 l 935 374 l 1040 1056 l 1294 1056 l 1096 0 m 883 1122 l 754 1122 q 704 1176 704 1122 l 704 1269 q 760 1324 704 1324 l 883 1324 q 935 1269 935 1324 l 935 1176 q 883 1122 935 1122 m 550 1122 l 421 1122 q 371 1176 371 1122 l 371 1269 q 426 1324 371 1324 l 550 1324 q 603 1269 603 1324 l 603 1176 q 550 1122 603 1122 z "},"ẅ":{"ha":1253,"x_min":10,"x_max":1243,"o":"m 1010 0 l 725 0 l 618 469 l 490 0 l 210 0 l 10 815 l 269 815 l 375 340 l 488 815 l 757 815 l 863 340 l 978 815 l 1243 815 l 1010 0 m 857 882 l 728 882 q 678 936 678 882 l 678 1029 q 733 1083 678 1083 l 857 1083 q 908 1029 908 1083 l 908 936 q 857 882 908 882 m 524 882 l 394 882 q 344 936 344 882 l 344 1029 q 400 1083 344 1083 l 524 1083 q 576 1029 576 1083 l 576 936 q 524 882 576 882 z "},"ẞ":{"ha":979,"x_min":58,"x_max":928,"o":"m 738 0 l 397 0 l 397 265 l 647 265 q 688 307 688 265 l 688 478 q 647 519 688 519 l 521 519 l 521 719 l 578 790 l 339 790 q 297 749 297 790 l 297 0 l 58 0 l 58 871 q 253 1056 58 1056 l 899 1056 l 899 835 l 794 703 q 928 474 928 656 l 928 196 q 738 0 928 0 z "},"Ỳ":{"ha":849,"x_min":3,"x_max":844,"o":"m 544 0 l 296 0 l 296 461 l 3 1056 l 279 1056 l 431 721 l 589 1056 l 844 1056 l 544 461 l 544 0 m 531 1108 l 329 1108 l 193 1394 l 410 1394 l 531 1108 z "},"ỳ":{"ha":864,"x_min":4,"x_max":858,"o":"m 442 -258 l 182 -258 l 304 51 l 4 815 l 264 815 l 431 328 l 597 815 l 858 815 l 442 -258 m 531 868 l 329 868 l 193 1154 l 410 1154 l 531 868 z "},"–":{"ha":688,"x_min":26,"x_max":661,"o":"m 661 438 l 26 438 l 26 622 l 661 622 l 661 438 z "},"—":{"ha":979,"x_min":26,"x_max":953,"o":"m 953 438 l 26 438 l 26 622 l 953 622 l 953 438 z "},"‘":{"ha":361,"x_min":61,"x_max":300,"o":"m 244 735 l 114 735 q 61 789 61 735 l 61 915 q 96 1008 61 967 l 164 1104 q 192 1118 174 1118 l 238 1118 q 256 1108 256 1118 q 250 1093 256 1099 l 204 1031 q 194 1006 194 1019 q 208 990 194 990 l 244 990 q 300 933 300 990 l 300 789 q 244 735 300 735 z "},"’":{"ha":361,"x_min":61,"x_max":300,"o":"m 169 672 l 124 672 q 106 682 106 672 q 111 697 106 692 l 157 760 q 167 785 167 769 q 153 800 167 800 l 117 800 q 61 857 61 800 l 61 1001 q 117 1056 61 1056 l 247 1056 q 300 1001 300 1056 l 300 875 q 265 782 300 824 l 197 686 q 169 672 188 672 z "},"‚":{"ha":361,"x_min":61,"x_max":300,"o":"m 169 -118 l 124 -118 q 106 -108 106 -118 q 111 -93 106 -99 l 157 -31 q 167 -6 167 -19 q 153 10 167 10 l 117 10 q 61 67 61 10 l 61 210 q 117 265 61 265 l 247 265 q 300 210 300 265 l 300 85 q 265 -8 300 33 l 197 -104 q 169 -118 188 -118 z "},"“":{"ha":722,"x_min":61,"x_max":661,"o":"m 244 735 l 114 735 q 61 789 61 735 l 61 915 q 96 1008 61 967 l 164 1104 q 192 1118 174 1118 l 238 1118 q 256 1108 256 1118 q 250 1093 256 1099 l 204 1031 q 194 1006 194 1019 q 208 990 194 990 l 244 990 q 300 933 300 990 l 300 789 q 244 735 300 735 m 606 735 l 475 735 q 422 789 422 735 l 422 915 q 457 1008 422 967 l 525 1104 q 553 1118 535 1118 l 599 1118 q 617 1108 617 1118 q 611 1093 617 1099 l 565 1031 q 556 1006 556 1019 q 569 990 556 990 l 606 990 q 661 933 661 990 l 661 789 q 606 735 661 735 z "},"”":{"ha":722,"x_min":61,"x_max":661,"o":"m 169 672 l 124 672 q 106 682 106 672 q 111 697 106 692 l 157 760 q 167 785 167 769 q 153 800 167 800 l 117 800 q 61 857 61 800 l 61 1001 q 117 1056 61 1056 l 247 1056 q 300 1001 300 1056 l 300 875 q 265 782 300 824 l 197 686 q 169 672 188 672 m 531 672 l 485 672 q 467 682 467 672 q 472 697 467 692 l 518 760 q 528 785 528 769 q 514 800 528 800 l 478 800 q 422 857 422 800 l 422 1001 q 478 1056 422 1056 l 608 1056 q 661 1001 661 1056 l 661 875 q 626 782 661 824 l 558 686 q 531 672 549 672 z "},"„":{"ha":722,"x_min":61,"x_max":661,"o":"m 169 -118 l 124 -118 q 106 -108 106 -118 q 111 -93 106 -99 l 157 -31 q 167 -6 167 -19 q 153 10 167 10 l 117 10 q 61 67 61 10 l 61 210 q 117 265 61 265 l 247 265 q 300 210 300 265 l 300 85 q 265 -8 300 33 l 197 -104 q 169 -118 188 -118 m 531 -118 l 485 -118 q 467 -108 467 -118 q 472 -93 467 -99 l 518 -31 q 528 -6 528 -19 q 514 10 528 10 l 478 10 q 422 67 422 10 l 422 210 q 478 265 422 265 l 608 265 q 661 210 661 265 l 661 85 q 626 -8 661 33 l 558 -104 q 531 -118 549 -118 z "},"†":{"ha":800,"x_min":61,"x_max":739,"o":"m 482 0 l 329 0 l 329 747 l 61 747 l 61 879 l 329 879 l 329 1056 l 482 1056 l 482 879 l 739 879 l 739 747 l 482 747 l 482 0 z "},"‡":{"ha":800,"x_min":61,"x_max":739,"o":"m 739 175 l 482 175 l 482 0 l 329 0 l 329 175 l 61 175 l 61 306 l 329 306 l 329 747 l 61 747 l 61 879 l 329 879 l 329 1056 l 482 1056 l 482 879 l 739 879 l 739 747 l 482 747 l 482 306 l 739 306 l 739 175 z "},"•":{"ha":604,"x_min":61,"x_max":543,"o":"m 543 293 l 61 293 l 61 763 l 543 763 l 543 293 z "},"…":{"ha":1544,"x_min":69,"x_max":1475,"o":"m 256 0 l 119 0 q 69 54 69 0 l 69 210 q 125 265 69 265 l 256 265 q 308 210 308 265 l 308 54 q 256 0 308 0 m 839 0 l 703 0 q 653 54 653 0 l 653 210 q 708 265 653 265 l 839 265 q 892 210 892 265 l 892 54 q 839 0 892 0 m 1422 0 l 1286 0 q 1236 54 1236 0 l 1236 210 q 1292 265 1236 265 l 1422 265 q 1475 210 1475 265 l 1475 54 q 1422 0 1475 0 z "},"‰":{"ha":1451,"x_min":61,"x_max":1390,"o":"m 322 681 l 322 901 q 301 922 322 922 l 201 922 q 181 901 181 922 l 181 681 q 201 660 181 660 l 301 660 q 322 681 322 660 m 347 528 l 156 528 q 61 619 61 528 l 61 958 q 156 1056 61 1056 l 347 1056 q 442 958 442 1056 l 442 619 q 347 528 442 528 m 231 0 l 74 0 l 785 1056 l 938 1056 l 231 0 m 831 153 l 831 374 q 810 394 831 394 l 710 394 q 689 374 689 394 l 689 153 q 710 132 689 132 l 810 132 q 831 153 831 132 m 856 0 l 664 0 q 569 92 569 0 l 569 431 q 664 528 569 528 l 856 528 q 950 431 950 528 l 950 92 q 856 0 950 0 m 1271 153 l 1271 374 q 1250 394 1271 394 l 1150 394 q 1129 374 1129 394 l 1129 153 q 1150 132 1129 132 l 1250 132 q 1271 153 1271 132 m 1296 0 l 1104 0 q 1010 92 1010 0 l 1010 431 q 1104 528 1010 528 l 1296 528 q 1390 431 1390 528 l 1390 92 q 1296 0 1390 0 z "},"‹":{"ha":339,"x_min":26,"x_max":313,"o":"m 313 150 l 26 347 l 26 533 l 313 732 l 313 540 l 161 440 l 313 342 l 313 150 z "},"›":{"ha":339,"x_min":26,"x_max":313,"o":"m 313 347 l 26 150 l 26 342 l 178 440 l 26 540 l 26 732 l 313 533 l 313 347 z "},"⁄":{"ha":344,"x_min":-260,"x_max":604,"o":"m -103 0 l -260 0 l 451 1056 l 604 1056 l -103 0 z "},"⁰":{"ha":478,"x_min":49,"x_max":429,"o":"m 310 681 l 310 901 q 289 922 310 922 l 189 922 q 168 901 168 922 l 168 681 q 189 660 168 660 l 289 660 q 310 681 310 660 m 335 528 l 143 528 q 49 619 49 528 l 49 958 q 143 1056 49 1056 l 335 1056 q 429 958 429 1056 l 429 619 q 335 528 429 528 z "},"⁴":{"ha":463,"x_min":36,"x_max":426,"o":"m 263 772 l 263 933 l 183 772 l 263 772 m 381 528 l 263 528 l 263 653 l 36 653 l 36 742 l 193 1056 l 381 1056 l 381 772 l 426 772 l 426 653 l 381 653 l 381 528 z "},"⁵":{"ha":479,"x_min":49,"x_max":431,"o":"m 329 528 l 49 528 l 49 660 l 290 660 q 311 681 311 660 l 311 718 q 290 739 311 739 l 53 739 l 53 1056 l 421 1056 l 421 922 l 174 922 l 174 858 l 338 858 q 431 765 431 858 l 431 631 q 329 528 431 528 z "},"⁶":{"ha":481,"x_min":49,"x_max":432,"o":"m 313 679 l 313 715 q 292 736 313 736 l 192 736 q 171 715 171 736 l 171 679 q 192 658 171 658 l 292 658 q 313 679 313 658 m 339 528 l 143 528 q 49 626 49 528 l 49 954 q 142 1056 49 1056 l 418 1056 l 418 922 l 197 922 q 171 893 171 922 l 171 825 q 204 844 182 844 l 349 844 q 432 753 432 844 l 432 621 q 339 528 432 528 z "},"⁷":{"ha":464,"x_min":35,"x_max":429,"o":"m 225 528 l 67 528 l 257 922 l 35 922 l 35 1056 l 429 1056 l 429 965 l 225 528 z "},"⁸":{"ha":479,"x_min":49,"x_max":431,"o":"m 335 528 l 143 528 q 49 625 49 528 l 49 715 q 108 792 49 778 q 50 874 50 801 l 50 957 q 144 1056 50 1056 l 333 1056 q 429 957 429 1056 l 429 874 q 371 792 429 801 q 431 715 431 778 l 431 625 q 335 528 431 528 m 311 678 l 311 719 q 290 740 311 740 l 189 740 q 168 719 168 740 l 168 678 q 189 657 168 657 l 290 657 q 311 678 311 657 m 311 864 l 311 906 q 290 926 311 926 l 189 926 q 168 906 168 926 l 168 864 q 189 842 168 842 l 290 842 q 311 864 311 842 z "},"⁹":{"ha":475,"x_min":43,"x_max":426,"o":"m 304 858 l 304 904 q 283 925 304 925 l 183 925 q 163 904 163 925 l 163 858 q 183 838 163 838 l 283 838 q 304 858 304 838 m 333 528 l 57 528 l 57 660 l 278 660 q 304 690 304 660 l 304 749 q 271 731 294 731 l 126 731 q 43 821 43 731 l 43 963 q 136 1056 43 1056 l 332 1056 q 426 957 426 1056 l 426 628 q 333 528 426 528 z "},"₀":{"ha":478,"x_min":49,"x_max":429,"o":"m 310 153 l 310 374 q 289 394 310 394 l 189 394 q 168 374 168 394 l 168 153 q 189 132 168 132 l 289 132 q 310 153 310 132 m 335 0 l 143 0 q 49 92 49 0 l 49 431 q 143 528 49 528 l 335 528 q 429 431 429 528 l 429 92 q 335 0 429 0 z "},"₁":{"ha":247,"x_min":29,"x_max":197,"o":"m 197 0 l 76 0 l 76 374 q 56 394 76 394 l 29 394 l 29 528 l 101 528 q 197 432 197 528 l 197 0 z "},"₂":{"ha":478,"x_min":49,"x_max":429,"o":"m 429 0 l 49 0 l 49 231 q 140 324 49 324 l 282 324 q 310 351 310 324 l 310 367 q 282 394 310 394 l 57 394 l 57 528 l 335 528 q 429 426 429 528 l 429 296 q 332 204 429 204 l 194 204 q 167 176 167 204 l 167 132 l 429 132 l 429 0 z "},"₃":{"ha":433,"x_min":40,"x_max":385,"o":"m 289 0 l 40 0 l 40 132 l 244 132 q 264 153 264 132 l 264 190 q 244 211 264 211 l 47 211 l 47 317 l 244 317 q 264 338 264 317 l 264 374 q 244 394 264 394 l 44 394 l 44 528 l 288 528 q 383 429 383 528 l 383 346 q 325 264 383 275 q 385 188 385 250 l 385 97 q 289 0 385 0 z "},"₄":{"ha":463,"x_min":36,"x_max":426,"o":"m 263 244 l 263 406 l 183 244 l 263 244 m 381 0 l 263 0 l 263 125 l 36 125 l 36 214 l 193 528 l 381 528 l 381 244 l 426 244 l 426 125 l 381 125 l 381 0 z "},"₅":{"ha":479,"x_min":49,"x_max":431,"o":"m 329 0 l 49 0 l 49 132 l 290 132 q 311 153 311 132 l 311 190 q 290 211 311 211 l 53 211 l 53 528 l 421 528 l 421 394 l 174 394 l 174 331 l 338 331 q 431 238 431 331 l 431 103 q 329 0 431 0 z "},"₆":{"ha":481,"x_min":49,"x_max":432,"o":"m 313 151 l 313 188 q 292 208 313 208 l 192 208 q 171 188 171 208 l 171 151 q 192 131 171 131 l 292 131 q 313 151 313 131 m 339 0 l 143 0 q 49 99 49 0 l 49 426 q 142 528 49 528 l 418 528 l 418 394 l 197 394 q 171 365 171 394 l 171 297 q 204 317 182 317 l 349 317 q 432 225 432 317 l 432 93 q 339 0 432 0 z "},"₇":{"ha":464,"x_min":35,"x_max":429,"o":"m 225 0 l 67 0 l 257 394 l 35 394 l 35 528 l 429 528 l 429 438 l 225 0 z "},"₈":{"ha":479,"x_min":49,"x_max":431,"o":"m 335 0 l 143 0 q 49 97 49 0 l 49 188 q 108 264 49 250 q 50 346 50 274 l 50 429 q 144 528 50 528 l 333 528 q 429 429 429 528 l 429 346 q 371 264 429 274 q 431 188 431 250 l 431 97 q 335 0 431 0 m 311 150 l 311 192 q 290 213 311 213 l 189 213 q 168 192 168 213 l 168 150 q 189 129 168 129 l 290 129 q 311 150 311 129 m 311 336 l 311 378 q 290 399 311 399 l 189 399 q 168 378 168 399 l 168 336 q 189 314 168 314 l 290 314 q 311 336 311 314 z "},"₉":{"ha":475,"x_min":43,"x_max":426,"o":"m 304 331 l 304 376 q 283 397 304 397 l 183 397 q 163 376 163 397 l 163 331 q 183 310 163 310 l 283 310 q 304 331 304 310 m 333 0 l 57 0 l 57 132 l 278 132 q 304 163 304 132 l 304 221 q 271 203 294 203 l 126 203 q 43 293 43 203 l 43 435 q 136 528 43 528 l 332 528 q 426 429 426 528 l 426 100 q 333 0 426 0 z "},"₩":{"ha":1360,"x_min":25,"x_max":1332,"o":"m 1121 0 l 783 0 l 714 418 l 638 418 l 567 0 l 231 0 l 153 418 l 25 418 l 25 603 l 119 603 l 36 1056 l 301 1056 l 367 603 l 447 603 l 540 1056 l 826 1056 l 914 603 l 994 603 l 1065 1056 l 1319 1056 l 1233 603 l 1332 603 l 1332 418 l 1199 418 l 1121 0 z "},"₪":{"ha":1203,"x_min":58,"x_max":1142,"o":"m 858 290 l 621 290 l 621 671 q 579 713 621 713 l 340 713 q 299 671 299 713 l 299 0 l 58 0 l 58 763 q 249 954 58 954 l 669 954 q 858 761 858 954 l 858 290 m 342 664 l 579 664 l 579 283 q 621 242 579 242 l 860 242 q 901 283 901 242 l 901 954 l 1142 954 l 1142 192 q 951 0 1142 0 l 531 0 q 342 193 342 0 l 342 664 z "},"€":{"ha":789,"x_min":26,"x_max":761,"o":"m 761 0 l 285 0 q 135 41 175 0 q 94 196 94 82 l 94 347 l 26 347 l 26 476 l 94 476 l 94 565 l 26 565 l 26 694 l 94 694 l 94 858 q 135 1013 94 971 q 285 1056 175 1056 l 738 1056 l 636 790 l 375 790 q 333 749 333 790 l 333 694 l 600 694 l 551 565 l 333 565 l 333 476 l 518 476 l 468 347 l 333 347 l 333 307 q 375 265 333 265 l 761 265 l 761 0 z "},"₭":{"ha":936,"x_min":21,"x_max":932,"o":"m 892 479 l 657 479 l 932 0 l 633 0 l 372 479 l 351 479 l 351 0 l 111 0 l 111 479 l 21 479 l 21 664 l 111 664 l 111 1056 l 351 1056 l 351 664 l 369 664 l 608 1056 l 885 1056 l 633 664 l 892 664 l 892 479 z "},"₮":{"ha":768,"x_min":24,"x_max":746,"o":"m 135 433 l 135 618 l 265 639 l 265 790 l 24 790 l 24 1056 l 746 1056 l 746 790 l 504 790 l 504 678 l 646 701 l 646 517 l 504 493 l 504 400 l 646 424 l 646 239 l 504 215 l 504 0 l 265 0 l 265 176 l 135 156 l 135 340 l 265 361 l 265 454 l 135 433 z "},"₱":{"ha":975,"x_min":21,"x_max":954,"o":"m 954 586 l 867 586 l 867 492 q 676 310 867 310 l 344 310 l 344 0 l 104 0 l 104 586 l 21 586 l 21 750 l 104 750 l 104 1056 l 676 1056 q 867 858 867 1056 l 867 750 l 954 750 l 954 586 m 628 586 l 344 586 l 344 544 l 586 544 q 628 586 628 544 m 344 790 l 344 750 l 628 750 q 586 790 625 790 l 344 790 z "},"₲":{"ha":833,"x_min":-15,"x_max":793,"o":"m 782 0 l -15 0 l 60 135 q 56 185 56 158 l 56 863 q 246 1056 56 1056 l 793 1056 l 565 643 l 782 643 l 782 0 m 549 424 l 444 424 l 357 265 l 549 265 l 549 424 m 296 749 l 296 560 l 424 790 l 338 790 q 296 749 296 790 z "},"₴":{"ha":914,"x_min":21,"x_max":886,"o":"m 829 0 l 276 0 q 75 206 75 0 l 75 442 l 21 442 l 21 624 l 549 624 q 590 665 590 624 l 590 749 q 549 790 590 790 l 99 790 l 99 1056 l 643 1056 q 831 854 831 1056 l 831 624 l 886 624 l 886 442 l 356 442 q 314 400 314 442 l 314 307 q 356 265 314 265 l 829 265 l 829 0 z "},"₸":{"ha":768,"x_min":24,"x_max":746,"o":"m 746 790 l 24 790 l 24 1056 l 746 1056 l 746 790 m 504 0 l 265 0 l 265 415 l 24 415 l 24 681 l 746 681 l 746 415 l 504 415 l 504 0 z "},"₹":{"ha":797,"x_min":14,"x_max":781,"o":"m 647 0 l 408 0 q 401 56 401 21 l 401 294 q 360 336 401 336 l 194 336 l 247 517 l 360 517 q 401 558 401 517 l 401 601 l 14 601 l 67 764 l 401 764 l 401 801 q 365 843 401 839 l 14 843 l 83 1056 l 781 1056 l 711 843 l 638 843 l 638 764 l 781 764 l 728 601 l 638 601 l 638 590 q 521 426 638 447 q 640 275 640 400 l 640 64 q 647 0 640 24 z "},"₺":{"ha":879,"x_min":6,"x_max":824,"o":"m 6 667 l 6 851 l 61 860 l 61 1056 l 301 1056 l 301 899 l 517 935 l 517 750 l 301 714 l 301 621 l 517 657 l 517 472 l 301 436 l 301 265 l 542 265 q 583 307 583 265 l 583 417 l 824 417 l 824 185 q 633 0 824 0 l 61 0 l 61 397 l 6 389 l 6 574 l 61 582 l 61 675 l 6 667 z "},"₼":{"ha":976,"x_min":58,"x_max":922,"o":"m 253 639 l 371 639 l 371 1056 l 611 1056 l 611 639 l 728 639 q 922 454 922 639 l 922 0 l 683 0 l 683 332 q 642 374 683 374 l 611 374 l 611 0 l 371 0 l 371 374 l 340 374 q 299 332 299 374 l 299 0 l 58 0 l 58 454 q 253 639 58 639 z "},"₽":{"ha":888,"x_min":22,"x_max":854,"o":"m 332 0 l 92 0 l 92 121 l 22 121 l 22 356 l 92 356 l 92 440 l 22 440 l 22 675 l 92 675 l 92 1056 l 664 1056 q 854 858 854 1056 l 854 622 q 664 440 854 440 l 332 440 l 332 356 l 644 356 l 644 121 l 332 121 l 332 0 m 615 717 l 615 749 q 574 790 615 790 l 332 790 l 332 675 l 574 675 q 615 717 615 675 z "},"₾":{"ha":926,"x_min":61,"x_max":907,"o":"m 608 1199 l 608 1056 l 751 1056 q 872 1012 836 1056 q 907 872 907 968 l 907 581 l 667 581 l 667 724 q 654 774 667 758 q 608 790 642 790 l 608 685 l 511 685 l 511 790 l 453 790 l 453 685 l 356 685 l 356 790 q 300 724 300 790 l 300 578 q 305 494 300 521 q 328 431 310 468 l 418 247 l 418 0 l 67 0 l 67 264 l 175 264 l 99 403 q 67 479 74 447 q 61 586 61 511 l 61 872 q 97 1012 61 968 q 217 1056 132 1056 l 356 1056 l 356 1199 l 453 1199 l 453 1056 l 511 1056 l 511 1199 l 608 1199 z "},"℗":{"ha":996,"x_min":61,"x_max":935,"o":"m 749 0 l 256 0 q 61 185 61 0 l 61 864 q 251 1056 61 1056 l 746 1056 q 935 863 935 1056 l 935 190 q 889 46 935 92 q 749 0 843 0 m 807 192 l 807 869 q 740 929 807 929 l 246 929 q 190 867 190 929 l 190 194 q 244 126 190 126 l 743 126 q 807 192 807 126 m 576 600 l 576 636 q 556 656 576 656 l 439 656 l 439 581 l 556 581 q 576 600 576 581 m 439 274 l 324 274 l 324 785 l 600 785 q 692 689 692 785 l 692 554 q 600 467 692 467 l 439 467 l 439 274 z "},"™":{"ha":1111,"x_min":29,"x_max":1049,"o":"m 286 490 l 158 490 l 158 914 l 29 914 l 29 1056 l 415 1056 l 415 914 l 286 914 l 286 490 m 1049 490 l 917 490 l 917 776 l 840 490 l 710 490 l 633 776 l 633 490 l 496 490 l 496 1056 l 675 1056 l 775 683 l 872 1056 l 1049 1056 l 1049 490 z "},"⅓":{"ha":1101,"x_min":56,"x_max":1040,"o":"m 265 528 l 144 528 l 144 901 q 124 922 144 922 l 97 922 l 97 1056 l 169 1056 q 265 960 265 1056 l 265 528 m 213 0 l 56 0 l 767 1056 l 919 1056 l 213 0 m 944 0 l 696 0 l 696 132 l 900 132 q 919 153 919 132 l 919 190 q 900 211 919 211 l 703 211 l 703 317 l 900 317 q 919 338 919 317 l 919 374 q 900 394 919 394 l 700 394 l 700 528 l 943 528 q 1039 429 1039 528 l 1039 346 q 981 264 1039 275 q 1040 188 1040 250 l 1040 97 q 944 0 1040 0 z "},"⅔":{"ha":1276,"x_min":61,"x_max":1215,"o":"m 442 528 l 61 528 l 61 758 q 153 851 61 851 l 294 851 q 322 879 322 851 l 322 894 q 294 922 322 922 l 69 922 l 69 1056 l 347 1056 q 442 954 442 1056 l 442 824 q 344 732 442 732 l 207 732 q 179 704 179 732 l 179 660 l 442 660 l 442 528 m 388 0 l 231 0 l 942 1056 l 1094 1056 l 388 0 m 1119 0 l 871 0 l 871 132 l 1075 132 q 1094 153 1094 132 l 1094 190 q 1075 211 1094 211 l 878 211 l 878 317 l 1075 317 q 1094 338 1094 317 l 1094 374 q 1075 394 1094 394 l 875 394 l 875 528 l 1118 528 q 1214 429 1214 528 l 1214 346 q 1156 264 1214 275 q 1215 188 1215 250 l 1215 97 q 1119 0 1215 0 z "},"⅛":{"ha":1094,"x_min":56,"x_max":1033,"o":"m 265 528 l 144 528 l 144 901 q 124 922 144 922 l 97 922 l 97 1056 l 169 1056 q 265 960 265 1056 l 265 528 m 213 0 l 56 0 l 767 1056 l 919 1056 l 213 0 m 938 0 l 746 0 q 651 97 651 0 l 651 188 q 711 264 651 250 q 653 346 653 274 l 653 429 q 747 528 653 528 l 936 528 q 1032 429 1032 528 l 1032 346 q 974 264 1032 274 q 1033 188 1033 250 l 1033 97 q 938 0 1033 0 m 914 150 l 914 192 q 893 213 914 213 l 792 213 q 771 192 771 213 l 771 150 q 792 129 771 129 l 893 129 q 914 150 914 129 m 914 336 l 914 378 q 893 399 914 399 l 792 399 q 771 378 771 399 l 771 336 q 792 314 771 314 l 893 314 q 914 336 914 314 z "},"⅜":{"ha":1158,"x_min":61,"x_max":1097,"o":"m 310 528 l 61 528 l 61 660 l 265 660 q 285 681 285 660 l 285 718 q 265 739 285 739 l 68 739 l 68 844 l 265 844 q 285 865 285 844 l 285 901 q 265 922 285 922 l 65 922 l 65 1056 l 308 1056 q 404 957 404 1056 l 404 874 q 346 792 404 803 q 406 715 406 778 l 406 625 q 310 528 406 528 m 303 0 l 146 0 l 857 1056 l 1010 1056 l 303 0 m 1001 0 l 810 0 q 715 97 715 0 l 715 188 q 775 264 715 250 q 717 346 717 274 l 717 429 q 811 528 717 528 l 1000 528 q 1096 429 1096 528 l 1096 346 q 1038 264 1096 274 q 1097 188 1097 250 l 1097 97 q 1001 0 1097 0 m 978 150 l 978 192 q 957 213 978 213 l 856 213 q 835 192 835 213 l 835 150 q 856 129 835 129 l 957 129 q 978 150 978 129 m 978 336 l 978 378 q 957 399 978 399 l 856 399 q 835 378 835 399 l 835 336 q 856 314 835 314 l 957 314 q 978 336 978 314 z "},"⅝":{"ha":1240,"x_min":61,"x_max":1179,"o":"m 342 528 l 61 528 l 61 660 l 303 660 q 324 681 324 660 l 324 718 q 303 739 324 739 l 65 739 l 65 1056 l 433 1056 l 433 922 l 186 922 l 186 858 l 350 858 q 443 765 443 858 l 443 631 q 342 528 443 528 m 347 0 l 190 0 l 901 1056 l 1054 1056 l 347 0 m 1083 0 l 892 0 q 797 97 797 0 l 797 188 q 857 264 797 250 q 799 346 799 274 l 799 429 q 893 528 799 528 l 1082 528 q 1178 429 1178 528 l 1178 346 q 1119 264 1178 274 q 1179 188 1179 250 l 1179 97 q 1083 0 1179 0 m 1060 150 l 1060 192 q 1039 213 1060 213 l 938 213 q 917 192 917 213 l 917 150 q 938 129 917 129 l 1039 129 q 1060 150 1060 129 m 1060 336 l 1060 378 q 1039 399 1060 399 l 938 399 q 917 378 917 399 l 917 336 q 938 314 917 314 l 1039 314 q 1060 336 1060 314 z "},"⅞":{"ha":1183,"x_min":61,"x_max":1122,"o":"m 251 528 l 93 528 l 283 922 l 61 922 l 61 1056 l 456 1056 l 456 965 l 251 528 m 290 0 l 133 0 l 844 1056 l 997 1056 l 290 0 m 1026 0 l 835 0 q 740 97 740 0 l 740 188 q 800 264 740 250 q 742 346 742 274 l 742 429 q 836 528 742 528 l 1025 528 q 1121 429 1121 528 l 1121 346 q 1063 264 1121 274 q 1122 188 1122 250 l 1122 97 q 1026 0 1122 0 m 1003 150 l 1003 192 q 982 213 1003 213 l 881 213 q 860 192 860 213 l 860 150 q 881 129 860 129 l 982 129 q 1003 150 1003 129 m 1003 336 l 1003 378 q 982 399 1003 399 l 881 399 q 860 378 860 399 l 860 336 q 881 314 860 314 l 982 314 q 1003 336 1003 314 z "},"∂":{"ha":804,"x_min":35,"x_max":768,"o":"m 582 618 l 582 649 q 529 828 582 763 q 385 894 476 894 q 304 883 360 894 l 304 1067 q 407 1079 364 1079 q 664 968 560 1079 q 768 638 768 857 q 749 388 768 500 q 685 180 729 275 q 560 31 640 85 q 367 -22 479 -22 q 124 72 213 -22 q 35 328 35 165 q 126 610 35 508 q 364 711 217 711 q 582 618 510 711 m 553 381 q 494 493 536 458 q 372 528 451 528 q 263 474 304 528 q 222 326 222 421 q 263 206 222 249 q 367 163 303 163 q 553 381 518 163 z "},"∏":{"ha":914,"x_min":61,"x_max":853,"o":"m 853 -258 l 668 -258 l 668 899 l 244 899 l 244 -258 l 61 -258 l 61 1083 l 853 1083 l 853 -258 z "},"∑":{"ha":835,"x_min":40,"x_max":793,"o":"m 793 -258 l 40 -258 l 40 -156 l 464 456 l 40 1069 l 40 1172 l 793 1172 l 793 1018 l 296 1018 l 665 456 l 296 -107 l 793 -107 l 793 -258 z "},"−":{"ha":661,"x_min":61,"x_max":600,"o":"m 600 443 l 61 443 l 61 625 l 600 625 l 600 443 z "},"√":{"ha":829,"x_min":26,"x_max":811,"o":"m 488 0 l 288 0 l 126 457 l 26 457 l 26 593 l 274 593 l 386 207 l 619 1056 l 811 1056 l 488 0 z "},"∞":{"ha":1146,"x_min":25,"x_max":1119,"o":"m 572 397 q 288 200 499 200 q 99 283 174 200 q 25 518 25 365 q 99 754 25 671 q 288 838 174 838 q 572 636 485 838 q 858 838 657 838 q 1045 754 971 838 q 1119 518 1119 671 q 1045 283 1119 367 q 858 200 971 200 q 572 397 650 200 m 511 513 q 313 692 446 692 q 201 645 242 692 q 161 518 161 599 q 313 340 161 340 q 437 387 386 340 q 511 513 488 433 m 631 513 q 708 387 656 433 q 833 340 760 340 q 985 518 985 340 q 944 645 985 599 q 833 692 904 692 q 631 513 700 692 z "},"∫":{"ha":457,"x_min":15,"x_max":440,"o":"m 61 -258 l 15 -258 l 15 -137 l 61 -137 q 149 -42 149 -137 l 149 985 q 394 1201 149 1201 l 440 1201 l 440 1079 l 394 1079 q 307 985 307 1079 l 307 -42 q 61 -258 307 -258 z "},"≈":{"ha":661,"x_min":61,"x_max":600,"o":"m 600 507 l 600 336 q 449 283 529 283 q 315 315 414 283 q 210 340 258 340 q 61 285 144 340 l 61 456 q 213 508 132 508 q 344 475 254 508 q 451 451 407 451 q 600 507 519 451 m 600 785 l 600 614 q 449 561 529 561 q 315 593 414 561 q 210 618 258 618 q 61 563 144 618 l 61 733 q 213 786 132 786 q 344 753 254 786 q 451 729 407 729 q 600 785 519 729 z "},"≠":{"ha":661,"x_min":0,"x_max":661,"o":"m 219 276 l 128 144 l 0 144 l 92 276 l 61 276 l 61 458 l 219 458 l 325 610 l 61 610 l 61 792 l 453 792 l 535 910 l 661 910 l 578 792 l 600 792 l 600 610 l 451 610 l 346 458 l 600 458 l 600 276 l 219 276 z "},"≤":{"ha":661,"x_min":61,"x_max":600,"o":"m 600 214 l 61 490 l 61 686 l 600 963 l 600 754 l 247 589 l 600 424 l 600 214 m 600 0 l 61 0 l 61 182 l 600 182 l 600 0 z "},"≥":{"ha":661,"x_min":61,"x_max":600,"o":"m 600 490 l 61 214 l 61 424 l 414 589 l 61 754 l 61 963 l 600 686 l 600 490 m 600 0 l 61 0 l 61 182 l 600 182 l 600 0 z "},"◊":{"ha":831,"x_min":15,"x_max":814,"o":"m 517 0 l 324 0 l 15 526 l 324 1056 l 517 1056 l 814 526 l 517 0 m 419 203 l 597 526 l 419 853 l 239 526 l 419 203 z "}}}
